<?xml version="1.0" encoding="UTF-8"?>
<!-- Created with Inkscape (http://www.inkscape.org/) -->
<svg version="1.1" viewBox="0 0 173.07 172.88" xmlns="http://www.w3.org/2000/svg">
 <g transform="translate(-4.8065 -28.03)">
  <g transform="matrix(1.6594 0 0 -1.6594 28.386 136.78)">
   <path d="m0 0c-1.788-0.198-11.42 2.282-13.217 13.137-1.751 10.59 5.096 20.223 6.529 22.771s6.847 12.819 5.096 17.755c0 0 1.274 0 2.149-0.716 0 0-0.318 3.025-2.388 5.334 0 0 3.821 1.433 9.236-1.513 0 0-0.478 2.548 0.079 2.787 0.558 0.239 1.593-1.035 1.593-1.035s0.079 4.22 3.264 6.37c0 0 1.556-4.414 5.812-6.051 5.175-1.991 15.685-0.558 21.736-3.344 0 0 14.65 0.079 15.844-12.341z" fill="#00a63c"/>
  </g>
  <g transform="matrix(1.6594 0 0 -1.6594 13.499 83.891)">
   <path d="m0 0c-5.724-15.109 6.505-23.14 19.431-21.986l-11.151-10.074c-5.723 0.51-20.473 11.859-8.28 32.06" fill="#009234"/>
  </g>
  <g transform="matrix(1.6594 0 0 -1.6594 137.52 66.099)">
   <path d="m0 0c1.93 2.084 10.433 4.328 11.837 3.715 3.156-1.377 5.134-11.11 4.672-13.269 3.005-3.519 9.497-21.164 6.528-28.345-0.823-1.99-5.839-6.449-10.218-8.599 0 0 7.014-9.732 6.13-24.443-0.238-3.981-7.802-6.767-14.57-5.971-1.864 0.219-7.623 6.211-8.519 13.376 0 0-4.379-2.548-7.405-3.424 0 0-3.185-6.767-10.748-7.404-7.564-0.637-8.997 1.99-8.997 1.99l-19.109-0.637s-2.548-3.423-8.042-3.583c-5.493-0.159-10.191 0.637-12.261 5.574-2.07 4.936-4.299 16.959 1.513 24.841s13.854 13.774 18.87 17.755 9.554 8.28 10.43 9.952c0 0 2.786 19.109 6.21 20.144s9.952-3.503 9.952-3.503 8.997 3.821 23.727 1.831" fill="#84cabf"/>
  </g>
  <g transform="matrix(1.6594 0 0 -1.6594 161.38 64.735)">
   <path d="m0 0s0.423-4.13-0.211-6.725l2.488-3.653s-0.529 6.565-2.277 10.378" fill="#72b0a6"/>
  </g>
  <g transform="matrix(1.6594 0 0 -1.6594 79.747 65.702)">
   <path d="m0 0c-0.698-7.729-0.223-13.082 0.311-19.263 0.891-10.3-7.32-14.074-6.338-4.655 0.681 6.536 3.22 21.853 6.027 23.918" fill="#72b0a6"/>
  </g>
  <g transform="matrix(1.6594 0 0 -1.6594 149.73 147.61)">
   <path d="m0 0c-8.45-5.432-5.414-23.719 1.61-26.052l-0.928-1.817c-4.3-0.876-8.599 1.433-12.262 13.455-5.542-3.396-11.918-4.907-21.158-5.284-1.502-0.5-2.246-2.372-1.613-3.553l-1.353-1.593-2.867 1.752c0.667 4.968 7.921 16.502-3.025 28.265 6.457-8.546 29.659-10.008 41.596-5.173" fill="#72b0a6"/>
  </g>
  <g transform="matrix(1.6594 0 0 -1.6594 16.161 160.9)">
   <path d="m0 0c1.561-12.611 15.928-12.745 20.991-10.214l1.728-5.886s-7.514-7.244-17.71-1.073c-4.887 2.958-5.255 16.649-5.009 17.173" fill="#72b0a6"/>
  </g>
  <g transform="matrix(1.6594 0 0 -1.6594 104.46 96.687)">
   <path d="m0 0c-0.661 0.307-1.329 0.425-1.986 0.29-6.083-1.257-8.03-14.995-6.48-16.346 1.452-1.264 4.24-1.991 7.07-2.308-3.158 5.682-3.701 14.445 1.396 18.364" fill="#fff"/>
  </g>
  <g transform="matrix(1.6594 0 0 -1.6594 104.46 96.687)">
   <path d="m0 0c-5.097-3.919-4.554-12.682-1.396-18.364 3.831-0.429 7.737-0.105 8.512 0.671 2.364 2.365-2.207 15.411-7.116 17.693" fill="#c6000d"/>
  </g>
  <g transform="matrix(1.6594 0 0 -1.6594 161.39 94.198)">
   <path d="m0 0c-2.333-3.147-2.056-15.822-0.251-16.39 0.662-0.208 2.146 0.018 3.549 0.541 0.603 5.342 1.207 12.185-3.298 15.849" fill="#c6000d"/>
  </g>
  <g transform="matrix(1.6594 0 0 -1.6594 162.91 93.064)">
   <path d="m0 0c-0.341-0.076-0.643-0.32-0.913-0.684 4.505-3.663 3.901-10.507 3.298-15.848 1.3 0.484 2.529 1.223 2.967 2.115 1.658 3.384-2.172 15.124-5.352 14.417" fill="#fff"/>
  </g>
  <g transform="matrix(1.6594 0 0 -1.6594 127.21 82.945)">
   <path d="m0 0c0.208 1.936 9.212 6.99 11.425 6.051 1.314-0.557-2.587-9.514-4.856-10.39-0.743-0.287-6.744 2.695-6.569 4.339" fill="#3f897a"/>
  </g>
  <g transform="matrix(1.6594 0 0 -1.6594 120.41 93.581)">
   <path d="m0 0c-0.095 0.389 1.274 1.99 2.19 2.229 0 0 0.796-0.637 1.871-3.901 0 0-0.399-1.354-1.434-1.871 0 0-2.189 1.752-2.627 3.543" fill="#3f897a"/>
  </g>
  <g transform="matrix(1.6594 0 0 -1.6594 140.43 106.86)">
   <path d="m0 0c0.159 2.339 3.195 7.086 4.658 7.086 1.512 0 2.627-8.44 1.911-9.037-0.717-0.597-6.051 0.916-6.569 1.951" fill="#3f897a"/>
  </g>
  <g transform="matrix(1.6594 0 0 -1.6594 153.51 171.28)">
   <path d="m0 0c-0.143 1.929 3.191 6.422 4.16 6.305 1.499-0.182 2.38-9.388 0.845-9.913-1.333-0.455-5.102 0.553-5.005 3.608" fill="#3f897a"/>
  </g>
  <g transform="matrix(1.6594 0 0 -1.6594 27.624 148.95)">
   <path d="m0 0c1.727 0.46 6.498-0.476 7.02-1.332 0.906-1.483-2.115-7.979-3.477-8.093-1.171-0.098-6.5 3.445-6.468 4.453 0.033 1.007 1.463 4.582 2.925 4.972" fill="#3f897a"/>
  </g>
  <g transform="matrix(1.6594 0 0 -1.6594 44.129 121.34)">
   <path d="m0 0s-1.592-3.218-1.105-3.803c1.086-1.303 6.016-3.954 7.865-3.542 1.913 0.424 6.874 9.798 6.045 11.212-0.552 0.943-5.395 1.463-5.98 1.333s-6.825-5.2-6.825-5.2" fill="#3f897a"/>
  </g>
  <g transform="matrix(1.6594 0 0 -1.6594 105.69 100.73)">
   <path d="m0 0c0.988 0 1.954-2.16 1.887-5.494-0.064-3.185-0.95-4.777-1.896-4.777s-1.792 1.875-1.878 4.737c-0.107 3.533 0.899 5.534 1.887 5.534" fill="#fff"/>
  </g>
  <g transform="matrix(1.6594 0 0 -1.6594 159.28 108.5)">
   <path d="m0 0c0.229-1.314 0.8-2.04 1.261-2.04 0.684 0 1.375 1.348 1.323 4.347-0.06 3.377-1.025 4.359-1.402 4.379-0.194 0.01-0.383-0.121-0.557-0.359 0 0-1.089-3.656-0.625-6.327" fill="#fff"/>
  </g>
  <g transform="matrix(1.6594 0 0 -1.6594 142.63 67.906)">
   <path d="m0 0c-8.361 1.602-18.199 1.477-26.561-1.362-0.283-0.096-1.072 1.009-0.788 1.105 9.757 3.312 20.665 2.983 27.727 1.188 3.955-1.005 3.695-1.711-0.378-0.931" fill="#0f141b"/>
  </g>
  <g transform="matrix(1.6594 0 0 -1.6594 82.577 139.8)">
   <path d="m0 0c4.439-4.852 16.94-7.316 27.955-6.642 12.346 0.756 26.569 9.279 27.78 14.855 1.185 5.46-0.957 17.843-7.414 27.661-2.518 3.828-1.692 4.341 0.775 0.766 7.039-10.194 9.164-23.739 8.058-28.838-1.433-6.605-17.435-14.984-29.224-15.705-12.728-0.781-25.575 2.505-28.832 7.39-1.014 1.52-0.621 2.178 0.902 0.513" fill="#0f141b"/>
  </g>
  <g transform="matrix(1.6594 0 0 -1.6594 48.995 146.69)">
   <path d="m0 0c7.27-7.796 7.403-20.348 2.598-25.734-3.127-3.503-12.945-3.751-17.245-1.221-4.403 2.591-7.304 14.623-4.653 23.459 4.308 14.361 24.407 22.626 32.564 34.52 0.169 0.246 0.786-0.929 0.647-1.192-4.885-9.219-27.342-18.832-31.819-33.569-2.564-8.439 0.679-20.14 4.17-22.195 3.896-2.291 12.743-2.2 15.527 0.92 4.109 4.604 3.203 17.7-2.432 24.211-2.134 2.464-1.78 3.399 0.643 0.801" fill="#0f141b"/>
  </g>
  <g transform="matrix(1.6594 0 0 -1.6594 71.227 107.74)">
   <path d="m0 0c0.955 12.851 4.777 25.399 6.896 26.105 1.335 0.444 6.274-1.432 9.463-3.866 2.365-1.805 3.276-1.542 0.818 0.723-3.067 2.825-8.853 5.182-10.804 4.531-3.88-1.292-7.093-18.214-7.452-27.424-0.113-2.92 0.807-3.745 1.079-0.069" fill="#0f141b"/>
  </g>
  <g transform="matrix(1.6594 0 0 -1.6594 136.25 65.53)">
   <path d="m0 0c-0.238-0.182 0.876-0.785 1.115-0.604 2.421 1.845 9.835 3.922 11.38 3.223 1.567-0.709 4.198-6.974 4.377-12.05 0.011-0.299 1.23-1.659 1.22-1.36-0.198 5.607-2.357 13.395-4.97 14.577-2.772 1.254-10.838-2.046-13.122-3.786" fill="#0f141b"/>
  </g>
  <g transform="matrix(1.6594 0 0 -1.6594 128.27 82.791)">
   <path d="m0 0c0.034 1.679 8.968 6.136 10.502 5.357 0.596-0.302-3.109-9.079-4.815-9.115-2.039 0.104-5.709 2.724-5.687 3.758m-1.294 0.057c0-1.771 5.045-4.743 6.979-4.842 2.748-0.142 7.432 11.008 5.366 11.385-2.983 0.545-12.345-4.647-12.345-6.543" fill="#0f141b"/>
  </g>
  <g transform="matrix(1.6594 0 0 -1.6594 124.02 90.937)">
   <path d="m0 0c0.388-0.042 1.473-3.197 1.41-3.413-0.073-0.243-0.742-1.13-0.939-1.134-0.196-4e-3 -2.147 2.44-2.155 2.901-0.01 0.462 1.435 1.673 1.684 1.646m-2.599-1.436c-0.132-0.903 2.325-3.81 2.834-4.05 0.562-0.264 1.996 1.519 1.979 2.185-0.015 0.623-1.288 4.337-2.136 4.398-0.7 0.051-2.549-1.654-2.677-2.533" fill="#0f141b"/>
  </g>
  <g transform="matrix(1.6594 0 0 -1.6594 147.88 96.248)">
   <path d="m0 0c0.969-0.062 2.418-7.104 1.689-7.781-0.488-0.455-5.351 0.929-5.593 1.596-0.245 0.676 2.845 6.252 3.904 6.185m-4.863-6.621c0.367-0.845 5.905-2.849 7.153-2.225 1.253 0.627-0.123 10.094-2.268 10.295-1.65 0.155-5.457-6.744-4.885-8.07" fill="#0f141b"/>
  </g>
  <g transform="matrix(1.6594 0 0 -1.6594 91.13 122.43)">
   <path d="m0 0c-0.75 5.403 1.48 11.429 3.977 13.996 0.601 0.618 1.509 1.333 2.426 1.231 2.375-0.262 4.226-2.618 5.361-4.547 2.549-4.335 3.746-10.402 2.938-12.328-0.77-1.838-14.432-0.315-14.702 1.648m-1.254-0.239c0.621-3.2 15.867-4.73 17.045-1.919 2.091 4.984-2.938 17.761-9.268 18.463-4.161 0.459-9.22-9.094-7.777-16.544" fill="#0f141b"/>
  </g>
  <g transform="matrix(1.6594 0 0 -1.6594 163.15 94.146)">
   <path d="m0 0c2.148 0 5.966-7.37 4.612-13.46-0.257-1.15-4.547-3.065-5.657-2.418-1.624 0.947-1.193 15.878 1.045 15.878m-1.703-16.792c1.029-0.854 6.978 1.008 7.463 3.187 1.417 6.372-2.897 14.689-5.76 14.689-3.819 0-3.842-16.099-1.703-17.876" fill="#0f141b"/>
  </g>
  <g transform="matrix(1.6594 0 0 -1.6594 55.034 111.96)">
   <path d="m0 0c-0.299-0.022-0.516-1.085-0.218-1.064 2.476 0.178 5.521-0.533 5.768-1.026 0.441-1.331-4.092-9.979-5.515-10.431-1.397 5e-3 -6.983 2.434-7.122 3.322 0 0.486 0.431 2.013 1.358 3.729 0.142 0.263-0.923 0.181-1.065-0.082-0.848-1.571-1.671-3.115-1.671-3.966 0-1.45 6.789-4.082 8.543-4.082 2.143 0 7.756 10.525 6.906 12.223-0.493 0.987-4.67 1.542-6.984 1.377" fill="#0f141b"/>
  </g>
  <g transform="matrix(1.6594 0 0 -1.6594 23.718 156.68)">
   <path d="m0 0c-0.109 0.815 1.563 3.722 2.57 4.226 0.799 0.399 5.948-0.763 6.462-1.292 0.512-0.529-2.37-6.792-3.342-6.926-0.973-0.133-5.582 3.177-5.69 3.992m2.049 5.245c-1.305-0.653-3.31-3.891-3.124-5.379 0.217-1.745 6.219-5.701 7.269-5.297 1.477 0.568 4.719 7.81 4.011 8.94-0.826 1.315-7.165 2.232-8.156 1.736" fill="#0f141b"/>
  </g>
  <g transform="matrix(1.6594 0 0 -1.6594 154.36 171.24)">
   <path d="m0 0v0.022c0 1.215 2.86 5.767 3.542 5.462 1.322-0.593 1.437-7.954 0.699-8.635-0.542-0.501-4.158 0.137-4.241 3.151m-1.059-0.228c0.105-3.768 5.173-4.367 5.978-3.764 1.263 0.948 0.959 11.005-1.377 11.048-1.364 0.025-4.653-5.362-4.601-7.284" fill="#0f141b"/>
  </g>
  <g transform="matrix(1.6594 0 0 -1.6594 172.97 124.99)">
   <path d="m0 0c-0.017-1.386-0.403-1.897-0.748-2.305-1.525-1.802-8.915-5.402-13.525-6.34-8.126-1.653-30.242 0.111-34.679 2.796-0.81 0.49-1.372 1.686-1.62 2.707-0.469 1.939 0.037 2.448 0.947 0.302 0.581-1.369 1.083-1.728 1.824-2.139 3.054-1.693 24.005-4.407 33.312-2.515 4.05 0.825 10.056 3.608 12.297 5.243 0.892 0.652 1.283 1.305 1.416 2.362 0.249 1.978 0.797 1.598 0.776-0.111" fill="#0f141b"/>
  </g>
  <g transform="matrix(1.6594 0 0 -1.6594 112.75 92.391)">
   <path d="m0 0c1.081-0.975 2.326-2.642 2.829-3.928 0.712-1.821-0.251-2.042-1.067-0.465-0.727 1.406-1.709 2.783-2.51 3.69-1.879 2.128-1.328 2.577 0.748 0.703" fill="#0f141b"/>
  </g>
  <g transform="matrix(1.6594 0 0 -1.6594 157.49 92.648)">
   <path d="m0 0c-0.233-0.698-0.49-1.952-0.554-2.818-0.128-1.768-1.139-1.701-1.045-3e-3 0.063 1.127 0.442 2.328 0.82 3.106 0.885 1.821 1.44 1.699 0.779-0.285" fill="#0f141b"/>
  </g>
  <g transform="matrix(1.6594 0 0 -1.6594 140.07 134.28)">
   <path d="m0 0c-0.727 0.368-1.156 1.02-1.043 1.22 0.1 0.18 1.296-0.045 1.756-0.477 0.585-0.547 0.139-1.172-0.713-0.743" fill="#0f141b"/>
  </g>
  <g transform="matrix(1.6594 0 0 -1.6594 153.64 132.26)">
   <path d="m0 0c0.463 0.565 0.662 1.218 0.531 1.327-0.157 0.134-1.121-0.361-1.495-0.991-0.452-0.758 0.261-1.197 0.964-0.336" fill="#0f141b"/>
  </g>
  <g transform="matrix(1.6594 0 0 -1.6594 102.17 127.45)">
   <path d="m0 0c0.24-0.178 1.094 0.363 0.865 0.555-4.63 3.898-2.069 18.761 1.347 16.665 0.255-0.157 0.323 1.086 0.038 1.178-5.052 1.639-7.808-14.286-2.25-18.398" fill="#0f141b"/>
  </g>
  <g transform="matrix(1.6594 0 0 -1.6594 160.73 94.523)">
   <path d="m0 0c-0.236-0.183-3e-3 -0.82 0.26-0.676 1.824 0.999 4.853-8.433 2.763-14.968-0.091-0.285 0.873-0.117 0.964 0.168 2.592 8.112-1.719 17.235-3.987 15.476" fill="#0f141b"/>
  </g>
  <g transform="matrix(1.6594 0 0 -1.6594 157.81 143.85)">
   <path d="m0 0c4.583-7.425 6.613-15.695 6.154-24.776-0.138-2.763-10.669-7.011-14.912-4.042-3.314 2.32-6.825 9.543-6.906 12.262-9e-3 0.298-1.323-0.254-1.315-0.553 0.084-2.813 3.925-10.477 7.097-12.698 4.814-3.369 16.931 1.246 17.119 4.976 0.47 9.308-1.345 18.011-6.049 25.628-0.157 0.255-1.346-0.543-1.188-0.797" fill="#0f141b"/>
  </g>
  <g transform="matrix(1.6594 0 0 -1.6594 135.61 169.01)">
   <path d="m0 0c-8.631-6.77-21.135-8.604-29.036-6.405-0.288 0.08-0.015 1.403 0.274 1.323 8.136-2.265 19.303-0.146 27.779 5.603 3.329 2.258 3.409 1.382 0.983-0.521" fill="#0f141b"/>
  </g>
  <g transform="matrix(1.6594 0 0 -1.6594 117.06 177.02)">
   <path d="m0 0c-2.238-3.673-5.971-6.614-8.999-6.992-5.476-0.684-8.94 0.628-9.534 2.278-0.1 0.282-0.928-0.745-0.827-1.026 0.649-1.806 4.681-3.054 10.495-2.327 4.348 0.544 8.586 4.67 10.819 8.333 0.156 0.255-1.797-0.01-1.954-0.266" fill="#0f141b"/>
  </g>
  <g transform="matrix(1.6594 0 0 -1.6594 26.194 46.982)">
   <path d="m0 0c-0.97 0.185-1.179 0.018-0.909-0.734 1.456-4.066-0.787-10.143-6.252-19.208-13.378-22.189-0.155-34.091 7.623-34.636 0.298-0.02 0.857 1.046 0.571 1.066-6.56 0.46-20.006 11.666-7.087 33.092 2.99 4.958 6.647 12.4 6.572 17.187-0.02 1.21-0.294 1.874-0.241 2.209 0.022 0.135 0.683 0.019 1.431-0.6 0.231-0.19 0.54 0.399 0.319 0.6-0.498 0.453-1.131 0.854-2.027 1.024" fill="#0f141b"/>
  </g>
  <g transform="matrix(1.6594 0 0 -1.6594 26.518 38.665)">
   <path d="m0 0c-1.829-0.243-1.806-0.536-0.527-2.186 4.54-5.852-1.798-17.528-3.816-22.434-5.791-14.083-0.838-27.607 8.665-30.381 0.287-0.084 1.234 0.766 0.998 0.835-7.06 2.061-14.706 12.815-8.559 28.981 1.606 4.653 8.194 16.319 4.046 22.878-0.704 1.115-0.752 1.184 0.604 1.277 2.726 0.185 7.032-1.316 9.529-3.903 0.208-0.215 0.539 0.529 0.331 0.744-2.958 3.064-8.023 4.62-11.271 4.189" fill="#0f141b"/>
  </g>
  <g transform="matrix(1.6594 0 0 -1.6594 40.277 37.384)">
   <path d="m0 0c-0.77-0.592-0.211-2.632-0.159-3.079 0.035-0.297 0.898-0.314 0.854-0.046-0.181 1.134-0.368 1.845-0.084 1.988 0.334 0.168 0.99-0.77 1.141-0.933 0.204-0.22 0.634 0.789 0.431 1.008-0.051 0.055-1.542 1.553-2.183 1.062" fill="#0f141b"/>
  </g>
  <g transform="matrix(1.6594 0 0 -1.6594 47.079 29.082)">
   <path d="m0 0c-2.406-1.892-4.059-8.089-1.408-10.821 3.799-3.916 4.477-7.091 6.438-15.135 2.046-8.395 3.579-11.409 9.342-15.221 0.251-0.165 0.843 1.075 0.685 1.179-4.001 2.646-6.346 5.359-8.837 15.096-1.531 5.987-2.704 10.561-6.851 14.835-1.934 1.994-1.292 6.13 0.784 8.427 0.664 0.735 0.806 0.616 1.176-0.225 1.601-3.636 4.323-5.731 16.421-6.174 14.457-0.529 20.013-8.196 20.297-14.321 0.013-0.299 1.289-0.029 1.275 0.27-0.326 7.031-6.928 14.598-21.532 15.133-11.979 0.438-14.007 1.767-15.838 6.572-0.474 1.249-0.768 1.316-1.952 0.385" fill="#0f141b"/>
  </g>
  <g transform="matrix(1.6594 0 0 -1.6594 94.687 45.426)">
   <path d="m0 0c10.78-0.808 15.396-7.28 14.768-11.871-0.041-0.296 1.339-0.346 1.38-0.049 0.719 5.256-5.081 13.064-18.478 13.064-0.299 0 2.031-1.122 2.33-1.144" fill="#0f141b"/>
  </g>
  <g transform="matrix(1.6594 0 0 -1.6594 87.649 149.48)">
   <path d="m0 0c3.615-13.736-1.393-22.774-3.047-25.356-1.652-2.582-7.952-3.976-13.322-1.858-7.87 3.102-7.769 25.447-1.344 32.378z" fill="#84cabf"/>
  </g>
  <g transform="matrix(1.6594 0 0 -1.6594 58.584 164.38)">
   <path d="M 0,0 C 0.183,1.963 6.589,6.661 7.8,5.752 8.993,4.858 8.025,-8.661 6.403,-8.776 5.493,-8.84 -0.129,-1.397 0,0" fill="#3f897a"/>
  </g>
  <g transform="matrix(1.6594 0 0 -1.6594 51.485 155.11)">
   <path d="m 0,0 c 0.179,-13.984 7.005,-23.517 15.385,-24.418 0,0 -10.554,-2.684 -13.953,4.651 C -1.967,-12.433 0,0 0,0" fill="#72b0a6"/>
  </g>
  <g transform="matrix(1.6594 0 0 -1.6594 56.536 145.27)">
   <path d="m0 0c-3.927-6.754-4.08-24.486 1.536-28.609 3.798-2.787 11.433-1.753 13.251 0.831 4.572 6.497 5.445 15.762 4.024 22.342-0.764 3.539 0.053 3.915 1.007 0.459 1.868-6.761 1.009-16.533-3.796-23.36-2.395-3.408-11.893-3.97-15.485-1.334-5.462 4.008-6.853 21.434-1.496 30.175 1.784 2.911 3.052 3.095 0.959-0.504" fill="#0f141b"/>
  </g>
  <g transform="matrix(1.6594 0 0 -1.6594 59.53 163.98)">
   <path d="m0 0c0.06 1.014 5.812 5.579 6.797 4.887 0.986-0.693-0.032-13.266-1.056-13.396-1.025-0.131-5.802 7.495-5.741 8.509m-1.116 0.256c-0.091-2.411 5.934-10.772 7.309-9.975 1.938 1.128 3.013 14.596 1.323 16.229-0.931 0.898-8.539-3.769-8.632-6.254" fill="#0f141b"/>
  </g>
  <g transform="matrix(1.6594 0 0 -1.6594 27.738 191.65)">
   <path d="M 0,0 C -0.163,0.478 1.79,2.116 2.506,2.018 3.976,1.817 4.081,-1.954 3.855,-2.158 3.497,-2.484 0.52,-1.53 0,0" fill="#fff"/>
  </g>
  <g transform="matrix(1.6594 0 0 -1.6594 36.811 192.08)">
   <path d="M 0,0 C 0,0.88 1.765,2.681 2.441,2.343 3.543,1.793 4.306,-1.615 3.777,-1.989 3.223,-2.379 0,-1.074 0,0" fill="#fff"/>
  </g>
  <g transform="matrix(1.6594 0 0 -1.6594 45.801 192.19)">
   <path d="m0 0c-0.243 2.005 2.046 3.094 2.05 3.092 1.348-0.593 1.785-4.055 1.606-4.294-0.292-0.39-3.527 0.128-3.656 1.202" fill="#fff"/>
  </g>
  <g transform="matrix(1.6594 0 0 -1.6594 61.439 195.53)">
   <path d="m0 0c-0.046 0.62 0.554 2.213 1.889 2.18 1.251-0.031 1.756-1.073 1.691-2.148-0.064-1.074-0.954-2.737-1.311-2.737-0.358 0-2.203 1.827-2.269 2.705" fill="#fff"/>
  </g>
  <g transform="matrix(1.6594 0 0 -1.6594 69.325 196.39)">
   <path d="m0 0c0.076-1.325 2.054-2.494 2.557-2.244 0.622 0.311 1.057 2.362 0.957 2.83-0.195 0.911-1.139 1.985-1.725 1.985s-1.887-0.846-1.789-2.571" fill="#fff"/>
  </g>
  <g transform="matrix(1.6594 0 0 -1.6594 77.156 196.17)">
   <path d="m0 0c-0.947 0.98 0.693 3.719 1.66 3.417 1.041-0.325 2.097-3.615 1.706-4.168-0.39-0.553-2.455-0.193-3.366 0.751" fill="#fff"/>
  </g>
  <g transform="matrix(1.6594 0 0 -1.6594 90.659 188.94)">
   <path d="M 0,0 C -0.119,0.681 1.79,2.019 2.376,1.758 3.562,1.23 3.704,-1.829 3.225,-2.033 2.768,-2.228 0.228,-1.302 0,0" fill="#fff"/>
  </g>
  <g transform="matrix(1.6594 0 0 -1.6594 98.597 189.75)">
   <path d="M 0,0 C -0.285,0.769 1.584,2.645 2.116,2.409 3.398,1.84 3.559,-0.793 3.34,-1.215 3.07,-1.735 0.328,-0.886 0,0" fill="#fff"/>
  </g>
  <g transform="matrix(1.6594 0 0 -1.6594 105.73 188.34)">
   <path d="M 0,0 C -0.406,0.811 1.813,2.741 2.376,2.506 3.157,2.181 4.007,-0.659 3.715,-1.05 3.379,-1.497 0.434,-0.867 0,0" fill="#fff"/>
  </g>
  <g transform="matrix(1.6594 0 0 -1.6594 150.77 194.44)">
   <path d="m0 0c-0.427 0.409 1.156 3.131 1.986 3.091 1.174-0.055 2.7-3.296 2.49-3.571-0.326-0.423-3.63-0.334-4.476 0.48" fill="#fff"/>
  </g>
  <g transform="matrix(1.6594 0 0 -1.6594 159.41 192.28)">
   <path d="M 0,0 C -0.435,0.471 0.977,3.254 1.726,3.189 2.473,3.124 4.17,-0.024 3.942,-0.448 3.715,-0.871 0.814,-0.879 0,0" fill="#fff"/>
  </g>
  <g transform="matrix(1.6594 0 0 -1.6594 166.06 188.61)">
   <path d="M 0,0 C -0.551,0.681 0.79,3.103 1.204,3.06 2.064,2.969 3.648,0.091 3.401,-0.402 3.172,-0.858 0.683,-0.847 0,0" fill="#fff"/>
  </g>
  <g transform="matrix(1.6594 0 0 -1.6594 29.459 189.37)">
   <path d="m 0,0 c 0,0 2.025,-2.292 2.217,-3.582 0,0 -3.396,1.543 -3.223,2.198 C -0.832,-0.729 0,0 0,0" fill="#dbdcdc"/>
  </g>
  <g transform="matrix(1.6594 0 0 -1.6594 38.403 189.54)">
   <path d="m0 0s1.672-1.808 2.183-3.547c-0.565 0.201-2.964 1.01-3.035 2.046-0.069 0.99 0.852 1.501 0.852 1.501" fill="#dbdcdc"/>
  </g>
  <g transform="matrix(1.6594 0 0 -1.6594 50.857 194.47)">
   <path d="m0 0c-0.178 0.519-1.569 2.627-2.559 3.104 0 0-0.647-0.818-0.511-1.535 0.137-0.716 1.16-1.126 3.07-1.569" fill="#dbdcdc"/>
  </g>
  <g transform="matrix(1.6594 0 0 -1.6594 63.027 192.77)">
   <path d="m0 0s0.272-2.558 0.989-4.025c0 0-1.841 1.159-1.739 2.797 0.068 1.095 0.643 1.295 0.75 1.228" fill="#dbdcdc"/>
  </g>
  <g transform="matrix(1.6594 0 0 -1.6594 70.159 194.01)">
   <path d="m 0,0 c 0,0 1.74,-2.763 2.115,-3.684 0,0 -2.73,0.887 -2.593,2.353 C -0.341,0.136 0,0 0,0" fill="#dbdcdc"/>
  </g>
  <g transform="matrix(1.6594 0 0 -1.6594 77.348 192.6)">
   <path d="m 0,0 c 0,0 2.15,-1.808 2.593,-3.105 0,0 -3.001,0.717 -2.934,1.604 C -0.272,-0.614 0,0 0,0" fill="#dbdcdc"/>
  </g>
  <g transform="matrix(1.6594 0 0 -1.6594 91.953 187.16)">
   <path d="m 0,0 c 0.071,-0.049 1.708,-1.816 1.876,-2.968 -1.422,0.65 -2.379,0.903 -2.422,1.842 C -0.58,-0.375 0,0 0,0" fill="#dbdcdc"/>
  </g>
  <g transform="matrix(1.6594 0 0 -1.6594 99.369 187.39)">
   <path d="m0 0s1.296-0.545 2.387-2.763c0 0-2.524 0.478-2.763 1.467s0.376 1.296 0.376 1.296" fill="#dbdcdc"/>
  </g>
  <g transform="matrix(1.6594 0 0 -1.6594 106.84 185.81)">
   <path d="m0 0s1.809-1.023 2.422-2.66c0 0-2.626 0.136-3.07 1.262-0.193 0.49 0.286 1.308 0.648 1.398" fill="#dbdcdc"/>
  </g>
  <g transform="matrix(1.6594 0 0 -1.6594 151.78 191.42)">
   <path d="m0 0c0.882-0.407 2.177-1.139 3.249-2.379 0 0-3.561-0.304-3.672 0.695s0.423 1.684 0.423 1.684" fill="#dbdcdc"/>
  </g>
  <g transform="matrix(1.6594 0 0 -1.6594 160.09 189.7)">
   <path d="m 0,0 c 0.17,-0.037 2.479,-1.102 2.977,-2.221 0,0 -3.358,-0.056 -3.412,0.805 C -0.491,-0.556 0,0 0,0" fill="#dbdcdc"/>
  </g>
  <g transform="matrix(1.6594 0 0 -1.6594 166.36 185.79)">
   <path d="m0 0s1.943-0.915 2.692-2.386c0 0-2.359-1e-3 -2.859 0.749-0.499 0.749 0.167 1.637 0.167 1.637" fill="#dbdcdc"/>
  </g>
  <g transform="matrix(1.6594 0 0 -1.6594 151.8 193.9)">
   <path d="m0 0c-0.167 0.582 0.968 2.333 1.304 2.323 0.678-0.025 2.07-2.563 1.928-2.855s-2.891 0.066-3.232 0.532m-1.07-0.473c0.246-0.803 5.197-1.232 5.397-0.474 0.218 0.83-2.043 4.312-2.98 4.274-0.936-0.037-2.689-2.911-2.417-3.8" fill="#0f141b"/>
  </g>
  <g transform="matrix(1.6594 0 0 -1.6594 162.43 186.09)">
   <path d="m0 0m-0.129-1.076c0.544-0.089 1.915-2.666 1.761-2.917-0.154-0.25-2.891-0.032-3.012 0.48-0.12 0.512 0.884 2.478 1.251 2.437m-2.074-2.928c0.596-0.833 4.539-1.107 4.813-0.506 0.239 0.512-1.497 4.377-2.61 4.51-1.182 0.141-2.649-3.379-2.203-4.004" fill="#0f141b"/>
  </g>
  <g transform="matrix(1.6594 0 0 -1.6594 168.22 184.63)">
   <path d="m0 0c0.713 0.04 1.767-2.313 1.633-2.585-0.134-0.271-2.379-4e-3 -2.541 0.404-0.278 0.699 0.398 2.152 0.908 2.181m-1.732-2.664c0.233-0.612 4.017-1.02 4.256-0.611 0.316 0.541-1.243 4.375-2.544 4.375-0.572 0-2.239-2.379-1.712-3.764" fill="#0f141b"/>
  </g>
  <g transform="matrix(1.6594 0 0 -1.6594 72.375 191.36)">
   <path d="m0 0h1e-3zm-1.401-2.955c-0.099 0.771 0.558 1.894 1.345 1.954 0.454 0.034 1.182-0.638 1.316-1.668 0.126-0.962-0.435-1.981-0.612-2.047-0.344-0.131-1.949 0.988-2.049 1.761m-0.966-0.104c0.27-1.64 2.744-2.895 3.395-2.664 0.61 0.217 1.124 2.052 0.925 3.347s-1.011 2.303-1.953 2.376c-1.381 0.108-2.534-2.046-2.367-3.059" fill="#0f141b"/>
  </g>
  <g transform="matrix(1.6594 0 0 -1.6594 62.383 195.07)">
   <path d="m0 0c0 6e-3 -1e-3 0.011-1e-3 0.017 0 0.688 0.893 1.39 1.476 1.317 0.459-0.058 1.089-0.687 1.042-1.587-0.049-0.899-0.584-2.011-0.931-2.028-0.347-0.018-1.533 1.388-1.586 2.281m-1.147-0.027c0.078-1.318 2.263-3.545 2.885-3.479 0.651 0.069 1.66 2.273 1.692 3.253 0.041 1.221-0.8 2.433-1.87 2.567-1.278 0.16-2.779-1.154-2.707-2.341" fill="#0f141b"/>
  </g>
  <g transform="matrix(1.6594 0 0 -1.6594 77.496 195.02)">
   <path d="m0 0c-0.169 0.867 0.684 2.137 1.268 2.058 0.297 6e-3 0.726-0.364 1-0.761 0.6-0.868 0.636-2.338 0.439-2.516-0.198-0.177-2.538 0.353-2.707 1.219m-0.908-0.368c0.267-1.293 4.054-1.984 4.43-1.562 0.357 0.402-0.287 4.795-2.091 5.037-1.411 0.189-2.583-2.3-2.339-3.475" fill="#0f141b"/>
  </g>
  <g transform="matrix(1.6594 0 0 -1.6594 46.518 191.85)">
   <path d="m0 0c-0.198 1.132 1.014 2.265 1.566 2.181 0.872-0.131 1.381-3.074 1.213-3.224-0.297-0.265-2.652 0.314-2.779 1.043m-1.006-0.384c0.316-1.009 3.785-1.866 4.552-1.392 0.45 0.277-0.156 4.913-1.903 5.039-1.342 0.095-3.011-2.48-2.649-3.647" fill="#0f141b"/>
  </g>
  <g transform="matrix(1.6594 0 0 -1.6594 37.758 192.08)">
   <path d="m0 0c0 0.016 1e-3 0.032 2e-3 0.047 0.049 0.555 0.943 1.735 1.745 1.567 0.851-0.18 1.257-2.806 1.051-3.083-0.22-0.296-2.798 0.662-2.798 1.469m-1.076 0.144c-0.153-1.696 4.128-2.964 4.618-2.543 0.476 0.407 0.047 4.76-1.751 5.095-1.094 0.204-2.776-1.515-2.867-2.552" fill="#0f141b"/>
  </g>
  <g transform="matrix(1.6594 0 0 -1.6594 106.54 187.79)">
   <path d="m0 0c-0.091 0.651 1.191 1.826 1.718 1.774 0.717-0.072 1.269-2.654 1.106-2.873-0.163-0.22-2.724 0.381-2.824 1.099m-0.955-0.454c0.334-0.959 4.203-1.782 4.598-1.434 0.395 0.347-0.326 3.973-1.66 4.446-0.922 0.328-3.341-1.855-2.938-3.012" fill="#0f141b"/>
  </g>
  <g transform="matrix(1.6594 0 0 -1.6594 99.439 189.54)">
   <path d="m0 0c-0.184 0.667 0.985 1.867 1.651 1.703 0.696-0.172 0.979-2.591 0.813-2.757-0.166-0.165-2.259 0.309-2.464 1.054m-1-0.139c0.222-1.117 3.971-2.172 4.243-1.771 0.468 0.69-0.288 4.228-1.416 4.506-1.128 0.277-3.024-1.753-2.827-2.735" fill="#0f141b"/>
  </g>
  <g transform="matrix(1.6594 0 0 -1.6594 94.959 185.32)">
   <path d="m0 0m-2.032-2.173c-0.041 0.639 1.136 1.499 1.768 1.288 0.788-0.261 0.794-2.816 0.64-2.907-0.228-0.135-2.352 0.74-2.408 1.619m-1.148-0.112c0.108-1.043 3.599-2.772 4.153-2.404 0.383 0.255 0.545 4.364-0.973 4.689-1.387 0.298-3.271-1.423-3.18-2.285" fill="#0f141b"/>
  </g>
  <g transform="matrix(1.6594 0 0 -1.6594 28.727 191.61)">
   <path d="m0 0v0.011c0 0.696 1.258 1.657 1.939 1.461 0.627-0.18 1.091-2.665 0.829-2.961-0.262-0.295-2.71 0.934-2.768 1.489m-1.077-0.113c0.104-0.997 3.651-3.011 4.675-2.333 0.42 0.28 0.116 4.647-1.432 4.977-1.201 0.256-3.374-1.397-3.243-2.644" fill="#0f141b"/>
  </g>
 </g>
</svg>
