<?xml version="1.0" encoding="UTF-8"?>
<svg version="1.1" viewBox="0 0 174.42 200.68" xmlns="http://www.w3.org/2000/svg">
 <g transform="translate(.026667 .05)">
  <path d="m159.45 131.2q-0.9 15.4-10.55 25.85-8.5 9.2-21.95 12.95-12.45 3.5-24.5 1.25-12.15-2.25-18.1-9.3 1.05-2.45 2.25-7.05 1.75-6.7 1.45-10.55 5.85 6.35 14.5 9.75 9.15 3.6 18.45 2.65 22.75-2.3 34.3-28.5l0.9 1.5q1.3 1.45 3.25 1.45" fill="#ef8200"/>
  <path d="m84.35 162.1q13.25 11.9 32.35 10.05 17.45-1.7 31.95-13.6-14.75 17.15-37.5 17.65-9.05 0.15-17.05-2.55-7.5-2.6-11.2-6.7l1.45-4.85" fill="#ddd583"/>
  <path d="m85.85 157.2q10.3 10.95 29.2 10.7 17.85-0.25 33-9.95-12.5 12.5-31.4 14.1-19.5 1.65-32.3-9.95l1.5-4.9" fill="#cf7100"/>
  <path d="m70.65 43.25q-0.6 3.2-3.4 12.1-2.55 8.15-2.65 9.55-0.15 1.95 1 9.35 0.9 6.05 1.75 10.35 4.3 22.55 9.65 31.15 6.35 10.15 8.6 15.75 4.15 10.35 2.1 18.85l-3.85 13.45q-1.5 4.9-1.6 8.1l2.9 6.2q2.6 6.6 1.35 8.75-1.75 2.9-4.25 4.75-3.05 2.25-6.75 2.6-4.35 0.4-9.2-1.4-5.25-1.9-5.3-4.55l0.15-7.9q-0.05-5.7-1.2-8.25l-3.15-3.3q-3.3-3.9-4-6.65l-7.55-1.35-2.35 1.75q-2.45 2.05-2.7 3.6l1.65 3.3q1.55 3.6 0.9 4.8-0.9 1.65-8.1 4.25-7.8 2.8-13.3 2.8-6 0-11.2-3.5-5.25-3.5-1.8-5.4l6.25-3.5q-4.05-2.65-5.65-7.55-3.1-9.75 9.35-20.8-2.5-4.1-3.7-13.85-1.45-11.2 0.45-20.85l-3.1 3.3q-2.35 2.3-3.55 1.95-0.85-0.25-1.35-2.6l-0.3-2.35q-5.25 1.75-5.65 0.4-0.45-1.55-0.05-3 0.7-2.5 3.85-5.85 1.95-4.4 5.45-9.85 7-10.8 14.85-15.85-3.35-0.65-5.35-2.35-3.55-2.95-8.8-10.45-7.3-10.3-7.15-17.05 0.05-3.4 2.95-7.6 2.6-3.9 4.1-4.1l5.35-13.55q-0.35-0.65-0.45-1.55-0.25-1.75 0.85-2.95 4.6-5 9-7.4 10.2-5.6 23.8-3.6 9.85 1.4 16.75 14.05 7.2 13.25 4.4 27.8" fill="#ef8200"/>
  <g fill="#cf7100">
   <path d="m4.05 103.65q3.25-2.4 5.15-2.6 1.5-0.15 1.2 0.9-0.35 1-2.25 1.75l-3 0.35-1.1-0.4"/>
   <path d="m8.25 111.4q3.8-6 7.45-10.1l-0.35 4.15q-5.9 6.1-7.1 5.95"/>
   <path d="m32.4 71q7.1-1.25 11.2-3.2l2.85-0.05q0.25 1.15-1.5 3.45-4.55 6.15-9.8 6.1-4-0.05-6.1-1.5-1.75-1.2-2.95-3.95l6.3-0.85"/>
   <path d="m53.7 164.45q-5.75-9.6-2.7-18.75-0.55 5.65 4.5 9.9 4.65 3.85 11.8 4.9 7.2 1.1 12.7-1.45 5.75-2.65 7.2-8.45l-1.05 4.75-1.9 7.55q-0.7 2-1.3 5.15-0.65 3.2-0.6 4.15 0.1 1.35 3.45 9.2-3-5.3-13.1-4.85-10.2 0.45-11.85 6.4 0-9.2-0.75-10.75-3.5-2.95-6.4-7.75"/>
   <path d="m21.75 160.8q3.1-1.95 3.45-5.45 0.35-3.4-2.1-7.05 4.85 6.15 13.7 9.75 4.9 1.95 8.8 2.5-1.9 0.75-3.85 3.3l-1.6 2.35q1.2 1.6 1.85 3.9 0.6 2.15 0.5 3.85-0.1 1.5-3.8 3.05-2.3 1-9.55 3.25l-6.4 1.05-3.85-0.15q5.15-1.35 3.7-4.7-1.3-3.1-7.75-7.05-3.35-2.05-5.25-7.1l-1.25-4.65q2.6 3.65 6.65 4.4 3.7 0.7 6.75-1.25"/>
  </g>
  <path d="m36.9 79.2q4.25 5.55 7.95 13.6 10.15 21.8 8.75 44.45l-2.65 8q-2 9.4 1.35 16.25-8-0.3-16.7-4.2-17.35-7.85-20.55-25.95-2.55-14.3 1.3-32.3 2.2-10.05 5.8-19.15 1.2-1.45 2.95-2.95 3.5-2.9 6.2-2.8 1.8 0.05 5.6 5.05" fill="#fff697"/>
  <path d="m35.85 77.25-4.45-0.25q-1.8-0.5-3.3-2l1.25-0.5 2.55 0.05q1.8 0.7 3.95 2.7" fill="#ddd583"/>
  <path d="m33.1 143.8q10.65 2.2 18.4-1.4-1.05 0.75-1.35 7-0.35 7.6 2.15 12.2-7.9 0.5-17.4-4.4-14.8-7.6-19.65-25.1 5.65 9.2 17.85 11.7" fill="#ddd583"/>
  <path d="m9.3 46.4 2.35 2.05q2.9 2.25 5.75 3.4l2.45 0.6q-3.7 1.1-6.35 3.55-2.65-4.4-4.2-9.6" fill="#922f00"/>
  <path d="m19.85 52.45 15.95 1.55q10.3 0.65 12.95 0.35-1.8 3.75-10.5 7.9-9.6 4.65-16.35 3.25-1.05-0.25-3.3-2.65-2.75-2.85-5.1-6.85 2.65-2.45 6.35-3.55" fill="#ed8599"/>
  <path d="m13.8 56.1q-0.35-0.55 2.85-2.2l3.25-1.5 18.5 1.55 10.35 0.4q-1.85 2.6-5.65 5.05-1.85 1.25-3.4 1.95-3.8-3.35-12.25-5.15-8.6-1.85-13.65-0.1" fill="#ce7486"/>
  <path d="m50.1 23.9q-2.45 5.25-3.15 10.8-0.8 6.05 0.7 11.2-2.8-0.15-3.05-0.7-1.3-3.4 0.3-10.5 1.7-7.6 5.2-10.8" fill="#fff"/>
  <path d="m54.35 22.2q4.55 0.4 4.7 10.5 0.15 8.3-1.3 11.75-0.4 0.95-3.9 1.35-3 0.3-6.2 0.1-1.5-5.15-0.7-11.2 0.7-5.55 3.15-10.8 2-1.9 4.25-1.7" fill="#0d131a"/>
  <path d="m11.05 30.35q0.95-4.1 2.4-8 2.9-7.85 5.45-6.8 2.35 1-0.25 11.4-2.65 10.4-4.7 9.75-1.45-0.5-2.3-3.45l-0.6-2.9" fill="#0d131a"/>
  <g fill="#fff">
   <path d="m7.25 44.7q0.55 1.25 4.3 3.45-1.95 1.8-2.75 1.55-0.75-0.25-1.55-5"/>
   <path d="m13.7 56.3 1.2-0.3 1.4 0.15q0.3 0.5-0.55 3l-2.05-2.85"/>
   <path d="m31.1 64.95 0.35-1.6q0.45-1.6 1-1.7 0.9-0.1 2.05 1.9l-3.4 1.4"/>
   <path d="m32.25 53.6 6.1 0.45q-2.7 3.25-3.75 3.25-1.1 0-2.35-3.7"/>
   <path d="m17.7 178.6q0.6-0.85 2.15-1.75l1.4-0.75q1.65 0.3 2.65 2.5l0.65 2.2q-1.6 1.5-5.95 2.2l-4.5 0.15q-0.3-0.3 0.55-1.25l0.85-0.95-5.3 0.75-2.95-0.3q-0.3-0.3 0.75-1.45l1.1-1.05-3.95 0.35q-4.05 0.15-4.25-0.75-0.25-0.85 3.35-3.55 3.7-2.75 4.85-1.95 1.25 0.8 1.95 3.65l1.1-1.1q1.3-1.1 2.55-1t2.25 2.1l0.75 1.95"/>
  </g>
  <path d="m147.85 85.45 0.55 2.1q0.15 1.5-0.35 2.65-0.35 0.9-0.1 2 0.25 1.2 1.1 2.2l0.4-1.65 3.25 3.25-0.05 2.75 0.95 1.7q0.55 0.95 0.65 3.25l2.75 1.7-1.9 3.2q-0.55 0.9-0.6 2.9-0.05 1 0.05 1.8l4.45-2.7 0.1 1v1.55q-0.55 3 0.2 3.85 1.7 2 2.05 3.2 0.45 1.55-0.55 3.6-1.05 2.15-1.1 4.5 0 2.05 0.65 2.7l-2.25-0.15q-1.3-0.6-2.65-2.45-1.2-1.75-4.3-2.55l-3.9-0.7q-1.25-0.25-2.75-2.4-1.65-2.35-1.3-4.35 0.25-1.55 1.55-4.15 1.1-2.35 1.1-3-0.05-0.65-1.1-2.6-1.05-1.85-1.05-2.6 0-0.7 1.05-3.25 1.05-2.45 0.95-3l-0.65-1.9q-0.55-1.4-0.55-2.2t0.8-2.2l0.85-1.75q0.1-1.35-0.45-3.55-0.8-3.4 1.75-5.85l0.05 1.2q0.05 1.35 0.35 1.9" fill="#efe908"/>
  <path d="m163.4 87.3q1.5 1.15 1.6 2.95 0.15 3.05-0.55 6.75l1.7-1.45q1.85-1.4 2.3-1.1 0.75 0.55-0.65 9.05l0.9-0.7q0.95-0.65 1.15-0.35 0.3 0.45-0.35 7.75l4.05-6.65-0.05 2q-0.05 2.15 0.05 2.6l0.1 2.15-0.45 2.65q-1.15 3.2-0.8 4.05 0.2 0.55-0.1 1.5-0.35 1.1-1.1 1.75l-2.25 1.9q-1.45 1.35-1.65 2.2l-0.8 1.65-2 1.6-4.2 3.35q-0.6-0.7-0.6-2.7 0.05-2.35 1.1-4.45 1-2.05 0.55-3.6-0.35-1.2-2.05-3.2-0.75-0.85-0.2-3.85v-1.55l-0.1-1-4.45 2.7q-0.1-0.8-0.05-1.8 0.05-2 0.6-2.9l1.9-3.2-2.75-1.7q-0.1-2.3-0.65-3.25l-0.95-1.7 0.05-2.75-3.2-3.2q2-3.15 2.1-4.15l-0.15-2.95q-0.1-2.4 0.9-3.85 0.95-1.4 3.6-4.1l2.75-2.85q0.5-0.75 1.05-3.1 0.6-2.65 0.45-4.15l1.25 2.75q1.25 3.2 0.95 5.5l-1.25 5.55q-0.75 3.05-0.1 3.95l2.35 1.9" fill="#e50020"/>
  <g fill="#dbdcdc">
   <path d="m10.5 175.2 0.45 1.6-2.1 2.1-4.4 0.25-3.2-0.25q0.65-0.8 5-2.35 2.2-0.75 4.25-1.35"/>
   <path d="m7.7 181.9q5.55-4 9.2-4.95l0.45 1.65-1.8 2.4-7.85 0.9"/>
   <path d="m14.45 183.55q1.6-1.1 3.55-2.3 3.85-2.4 5.45-2.85l0.6 1.1q0.5 1.25 0 1.85-0.8 1.05-4.85 1.65l-4.75 0.55"/>
  </g>
  <path d="m149.25 92.85 0.55-0.85q0.6 1.3 3 3.35 0.6 0.5 0.45 2.05t0.2 1.85q0.8 0.7 1 1.55l0.1 1.8q0 1.2 1.9 1.8 2.45 0.75 0.2 3.35-0.9 0.95-1.3 2.4-0.3 1.2-0.15 2.1l2.85-1.7q1.25-1 1.4-0.95 0.25 0.05 0.35 1.65l-0.3 3.1q-0.2 1.75 0.65 2.6 1.65 1.65 1.95 3.2 0.45 1.95-1.05 4.55-0.45 0.85-0.6 2.2-0.2 1.7 0.15 3.45 0.1 0.65-0.5 0.95-0.65 0.3-0.65-0.1l-0.5-2.95q-0.2-1.7 0.85-4 0.9-2 0.8-3.3-0.15-1.55-1.5-2.9-1.25-1.25-0.95-2.8 0.45-2.3 0.15-3.4l-2.15 1.4q-1.5 0.9-1.9 0.65-0.3-0.25-0.3-2.1-0.1-3.15 1.55-5.05 0.55-0.6 0.35-1t-1.5-1.15q-0.6-0.35-0.75-0.8l-0.1-1.15q0-1.45-1.2-2.75-0.55-0.55-0.4-1.9l-0.1-1.95-1.25-1.5-1.3-1.7" fill="#efe908"/>
  <path d="m54.95 23.55q1.15 0.2 1.75 2.15 0.55 2 0.2 4.8-0.45 3.35-1.85 5.1-1.15 1.4-2.2 1.2-1.2-0.3-1.8-2.65-0.5-2.2-0.15-4.65 0.5-3 1.75-4.65 1.1-1.5 2.3-1.3" fill="#fff"/>
  <path d="m18.7 16.5q0.4 0.05 0.5 2.05 0.05 1.95-0.3 3.7-0.65 3-1.55 4.55-0.8 1.35-1.5 1.2-0.6-0.15-0.75-1.55-0.2-1.75 0.6-4.7 0.7-2.55 1.6-4 0.8-1.3 1.4-1.25" fill="#fff"/>
  <path d="m46.65 35.9q1.1-1.9 2.4-2.05-0.45 3.6 0.2 5.85 0.7 2.25 2.45 2.5 1.35 0.2 2.75-1.2 1.65-1.6 2.35-4.7 1.45 1.85 1.55 4.85l-1.1 3.55q-2.15 1.2-5.95 1.35l-3.4-0.15q-1.2-2.5-1.35-6.5l0.1-3.5" fill="#007f78"/>
  <path d="m17.35 27.85q0.55 1 0.55 2l-1.1 3.35q-1.35 3.3-2.65 3.35-1.35 0.05-2.25-2.4l-0.85-3.3q-0.15-0.7 0.35-2.85l0.5-2 0.6-0.6 1.3-0.75q-0.9 2.8-0.7 4.95 0.2 1.9 1.15 2.2 0.8 0.3 1.7-0.75 1-1.15 1.4-3.2" fill="#007f78"/>
  <g fill="#0d131a">
   <path d="m45.4 0.1q17.65 1.75 24.05 20.55 2.65 7.85 2.45 16.85-0.15 8.75-2.9 15.95-2.25 5.9-2.75 7.5-1.45 4.35-1.65 7.15-0.35 5.4-1.2 5.3-0.8-0.1-0.35-5.45 0.45-6.3 4.05-14.95 2.65-6.4 2.85-14.75 0.2-8.55-2.3-16.2-6-18.55-22.4-20.2-7.3-0.7-14.9 2.1-7.65 2.85-12.1 7.9-1.15 1.3-1.5 2.4-0.4 1.25 0.15 2.7 0.1 0.3-0.5 0.55l-0.7-0.05q-1.3-3.7 1.45-6.75 4.8-5.4 12.65-8.35 7.9-3 15.6-2.25"/>
   <path d="m56.75 44q2.15-5.5 1.4-12.9-0.75-7.65-3.85-8-3.4-0.4-6.6 6-3.45 6.95-2.5 15.5 0.55 0.9 5.7 0.65 5.2-0.25 5.85-1.25m-12.9 1q-1.35-7.95 2.1-15.85 3.55-8.05 8.5-7.55 5.25 0.5 5.25 10.85 0 8.8-2 12.35-0.85 1.55-7.2 1.75t-6.65-1.55"/>
   <path d="m18.4 16.2q-1.5 0-4.1 5.65-2.6 5.7-2.6 9v0.05q0 1.8 0.95 3.5 0.85 1.6 1.4 1.45 2.05-0.55 4.15-10.1t0.2-9.55m-5 4.7q3-6.5 5.2-6.2 3.3 0.4 0.95 11.25-2.3 10.8-5.4 11.35-1.1 0.2-2.35-2.2-1.2-2.3-1.25-4.3-0.05-3.7 2.85-9.9"/>
   <path d="m13.85 43.85q-0.45-1.15 0.1-1.55 0.55-0.35 1.05 0.85l0.25 1.5q0.05 0.9-0.2 1.05-0.4 0.25-1.2-1.85"/>
   <path d="m26.9 46.5q1.25-0.55 1.4 0.2 0.15 0.7-1.1 1.35-1.75 0.85-2 0.6-0.15-0.2 0.4-1 0.6-0.8 1.3-1.15"/>
   <path d="m10.95 29.35q0.25-0.2 0.4 0.55t-0.1 0.95q-5.85 5.35-6.45 10.1-0.8 5.95 6.2 17 6.95 11 12.35 12.55 2.4 0.65 7.25 0 4.8-0.7 9.9-2.4 3.45-1.15 3.6-0.5 0.2 0.6-3.3 1.9-5.2 1.95-10.65 2.65-4.85 0.55-7.2-0.1-5.7-1.6-13.1-12.95-7.65-11.65-6.8-18.6 0.4-2.75 2.55-5.75 2.1-3.05 5.35-5.4"/>
   <path d="m50.7 20q-1.65 1.25-2.35 2-0.85 0.95-1.5 2.35-0.7 1.65-1.4 1.5-0.7-0.2-0.05-1.95 1.15-2.95 4.2-4.6 1.5-0.75 1.85-0.45 0.3 0.35-0.75 1.15"/>
   <path d="m20.35 13.65q-0.45-1.05-0.1-1.25t1 0.7q1.7 2.15 1.4 5.75-0.15 1.7-0.9 1.6-0.75-0.05-0.6-1.7 0.2-2.85-0.8-5.1"/>
   <path d="m5.15 40.7q0.35-1.9 0.7-1.9 0.4 0.05 0.35 2 0 1.6 0.9 2.65 1.6 1.8 5.25 4.55 3.6 2.7 5.1 3.25 2.4 0.85 14.6 1.8l15.15 0.7q1.3-0.05 2.05-0.45l1.6-1.4q1.15-1.2 1.4-0.85 0.3 0.3-0.55 1.7-0.7 1.15-1.65 1.7-1 0.55-2.55 0.6l-14.85-0.7q-12.8-0.9-15.7-1.95-1.65-0.55-5.7-3.6t-5.3-4.65q-0.45-0.6-0.7-1.6-0.25-1.05-0.1-1.85"/>
   <path d="m10.15 49 0.8 0.05q1.95 5.4 5.9 10.5 3.65 4.7 5.85 5.3 4.5 1.2 12.6-2.05 8.4-3.4 13-8.75l0.95-0.05q0.7 0.15 0.5 0.35-4.6 5.85-13.7 9.7-8.8 3.7-13.75 2.35-2.6-0.7-6.55-5.8-4.15-5.3-6.25-11.05-0.05-0.3 0.65-0.55"/>
   <path d="m6.8 44.95q0-0.3 0.7-0.3 0.65 0 0.65 0.3 0 0.6 0.35 2.3 0.35 1.85 0.6 1.9 0.3 0.05 0.95-0.45l0.85-0.9 0.95 0.95-1.65 1.15-1.4 0.45q-0.55-0.2-1.3-2.3-0.7-2-0.7-3.1"/>
   <path d="m38.3 53.9q0.55 0.35 0.4 0.6l-2.05 2.15q-1.5 1.15-2.2 1.15-0.6 0-1.6-1.4-1.05-1.4-1.35-2.5-0.05-0.3 0.6-0.45 0.7-0.15 0.75 0.15l0.8 1.95q0.6 1.1 0.85 1.1 0.4 0.05 1.55-1l1.55-1.85 0.7 0.1"/>
   <path d="m13.6 56.4c-0.16667-0.3-0.15-0.48333 0.05-0.55l1.55-0.3c0.76667-0.03333 1.25 0.05 1.45 0.25s0.21667 0.76667 0.05 1.7c-0.13333 0.9-0.31667 1.5333-0.55 1.9-0.16667 0.23333-0.48333 0.05-0.95-0.55 0 0 0.50674-1.0424 0.65-1.6 0.07099-0.27631 0.1-0.85 0.1-0.85-0.16667-0.16667-0.76667-0.05-1.8 0.35-0.2 0.06667-0.38333-0.05-0.55-0.35"/>
   <path d="m32.25 61.15q0.4-0.1 1.2 0.65l1.5 1.65q0.2 0.25-0.25 0.55-0.4 0.25-0.6 0-1.2-1.9-1.65-1.8-0.25 0.05-0.5 1.05l-0.2 1.6q0 0.3-0.55 0.3t-0.55-0.35q0-0.8 0.5-2.1 0.6-1.45 1.1-1.55"/>
   <path d="m24.5 71.45c0.16667-0.1 0.36667 0.11667 0.6 0.65l0.15 0.9c-4.0333 2.9-7.3667 6.0333-10 9.4-2.5333 3.2333-5.75 8.3833-9.65 15.45-1.8 2-3 3.8667-3.6 5.6-0.5 1.3667-0.51667 2.2167-0.05 2.55 0.63333 0.5 2.2833 0.31667 4.95-0.55 0 0 0.52068-0.20022 0.7-0.05 0.24409 0.20447 0.1 0.95 0.1 0.95 0 2.3667 0.35 3.65 1.05 3.85 0.5 0.13333 1.3833-0.41667 2.65-1.65 1.3-1.2 2.4333-2.55 3.4-4.05 0.2 0.13333 0.33333 0.36667 0.4 0.7l-0.1 0.9c-0.56667 1.1333-1.5833 2.3833-3.05 3.75-1.6667 1.5333-2.8833 2.1667-3.65 1.9-1.3333-0.36667-1.9833-2-1.95-4.9-1.3333 0.53333-2.6 0.81667-3.8 0.85-1.1333 0.0333-1.8833-0.15-2.25-0.55-0.53333-0.56667-0.56667-1.65-0.1-3.25 0.6-2.0667 1.9833-4.35 4.15-6.85 3.7-7.1 7.15-12.6 10.35-16.5 2.6667-3.3 5.9-6.3333 9.7-9.1"/>
   <path d="m6 100.25q-1.6 2.35-1.1 2.9 0.5 0.45 3.15-0.45 1.5-0.65 1.7-0.2 0.15 0.5-1.3 1.15-3.6 1.65-4.95 0.9-1.55-0.9 1.6-5 1.05-1.35 1.45-1.05 0.45 0.25-0.55 1.75"/>
   <path d="m24.7 71.55 0.8 0.1q0.65 0.4 0.5 0.65-13.45 30.6-10.65 53.9 3.65 30.85 36.95 35 0.3 0.05 0.5 0.8 0.25 0.8-0.1 0.75-35.5-4-39.3-35.9-2.8-23.8 11.3-55.3"/>
   <path d="m20.45 82.25q1.9-4.1 4.65-6.45 2.7-2.3 5.5-2.3 3.75 0 8.45 6.75 4.45 6.35 8.35 16.55 9.05 23.75 6.6 40.5l-0.85 1.4-0.75 0.75q2.55-18.25-6.8-42.05-3.75-9.6-8-15.9-4.3-6.35-7-6.35-1.95 0-4.55 2.1-3.15 2.55-5.15 6.9-0.15 0.3-0.35-0.65-0.25-1-0.1-1.25"/>
   <path d="m63.45 67.55q-0.05-0.35 0.65-2.45 0.75-2.05 0.8-1.75 3.05 21.8 5.8 32.45 3.65 14.45 9.95 24.6 10.25 16.5 7.65 30.7-0.55 2.9-3.1 11-2.1 6.55-2.25 10.8-0.15 4-0.95 3.8-0.75-0.2-0.55-4.3 0.3-4.7 2.25-11.35 2.3-7.7 2.75-10.6 2-13.05-8.05-29.95-6.25-10.5-9.4-23.5-0.75-3-5.55-29.45"/>
   <path d="m59.55 171.55q0.9 0.45 1 0.75 1.35 3.45 1.25 10.1-0.05 6.2 0.65 7.25 1.2 1.8 4.7 2.85t7.35 0.8q9.85-0.6 11.5-8.05 0.4-1.85-1.85-7.15-2.4-5.7-2.45-6.25-0.05-0.3 0.45-1.2 0.45-0.9 0.5-0.55 0.15 1.75 2.85 7.55 2.4 5.25 2.05 7.8-1.15 8.2-12.45 9.1-4.5 0.35-8.6-0.8t-5.55-3.2q-1.15-1.7-0.75-8.6 0.4-7.15-1.4-10.55l0.75 0.15"/>
   <path d="m53.6 135.65q1.85-3.35 2.4-3 0.5 0.4-1.2 3.9-4.7 9.75-3.2 18.9 1.5 9.2 9.2 16.45 2.75 2.6 2.3 3.15-0.4 0.55-3.2-1.95-8.5-7.5-10.3-16.8-1.9-9.9 4-20.65"/>
   <path d="m17.85 139.85q0.25-0.15 0.75 0.65 0.45 0.75 0.2 0.95-3.65 2.6-6.65 7.85-3.2 5.5-2.9 9.55 0.25 3.15 2.8 6.3 2.45 3.1 6.05 4.8 3.1 1.5 2.8 2-0.25 0.55-3.65-0.85-4.05-1.7-6.8-5.1-2.8-3.4-3.05-7.05-0.4-5.15 3.35-11.2 3.15-5.1 7.1-7.9"/>
   <path d="m39.5 166.8q-0.2-0.25 0.45-0.7 0.6-0.45 0.8-0.2 1.7 2.4 2.4 4.75 0.7 2.45 0.1 4-0.6 1.7-6.45 4-6.25 2.5-12.45 3.1-0.35 0.05-0.4-0.7-0.1-0.75 0.25-0.8 6.05-0.6 11.55-2.85 4.95-2.05 5.85-3.75 0.45-0.9-0.1-2.8-0.6-2.05-2-4.05"/>
   <path d="m14.2 168.35q0.3-0.1 0.8 0.6t0.2 0.75q-1.35 0.5-3.4 1.6-2.05 1.15-3.15 2l-0.95-0.15q-0.7-0.35-0.45-0.55 1.3-1.05 3.3-2.35 2.25-1.4 3.65-1.9"/>
   <path d="m39.65 168.8q-1.05 2.4-1.55 2.2t0.2-2.7q0.8-2.7 2.9-5.1 2-2.45 3.75-2.85 0.3-0.05 1.1 0.5t0.5 0.6q-1.3 0.3-3.45 2.45-2.35 2.4-3.45 4.9"/>
   <path d="m10.7 173.7c0.5 0.83333 0.83333 1.7833 1 2.85 0.03333 0.2-0.16667 0.33333-0.6 0.4-0.43333 0.0333-0.68333-0.05-0.75-0.25l-0.75-2c-0.43333-0.66667-0.78333-1-1.05-1-1-0.0333-2.35 0.6-4.05 1.9-1.6667 1.2333-2.4333 2.0667-2.3 2.5 0.13333 0.33333 0.98333 0.48333 2.55 0.45l4.2-0.45c0.2-0.0333 0.35 0.16667 0.45 0.6s-0.15 0.7-0.15 0.7l-6.7 0.35c-1.5-0.16667-2.2833-0.45-2.35-0.85-0.13333-0.86667 0.96667-2.2167 3.3-4.05 2.3-1.8333 4.0333-2.7333 5.2-2.7 0.73333 0.0333 1.4 0.55 2 1.55"/>
   <path d="m16.75 178.8q-0.05-1.3-0.65-2.4-0.7-1.15-1.45-1.05-1.35 0.2-4 2.7-2.6 2.4-2.4 2.95 0.15 0.45 3 0l4.45-0.95q0.3-0.1 0.3 0.55 0 0.7-0.3 0.75-2.45 0.8-5.6 1.05-3.25 0.25-3.6-0.45-0.5-1.05 2.65-4.35 3.15-3.4 5.3-3.7 1.35-0.2 2.4 1.3 1.1 1.5 1.15 3.6 0 0.3-0.6 0.3-0.65 0-0.65-0.3"/>
   <path d="m13.3 183.85c-0.36667-0.6 0.5-2.1 2.6-4.5 2.1333-2.4333 3.8333-3.7 5.1-3.8 0.93333-0.1 1.9 0.6 2.9 2.1 1 1.4333 1.3667 2.6333 1.1 3.6-0.23333 0.9-2.2 1.6667-5.9 2.3-4.1374 0.79226-5.8 0.3-5.8 0.3m1.7-1.05 4.1-0.45c2.6667-0.56667 4.0833-1.1 4.25-1.6 0.2-0.56667 0.03333-1.3333-0.5-2.3-0.53333-0.96667-1.1-1.4333-1.7-1.4-0.83333 0.0667-2.1167 0.98333-3.85 2.75-1.6667 1.6667-2.4333 2.6667-2.3 3"/>
   <path d="m154.45 128.1q0.1-0.3 0.8 0t0.6 0.6q-5.5 13.05-15 20.6-8.55 6.75-19.2 8.2-9.85 1.35-19.2-2.1-9.25-3.4-15.15-10.4-0.2-0.25 0.15-1.4 0.4-1.15 0.6-0.9 6.4 7.6 15.7 11 9.15 3.4 18.75 1.85 10-1.65 18.1-8.25 8.85-7.2 13.85-19.2"/>
   <path d="m158.85 131.25q0.05-0.3 0.8-0.2t0.7 0.4q-2.1 17.35-12.3 28.85-8.9 10-22.55 14.2-12.25 3.7-24.55 1.8-11.95-1.85-18.3-8.15-0.2-0.2 0.2-1.2t0.6-0.8q5.95 5.95 17.5 7.95 11.95 2.1 23.8-1.2 13.3-3.7 22-13.3 10-11.05 12.1-28.35"/>
   <path d="m157.75 140.25-0.15 2.5q-4.8 13.05-15.35 20.85-9.25 6.9-21.5 8.8-11.15 1.75-21.45-1.05-10.15-2.7-15.2-8.65-0.2-0.25 0.2-1.05 0.4-0.75 0.6-0.5 5 5.85 15.1 8.6 10.3 2.75 21.4 0.95 12.2-1.95 21.35-9 10.4-8.05 15-21.45"/>
   <path d="m168 97v-1.55q-0.15-0.3-1.05 0.4-2.45 2.05-2.8 1.75-0.3-0.25 0-3.15 0.6-6.2-2.6-7.7-1.35-0.6-1.45-1.85-0.1-0.95 0.6-4.2 0.8-3.85 0.8-5.8 0-2.05-0.8-5.2-0.4 2.75-0.95 4.2t-1.5 2.25q-3.7 3.2-5.1 5.45-1.2 1.95-1.05 4.05 0.2 2-0.05 3.05l-0.9 1.95-0.85 1.35q-0.4 0.75-0.55 1.9-0.25 1.7-0.55 1.75-0.25 0.05-1.2-1.4-1-1.45-0.25-4.55 0.4-1.5-0.25-3.25-0.65-1.7-0.3-2.75-0.7 0.65-1.05 2.35-0.35 1.85 0.25 3.2 0.55 1.2 0.2 3l-0.6 1.8q-0.65 1.25-0.65 2.25l0.4 1.8q0.6 1.9 0.25 2.9-1.45 3.45-1.45 4.8 0 1.1 1.05 2.7 1.05 1.55 0.95 2.85l-0.85 2.65-1 1.95q-0.45 1.1-0.5 2.35-0.1 2.05 1.15 4 1.25 2.1 3.05 2.5l4.7 1.35q1.95 0.8 3.35 2.4 1.5 1.6 2.6 1.75 1.2 0.2 2.6-1.25 1.35-1.45 2.95-2.25 1.2-0.55 1.95-2.5 0.75-2 1.5-2.4 1.95-1.1 2.8-2.05 1.2-1.35 1-3.15-0.15-1.1 0.5-3.4t0.55-3.4v-2.8q0.15-1.6 0.45-2.55l-1.2 2.35-1.55 2.8q-1.15 2.25-1.6 2.2-0.45 0-0.25-2.3l0.4-3.1 0.25-3q-1.5 1.2-1.95 1-0.4-0.2-0.25-1.75l0.8-5.75m-5.35-24.15 0.25 3.25q-0.05 1.35-1.25 5.85-0.8 2.85 0.5 3.45 2.7 1.2 3.3 3.85 0.6 2.3-0.3 6.55 3.2-3.2 3.85-1.9 0.75 1.35-0.65 8.75 1.55-1.3 1.95-0.55 0.55 0.95-0.2 5.5l1.55-2.2 1-1.95q0.8-2.05 1.1-2.1 0.4 0 0.45 2.35l-0.2 2.8q-0.1 1.9 0.25 3.1 0.45 1.4-0.5 3.85-1 2.5-0.65 3.6 0.65 2.25-1.55 3.95-3.05 2.3-3.55 3.4l-0.9 2q-0.75 1.25-1.7 1.65-1.9 0.8-2.9 1.9-2.4 2.45-3.7 2.3-1.1-0.1-3.45-2.7-2.85-3.2-7.75-3.8-2-0.25-3.55-2.5-1.45-2.1-1.6-4.35-0.15-1.55 1.3-4.3 1.45-2.7 1.4-3.4-0.05-0.9-0.7-1.65l-1-1.25q-1-1.9 1.15-7.35 0.6-1.4-0.05-2.7-0.75-1.55-0.75-2.5 0.05-0.85 0.85-2.4l0.7-1.7q0.2-1.05-0.1-2.45-0.55-2.45 0.05-4.25 0.35-0.95 1.6-2.85 0.75-1.15 0.95-1.1 0.25 0.05 0.3 1.45l-0.05 1.4q0.05 1.25 0.6 2.65 0.6 1.6-0.1 3.8-0.45 1.3 0.15 2.8l1.6-3.1q0.65-1.15 0.6-2.35l-0.2-2.15q0-3.8 2.1-6.05 1.25-1.4 4.8-4.3 1.4-1.7 1.75-5.65 0.4-3.55 0.7-3.6 0.4-0.1 1.75 3.6 0.5 1.35 0.8 3.35"/>
   <path d="m50.1 23.8 0.95-0.15q0.65 0.05 0.45 0.3-3.25 3.55-4 11.3-0.7 7.15 1.1 10.5 0.15 0.3-0.45 0.5l-0.75-0.1q-2.1-4.05-1.25-11.45 0.85-7.5 3.95-10.9"/>
   <path d="m20.5 52.1q0.35 0 1.05 0.5t0.4 0.5q-2.05 0.15-4.4 1.15-2.1 0.95-3.65 2.2-0.2 0.2-0.55-0.3t-0.15-0.7q3.7-3.05 7.3-3.35"/>
  </g>
  <g fill="#fff">
   <path d="m62.2 190.7q0.3-1.05 1.3-1.9 1.2-0.95 2.35-0.6 1.55 0.5 2.35 2.15 0.7 1.45 0.4 2.5-0.5 1.7-2.55 4.3-2 2.45-2.65 2.5-0.8 0.05-1.25-3.65-0.45-3.65 0.05-5.3"/>
   <path d="m72.35 192.5q-0.2-1.45 0.25-2.55 0.55-1.35 1.95-1.65 2.7-0.5 3.8 2.05 0.65 1.55 0.3 5.4-0.35 3.8-1.05 4.1t-2.65-1.95q-2.15-2.5-2.6-5.4"/>
   <path d="m81.95 191.45q0.35-3.25 2-4.8 1.55-1.45 2.65-0.2 1 1.15 1.85 5.8 0.9 4.55 0.35 4.8-0.65 0.3-3.8-2.3t-3.05-3.3"/>
  </g>
  <path d="m54.75 72.1 11.35 17.65q-2.2 7.85-9.7 15.7-2.65 2.75-8.05 7.05l-4.1 3.6q-2.55 2.1-3.4 1.8-0.75-0.2-1.3-3.05l-0.4-2.8-2.55 1.6q-2.7 1.45-3.4 0.75-0.65-0.65-0.25-3.1l0.5-2.3q-3.7 0-3.65-1.15 0.05-0.8 1.9-2.35 2.3-1.95 3.15-3.2 2.05-9.95 11.2-21.05 4.55-5.55 8.7-9.15" fill="#ef8200"/>
  <path d="m41.1 117.8q2.85-5.3 4.3-7.05l9.5-8.65q7.65-6.85 10.65-12-0.6 5.15-6.55 12.7-5.5 7-9.85 9.2-6.4 5.15-8.05 5.8" fill="#cf7100"/>
  <g fill="#dbdcdc">
   <path d="m67.45 189.25q1.9 2.85-0.1 6.55-1.7 3.15-3.5 3.7l2.55-5.55q1.15-3.15 1.05-4.7"/>
   <path d="m73.25 189.2 1.25 4.85q0.8 2.9 1.85 5.25-0.9 0.2-2.35-2.2-1.5-2.45-1.7-4.6-0.15-1.85 0.4-2.75l0.55-0.55"/>
   <path d="m82.75 188.9 2.6 3.45q2.65 3.65 2.8 4.85l-2.95-2.15q-2.95-2.45-2.95-3.7t0.25-1.95l0.25-0.5"/>
  </g>
  <g fill="#0d131a">
   <path d="m65.55 189q-1.9-0.15-2.5 1.45-0.6 1.5-0.25 4.9 0.25 3.2 0.75 3.4t2.2-2.15q1.7-2.4 2-3.9 0.2-1.2-0.45-2.35-0.65-1.2-1.75-1.35m0.3-1.25q1.65 0.4 2.6 2.05 0.85 1.45 0.7 3.05-0.2 1.5-2.6 4.6t-3.3 3q-1.1-0.05-1.65-4.45-0.5-4.35 0.15-6.1 0.4-1.05 1.65-1.75 1.3-0.7 2.45-0.4"/>
   <path d="m77.55 190.45q-0.35-0.8-1.15-1.2-0.75-0.4-1.55-0.25-0.7 0.15-1.25 0.85-0.65 0.8-0.6 1.8 0.05 2.4 1.95 5.15 1.7 2.45 2.25 2.25 0.5-0.15 0.8-3.4 0.4-3.5-0.45-5.2m-0.6-2.5q1.15 0.6 1.75 1.85 0.85 1.85 0.4 6.25-0.45 4.3-1.4 4.55-1.3 0.35-3.75-3.2-2.5-3.6-2.4-5.85 0.1-1.35 0.85-2.45 0.85-1.25 2.2-1.5 1.25-0.25 2.35 0.35"/>
   <path d="m82.9 191.2q0.05 1.15 2.55 3.15 2.35 1.95 2.65 1.75 0.4-0.35-0.4-4.35-0.85-4.25-2.05-5-1.15-0.1-2 1.5-0.85 1.45-0.75 2.95m-1.4 0.1q-0.15-1.95 1.3-4.05 1.5-2.25 3.15-1.95 1.8 0.4 2.95 6.35 1.15 5.85 0.15 6.35-0.65 0.35-4-2.4-3.45-2.85-3.55-4.3"/>
   <path d="m51.55 73.95q2.6-2 3-1.7 0.45 0.35-1.9 2.6-5.8 5.6-10.2 12.4-4.95 7.6-6.8 14.65-0.35 1.2-1.55 2.55l-2.2 2q-1.2 1-0.8 1.4t2.55 0.4q0.3 0 0.25 0.7t-0.35 0.7q-2.8 0-4.05-0.8-1.7-1.15 1.15-3.5l2.45-2.1q0.85-0.85 1.05-1.75 2.1-7.8 6.7-15.2 4.8-7.75 10.7-12.35"/>
   <path d="m63.75 92.85c0.93333-2.3333 1.55-3.4167 1.85-3.25 0.33333 0.16667 0.1 1.4833-0.7 3.95-1.2 3.8-3.2167 7.4167-6.05 10.85-2.6333 3.2333-5.5667 5.8333-8.8 7.8-0.63333 0.4-2.1667 1.7-4.6 3.9-2.3667 1.9333-4.0333 2.75-5 2.45-0.53333-0.16667-1-0.8-1.4-1.9s-0.58333-2.25-0.55-3.45c-1.3 0.93333-2.5667 1.5333-3.8 1.8 0 0-1.6151 0.37807-2.15-0.1-0.62926-0.56236-0.46368-1.6585-0.4-2.5 0.09903-1.3087 0.56667-2.5167 1.2-3.75 0.9-1.7333 1.5333-2.5333 1.9-2.4 0.36667 0.1 0.15 1.0833-0.65 2.95-0.96667 2.2667-1.2167 3.6333-0.75 4.1 0.71583 0.18674 1.2555-0.10811 1.85-0.3 1.0285-0.33197 1.9667-0.85 2.9-1.45 0.46667-0.3 0.76667-0.41667 0.9-0.35 0.16667 0.0333 0.26667 0.31667 0.3 0.85 0.2 2.9333 0.63333 4.5 1.3 4.7 0.56667 0.16667 1.7833-0.55 3.65-2.15l4.7-3.85c2.6333-1.6333 5.3-4.1 8-7.4 2.8-3.4333 4.9-6.9333 6.3-10.5"/>
  </g>
 </g>
</svg>
