<?xml version="1.0" encoding="UTF-8"?>
<svg version="1.1" viewBox="0 0 278.1 288.03" xmlns="http://www.w3.org/2000/svg">
 <g transform="translate(.0041667 -.020968)">
  <path d="m156.85 64.6q1.35 3.5 1.35 6.7l-0.05 0.95q-0.25 2.05-1.25 2.5-0.9 0.35-2-0.5-2.5-2.05-3.85-8.2-1.3-5.85-0.2-7.35l1.05-0.05 1.15 0.5q2.3 1.45 3.8 5.45" fill="#0d131a"/>
  <path d="m155.75 73.25q-1.6-1.35-2.5-5-0.75-2.95-0.75-5.9l0.2-1.85q1.85 1.5 3.1 4.9 1.1 3.15 1.1 5.9l-0.05 0.8q-0.1 1.3-0.45 1.45l-0.65-0.3" fill="#3d62ac"/>
  <path d="m155.3 67.65 0.15 1.85q-0.1 0.85-0.4 0.95-0.35 0.1-0.7-0.6t-0.55-1.75l-0.15-1.85q0.1-0.85 0.4-0.95 0.35-0.05 0.7 0.6l0.55 1.75" fill="#0d131a"/>
  <path d="m273.4 201.3 1.5-0.6q0.8-0.25 1.2 0.45h0.55q2.5 4.65-0.1 14.2-2.3 8.5-5.5 12.05-0.8 0.9-1.55 0.6-0.85-0.3-1.15-2.65-0.15-1.15-0.35-6.3l-0.3-5.6q-0.25-3.2 1.65-7.35 1.95-4.2 4.05-4.8" fill="#0d131a"/>
  <path d="m273.75 202.55q0.6-0.15 0.95 0.6 1.05 1.9 1.05 5 0 4.65-2.15 10.8-1.85 5.35-3.4 7.05l-0.15 0.15q-0.5-0.8-0.75-7.15l-0.3-6.3q0-2.85 1.65-6.3t3.1-3.85" fill="#fff3c2"/>
  <path d="m274.7 203.15 0.75 2-1.7 1.95q-2.4 3.75-3.3 18.6l-0.4 0.45q-0.5-0.8-0.75-7.15l-0.3-6.3q0-2.85 1.65-6.3t3.1-3.85q0.6-0.15 0.95 0.6" fill="#dbd2a9"/>
  <path d="m206.9 132.05q2 4 6.7 7 3.5 2.3 11.05 5.35l10.1 4q3.95 1.75 6.35 4.1 7.15 7.1 18.6 19.75 11.7 12.9 14.5 16.9 2.85 4.05 3.65 8.45 0.75 4.35-0.75 7.8-1.9 4.4-9.9 5.4l-18.7 0.55q-5.9-1.4-8.6-8.25-5.3-13.65-10.8-25.5-8.35-17.95-12.2-20.3-5.25-3.15-12.3-5.8l-14.4-4.8q-3.95-1.3-4.9-7.15-0.75-4.75 0.55-10.3 0.85-3.65 2.7-5.55 1.8-1.8 4.3-1.7 9.2 0.35 14.05 10.05" fill="#0d131a"/>
  <path d="m224 146.05q5.95 2.45 8.55 3.65 4.35 2.1 6 3.8 7.85 7.8 18.75 19.5 12.05 12.9 14.7 16.6 2.6 3.65 3.35 7.45 0.7 3.75-0.6 6.75-2 4.5-7.75 5.3-12.85 1.6-18.1-0.35-4.65-1.75-7.15-8.15-4.1-10.25-9.05-20.85-9.95-21.15-14.95-23.95-9.9-5.7-25.75-10.8-3.1-1.05-4.4-5.95-1.15-4.6-0.05-9.45 0.5-2.15 1.4-3.65 1.55-2.5 3.65-2.2 4.3 0.6 7.3 3.35 1.85 1.7 5.4 6.85l1.9 2.7q1.65 2.35 6.55 4.85 2.85 1.5 10.25 4.55" fill="#e73820"/>
  <path d="m260.95 207.95q10.05-1.55 14.45-6.1l-0.65 1.95q-2 4.5-7.75 5.3l-14.5 0.5q-4.9-0.65-7.5-3.4 10.1 2.65 15.95 1.75" fill="#c82e19"/>
  <path d="m192.6 123.75q3.25 0.45 5.6 2.05 2 1.3 4.1 3.95 0.3 10.4 4.75 20.75-6.4-2.7-15.05-5.5-3.1-1.05-4.4-5.95-1.15-4.6-0.05-9.45 0.5-2.15 1.4-3.65 1.55-2.5 3.65-2.2" fill="#c82e19"/>
  <path d="m269.25 198q1.7 2.95 1.6 9.9-0.1 8.05-2.85 15.3l-1.6 3.1q-1.15 1.75-1.8 1.7t-1.75-2.55l-2.9-8.4q-2.25-7.05-2.35-8.95-0.05-2 3.5-5.95 3.5-3.9 5.85-4.6 1.75-0.5 2.3 0.45" fill="#0d131a"/>
  <path d="m267.9 199.3q1.4 2.45 0.95 11.4-0.4 9.35-2.55 12.95l-1.1 1.4-0.4 0.2-0.55-0.7-2.7-8.35q-2.1-6.95-2.15-8.8-0.1-1.35 2.75-4.45 2.9-3.15 4.95-3.75l0.8 0.1" fill="#fff3c2"/>
  <path d="m259.4 207.4q-0.05-0.95 1.85-3.4 0.45 4 1.9 10.7 1.35 6.35 2.45 9.95l-0.6 0.55-0.2 0.05-0.55-0.7-2.7-8.35q-2.1-6.95-2.15-8.8" fill="#dbd2a9"/>
  <path d="m250.2 194.4q2.35-0.4 3.15 1.1 1.55 2.8 0.85 10.5-0.9 9.5-5.5 16.7-0.4 0.65-1.15 0.25-1.55-0.7-3.95-9.9-2.25-8.6-2.05-10.25 0.2-1.5 3.2-4.6 3.2-3.35 5.45-3.8" fill="#0d131a"/>
  <path d="m252 197.15q0.5 0.9 0.5 4.35 0 4.8-1.05 9.5-1.3 5.9-3.8 9.05-1-1.45-2.75-8.5-1.75-6.85-1.75-8.95l0.05-0.3q0.15-1 2.45-3.2 2.55-2.45 4.45-2.8 1.35-0.2 1.9 0.85" fill="#fff3c2"/>
  <path d="m243.2 202.3q0.1-0.8 2.1-2.9 0.7 5.25 1.65 10.35 1.15 6.35 2 8.25l-1.3 2.05q-1-1.45-2.75-8.5-1.75-6.85-1.75-8.95l0.05-0.3" fill="#dbd2a9"/>
  <path d="m191.9 263.95q0.3-1.75 3.75-4.3 3.25-2.45 4.35-2.3 1.15 0.2 6.7 3.25 6.05 3.35 6.6 4.8 0.25 0.55-0.1 0.95-0.95 1.15-9.05 0.75l-10.7-1.2q-1.1-0.25-1.45-1-0.25-0.5-0.1-0.95" fill="#0d131a"/>
  <path d="m193.15 264.25q0.05-1.1 3-3.3 2.75-2.1 3.75-2.25 1.1 0.25 6.05 3 5.05 2.8 5.05 3.3l-7 0.45-10.25-0.85q-0.6-0.1-0.6-0.35" fill="#fff3c2"/>
  <path d="m193.75 264.6q-0.6-0.1-0.6-0.35 0.05-1.2 3.25-3.5 6.75 2.25 14.55 4.2l0.05 0.05-7 0.45-10.25-0.85" fill="#dbd2a9"/>
  <path d="m176.55 190.65 2.75-0.35q0.95-0.05 1.15 0.5l4.45 12.35q2.45 5.7 6.6 10.45 8.5 9.6 10 15.1 2.55 9.1-4.55 22.55-0.25 0.5 0.35 1.35l1.7 1.9q3.9 3.9 4.65 5.5 0.75 1.65 0.2 3.15l-1.9 2.8q-3.05 3.8-11.65 5.45l-12.2 0.4-13.95-2.55q-14-2.85-15.2-4.55-1.3-1.85 0.3-6.45 1.2-3.45 2.9-6.15 1.15-1.8 1.4-3.15 0.25-1.5-0.4-3.05-1.15-2.5-7.15-5.25-3.7-1.65-14.3-5.35l0.4-0.9 0.65-1.7q0.55-5.05 18.25-22.8 18.3-18.35 25.55-19.25" fill="#0d131a"/>
  <path d="m178.45 193.2q2.8 7.95 5.25 12.8 2.9 5.75 6.7 10.25 7.35 8.65 8.65 14.25 1.8 7.8-3.65 20.05-0.55 1.25 0.3 2.7 0.45 0.8 2.05 2.45 2.2 2.2 2.75 3.45 1.3 2.8-0.6 5.1-2.7 3.35-10.35 5.1-6.95 1.6-11.1 0.75l-16.85-3.5q-9.25-2.1-10-3.35-0.7-1.15 1.4-7.8l2.3-7.5q0-1.35-0.55-2.75-2.85-6.4-20.25-12.4 0.15-3.9 16.9-20.85 17.4-17.6 24.75-19.45 1.8-0.45 2.3 0.7" fill="#e73820"/>
  <path d="m176.15 192.5q1.8-0.45 2.3 0.7 2.25 6.4 4.2 10.6 2.25 4.85 4.85 8.7-8.85 5.3-15.2 13.25-7.85 9.9-5.45 17.45 1.2 3.7 0.15 6.5-0.75 2.05-3.2 4.55-2.8 2.85-2.6 5 0.15 2.1 3.2 3.4l6.35 2.15 4.65 1.05 3.9 0.8q1.3 0.4 3.1 1.65l1.35 1.95-5.3-0.15-11.05-2.3-10.3-2.3-0.95-0.3h-0.05q-4-1.15-4.5-1.95-0.7-1.15 1.4-7.8l2.3-7.5q0-1.35-0.55-2.75-2.85-6.4-20.25-12.4 0.15-3.9 16.9-20.85 17.4-17.6 24.75-19.45" fill="#c82e19"/>
  <path d="m191.1 265.65q1.15-2.1 4.2-4.7 3.3-2.75 4.55-2.15 1.05 0.5 5.45 4.45 5.1 4.6 5.75 6.65 0.25 0.8-0.25 1.1-1.35 0.85-8.55 0.15-7.6-0.75-10.3-2.4l-0.75-0.35q-0.55-0.3-0.55-0.7 0-1.2 0.45-2.05" fill="#0d131a"/>
  <path d="m192.65 267.5q0-0.5 0.7-1.75 1.25-1.95 3.3-3.9 1.95-1.85 2.65-1.85 1.05 0.55 5.3 4.65 4.4 4.2 4.25 4.7l-6.9 0.2q-6.95-0.5-9.3-1.9v-0.15" fill="#fff3c2"/>
  <path d="m201.4 269.55q-6.5-0.55-8.75-1.9v-0.15q0-0.5 0.7-1.75l0.7-0.95q7 2.7 14.65 4.65-1.25 0.55-7.3 0.1" fill="#dbd2a9"/>
  <path d="m188.05 261.2q3.4 1.4 6.3 4.85 2.35 2.8 3.45 5.7l0.45 1.7q0 0.45-0.4 0.6-1.7 0.75-10.3-0.75-7.75-1.35-9.4-2.05-1.15-0.55-1.15-1.1 0.05-1.4 3.95-4.9 3.55-3.2 5-3.85l1.4-0.45 0.7 0.25" fill="#0d131a"/>
  <path d="m192.75 266.95 2.7 3.6q0.95 1.6 0.55 1.85l-8-0.65q-6.75-1.15-8.85-1.9 0.35-1 3.25-3.95 2.9-2.9 3.95-3.25 0.85-0.3 2.7 0.95 1.75 1.2 3.7 3.35" fill="#fff3c2"/>
  <path d="m179.15 269.85q0.15-0.5 1.25-1.8 11.65 2.85 15.4 3.2 0.45 0.95 0.2 1.15l-8-0.65q-6.75-1.15-8.85-1.9" fill="#dbd2a9"/>
  <path d="m218.85 0.95q0.75-1.2 4.45-0.85 3.65 0.3 6.1 1.7 4.2 2.3 4.2 6.1 0 1.5-1.4 4.1l-7.65 13.5-5.6 9.5q6.1 7.95 10.25 17.75 4.65 10.95 4.65 19.55 0 6.1-4.1 12.15-3.8 5.6-13.6 14.65-22.1 20.45-22.1 35.6v0.45q-0.55 3.5-0.5 8.3l-0.1 7.75q-0.6 8.9-3.55 21.65-2.7 11.65-6.05 20.95-7 19.3-19.25 29.65-16.55 13.95-44.75 14.3l-36.9-1.15q-14-2.3-33.05-12.55-43.7-23.5-45.7-62.55-0.8-15.25 3.1-31.3 3.35-14 10.95-31.2l0.3-0.65 0.7 0.15q3.65 0.8 4.75 2.35l3.4-1.85-0.65 2.05q-1.95 6.5-1.15 18.05 1.1 16.85 9.15 28.35 6.5 9.25 15.9 13.95 9.75 4.9 23.95 5.6 2.3 0.15 7.3-3.25 3.65-2.45 9.9-7.75 11.35-9.55 32-21.3 3.2-1.9 11.25-4.9 11.4-4.3 16.35-7.95 8.25-6.2 11.55-17.15-0.7 0.6-2.05 0.45-1.45-0.1-2.9-0.95-5.85-3.4-9.4-7.9-3.9-4.95-3.9-10.1 0-4.55 3.1-8.8 2.95-4 8.45-7.4-5.05-7.25-6.95-12.75-1.55-4.5-0.8-6.9 1.3-4.25 6.5-6.4 1.6-0.7 2.25-1.4l0.8-1.65q1.9-5.45 6.15-8.6 5.2-3.85 21.45-10.85 10.3-4.45 22.1-12.2 10.05-6.6 11.1-8.3" fill="#0d131a"/>
  <path d="m229.05 4.7q1.75 1.55 1.75 3.55 0 1.4-0.8 2.85l-8 14.25-4.65 7.8-2.95-2.9-1.15 0.05q-0.1 0.95 0.7 1.95 1.75 2.1 6.55 10.15 6.15 10.35 8.4 16.95 2.4 7.05 2.4 11.7 0 6-3.75 11.9-3.75 6-12.9 14.45-8.7 8.05-14.3 16.15-8.05 11.55-8.05 21.15l0.05 0.25q-1.05 6.55-1.75 17.15-0.8 12.05-2.05 18.55-2.1 10.65-7.3 21.3l-1.55 3.3q-7.65 16.75-16.4 24.95-15.7 14.7-42.05 15-47.8 0.6-71.75-14.8l-0.85-0.55q-17.15-11-25.65-20.8-15.3-17.55-16.5-40.85l-0.15-5.5q0-12.9 3.6-26.2 3-11.2 9.8-26.6 2.6 2.45 5.5 1.15-1.85 8.8-1.85 14.65 0 8.9 1.85 16.95 2.35 10.2 7.45 17.45 6.5 9.25 19.65 15 12.85 5.6 23.6 4.35 2.95-0.3 6.85-2.8 3.45-2.15 9.2-7 8-6.75 13.5-10.9 9.3-6.9 19.15-12.55 3.25-1.9 11.05-4.8 11.35-4.2 16.6-8.05 8.7-6.45 12.2-17.75 0.15-0.35-0.1-1.2l-0.15-1.25 1.45-1.8-1.9 1.2q-1.65 1.05-4.45 0-4.6-1.75-8.35-6.6-3.9-5-3.9-9.55 0-4.3 2.35-8 2.7-4.3 8.1-7.15 2.45-1.35 2.7-2.05 0.2-0.7-0.75-0.3l-1.75 0.45-2.1-3.25q-2.9-4.6-4.05-7.4-1.95-4.7-0.95-7.85 1.2-3.7 5.05-5.3 2.05-0.85 2.95-1.95 0.6-0.7 1.05-2.1 1.1-3.15 4.65-6.05 6.25-5.1 22.05-12.4 10.45-4.85 22.3-12.3 10.9-6.85 11.95-8.7l-0.05 0.1 3.45 0.15q3.15 0.75 5 2.4" fill="#e73820"/>
  <path d="m230.8 8.25q0 1.4-0.8 2.85l-8 14.25-4.65 7.8-2.95-2.9-1.15 0.05q-0.1 0.95 0.7 1.95 1.75 2.1 6.55 10.15 6.15 10.35 8.4 16.95 2.4 7.05 2.4 11.7 0 6-3.75 11.9-3.75 6-12.9 14.45-8.7 8.05-14.3 16.15-8.05 11.55-8.05 21.15l0.05 0.25-0.2 1.3q-2.15-2.8-4.4-7.55l-3.65-7.65q-4.7-8.8-13.1-11.55 0.7-0.45 4-0.9 3.55-0.45 5.25-1.25l4.6-2.7q3.95-2.55 6.2-2.9l9.45-0.6q7.55-1.05 13.3-6 6.2-5.25 8.1-15.95 1.4-7.8 0.45-17.95-0.45-4.95-7.65-19.35-6.15-12.3-4.3-14.25l8.35-10q6.1-8.2 8.35-14.25 1.15 0.6 1.95 1.3 1.75 1.55 1.75 3.55" fill="#c82e19"/>
  <path d="m170.85 140.6q7.05-3.35 11.95-2.35 3.7 0.75 6.1 3.95 3 4 2.95 10.85-0.1 6.75-3.35 19.8-2.65 10.5-5.85 19.75l-0.8 1.8q-7.2 17.25-16.3 26.05-16.35 15.95-44.3 16.3-48.25 0.6-72.6-15.05l-0.85-0.55q-17.4-11.2-26.05-21.15-15.55-17.9-16.8-41.7-0.35-6.65 1.3-18.45 1-7 2.25-13.2l1.3 0.25q-2.55 14.6 3.45 31.2 6 16.55 18.05 28.15 11.4 11 23.75 15.15 13.15 4.5 27.85 1.35 21.6-4.6 41.9-20.15 13.45-10.3 26.9-26.15 9.6-11.3 19.15-15.85" fill="#0d131a"/>
  <path d="m189.05 145.75q2.05 3.9 1.75 8.25-0.35 4.85-2.8 15.75-3 13.15-6.55 22.35l-0.8 1.8q-7.1 16.95-15.95 25.55-16.05 15.65-43.45 16-47.9 0.5-71.9-14.85l-0.85-0.55q-17.15-11-25.7-20.85-15.35-17.6-16.55-41l-0.05-2.3q0-6.65 1.7-18.15-0.2 13.45 5.8 27.1 5.9 13.35 16.1 23.2 11.45 11 25.45 15.4 14.45 4.45 29.75 1.25 21.5-4.6 42.15-21.1 10.65-8.55 27.35-26.75 7.6-8.3 10.05-10.15 9.6-7.25 17.3-6.2 4.7 0.6 7.2 5.25" fill="#fff3c2"/>
  <path d="m49.35 220.6-0.85-0.55-9.5-6.4q-6-4.3-10.7-8.75 8.75 6.5 22.1 12.25 16.8 7.3 34.55 10.25 48.15 8.15 87.4-17.3-16.5 24.95-51.1 25.35-47.9 0.5-71.9-14.85" fill="#dbd2a9"/>
  <g fill="#0d131a">
   <path d="m202.1 96-12.9-0.55-12-0.65q-2.1 0.45-5.65 2.9-3.45 2.35-6.25 5.15-0.9 0.9 0.15 2.65 0.95 1.6 2.35 2.2 2.35 1.05 6.5 0.55 3.75-0.45 7.15-1.9 2.05-0.9 2.05-0.35 0 0.5-1.6 1.25-4.15 1.95-8.6 2.55l-6.25-0.3q-2.2-1.05-3.4-3.2l-0.75-2.05-2.2-0.8q-1.85-0.75-0.25-0.4 2.15 0.45 4.05-1.2l4.8-4.55q4.05-3.4 7.7-4l13.1 0.7 11.55 0.7q3.35-1.05 5.45-2.85 1.45-1.2 1.8-0.85 0.3 0.3-0.9 1.65-2.45 2.7-5.9 3.35"/>
   <path d="m176.95 108.35 0.75-0.25 0.9-0.1 3.05 2.2q1.05 0.7 0.95 0.95l-1.1-0.1q-0.85-0.3-2.35-1.2l-2.2-1.5"/>
   <path d="m157.05 57.5q-0.4-0.8-0.05-1.25 0.35-0.5 1.05 0.4 2.05 2.4 2.1 5.9 0.05 1.75-0.5 1.6t-0.8-1.45q-0.3-2.1-1.8-5.2"/>
   <path d="m174.25 61.2q-0.5-1.35-0.35-3.5 0.15-2.7 1.3-4.55 1.9-2.85 1.1 0.8-0.55 2.1-0.75 7.1-0.1 1.65-0.55 1.5-0.35-0.15-0.75-1.35"/>
   <path d="m162.05 91.5q0.5-1.45 1.2-2.05 0.65-0.6 1.35-0.2 0.75 0.4-0.05 1.2-0.65 0.65-1 1.9l-0.55 1.75-0.7 0.8q-0.35 0.05-0.6-0.9t0.35-2.5"/>
   <path d="m190.85 75.85q-6.15-0.4-10.15-2.65l-1.4 0.15q-0.3-0.2-0.05-0.85l0.35-0.55q2.7-5.1 10.9-11.2 7.6-5.65 13.5-7.65 2.8-1 2.95-0.6l-0.95 1.15-1.5 1.2-0.75 0.45q2.3 2.2 4 6.55 1.1 2.95 1.05 5.95-0.1 2.95-1.2 4.85l0.7 0.55q0.3 0.65-1.5 1.05-8.95 2.1-15.95 1.6"/>
  </g>
  <path d="m202.1 56.1q0.8 0.35 1.8 1.8 1.15 1.65 2 3.95 1.35 3.45 1.35 6.5 0 2.55-1 4.4-7.95 2.3-15.45 1.7-5.75-0.5-9.65-2.4 2.8-4.05 10.85-9.95 7.55-5.55 10.1-6" fill="#fff"/>
  <path d="m195.75 58.35 0.35-0.2q2.7 2.5 3.75 7.3 1.2 5.2-0.6 9.4l-0.3 0.5h-0.25l-12.45-0.5h-0.05l-0.05-0.05-3.25-1.35q-1.7-0.7-2.35-2.15l2.15-2.85 0.15-0.15q3.05-3.2 11.8-9.15l1.1-0.8" fill="#0d131a"/>
  <path d="m195.85 59.35q3.25 4.55 3.25 10.15 0 2.45-0.8 5-4.4 0.5-8.5 0.2-4.05-0.3-5.85-1.15l-1.8-0.8q-0.9-0.55-0.6-0.95 1.6-2.45 6.85-6.85 4.7-4 7.45-5.6" fill="#3d62ac"/>
  <path d="m190.7 61.85q2.95 3.05 2.05 7.8-0.85 4.65-3.65 4.65-3.9 0-5.15-6.75l4.35-3.75 2.4-1.95" fill="#0d131a"/>
  <path d="m61.05 19.3q-9.55 10.1-5.7 12.9l0.8-0.1 0.7-0.8q1.25-2.55 2.45-3.2l4.1-0.2 0.55 0.3-0.4 0.5q-1.75 1.15-3.7 4l-3.3 5.6-0.9 1.55q-3.4 6.15-2.4 7.8 0.7 1.3 2.2 0.15 1.25-0.95 1.85-2.45 0.65-1.8 1.05-1.7 0.35 0.05 0.35 1.8 0 5.3-1.8 8.2-1.65 2.7-6.25 5.25-1.9 1-2.7 5-0.2 1.1 0.15 1.25 0.4 0.25 1.4-0.85 1.85-1.95 3.1-2.75 2.3-1.45 5.75-1.8 0.75 0 0.6 0.3l-1.5 1.95q-2.6 3.05-4.35 6.9-2.1 4.55-2.4 9.15-0.95 13.55-7.7 18.1-3.15 2.15-10.75 2.7-3.25 0.25-4.8 1.35-2.5 1.8-5.25 1.3-2.05-0.45-3.25-2.05-0.65-1.35-2.4-3.35-2.25-2.65-8-5.6-3.75-1.95-6-6.2-2-3.75-2.45-8.4-0.5-5.3 1.4-9.85 1.85-4.5 5.6-7.5 6.8-5.4 9.45-10.05 2-3.5 2.2-7.95 0.1-1.45 0.35-1.6l0.5 0.45q2.05 3 2.05 8.1 0.9-3.25 3.1-7.2 4.4-7.85 10.9-10.75 0.95-0.5 1.1-0.35 0.2 0.1-0.55 1-1.75 2.05-3.05 5.55-1.25 3.35-0.65 3.85l0.45 0.35q0.5 0.1 1.3-0.75 2.8-2.8 4.5-7.4 2.05-5.45 4.35-8.15 2.6-3.1 6.15-3.4l0.8 0.1-0.5 0.65q-1.5 1.4-1.95 3.55-0.35 1.85 0.15 3.25 0.25 0.7 0.95 0.55 0.75-0.1 1.15-1.15 2.1-5.35 5.4-8.65 3.2-3.2 12-8.95 1.75-1.15 2.05-1.05 0.3 0.15-0.75 2.05-1.2 2.15-5.2 6.25l-2.3 2.45" fill="#0d131a"/>
  <path d="m67.8 10.1q-1.15 2.1-5.05 6.15l-2.35 2.4q-2.85 3.1-4.2 5.05-2.55 3.65-2.55 6.2 0 1.65 1.05 2.85 0.65 0.7 1.2 0.65 0.6-0.05 1.7-1.6 1-1.55 1.75-2.15 1.25-1.05 2.95-1-1.65 1.35-3.45 4.05l-3.1 5.15-0.85 1.6q-3.2 5.95-3.2 8.55 0 0.7 0.25 1.2 0.4 0.65 1.15 0.65 1.5 0 3-1.45 1.1-1.1 1.75-2.65-0.1 3.15-1.5 6-1.95 3.95-6.15 6.4-1.6 0.9-2.75 3.35-1.05 2.2-1.05 3.95v0.1q0.1 1.05 0.6 1.35l1.25-0.2 1.9-1.8q1.5-1.7 2.6-2.45 1.9-1.25 4.6-1.65l-0.55 0.65q-3.25 3.7-4.65 6.1-2.35 4.1-2.7 8.65-0.9 13.15-7.2 18.1-3.5 2.75-10.35 3.25-3.65 0.2-4.45 0.9-2.05 1.7-4.2 1.35-1.85-0.25-2.9-1.65l-3.85-4.55q-2.6-2.85-8.25-5.95-2.1-1.15-3.7-4.35-1.65-3.3-2.05-7.35l-0.1-2.25q0-4.4 1.7-8.1 1.65-3.75 4.8-6.25 6.55-5.2 8.9-10.05 1.55-3.2 1.8-8.05 1.15 2.55 1.15 6.25 0 2.55-0.4 4.6l-0.1 1.55q0.05 1.1 0.95-1.35 0.8-3.65 2.8-8.05 4.05-8.7 10.3-12.85-1.4 2.15-2.25 4.4t-0.85 3.75q0 1.1 0.5 1.55 1.05 0.95 3.2-1.3l2.4-3.35 2.2-4.25q2.4-4.75 3.8-6.75 2.3-3.25 4.8-4.05-1.5 2.05-1.5 4.6 0 1.35 0.35 2.1 0.5 1.5 1.55 1.5 1.15 0.05 2.15-2.05 2.55-5.75 5.95-9.15 2.25-2.25 8.55-6.5l2.65-1.8" fill="#e50020"/>
  <path d="m42.75 36.6q1.5-1.2 2.05-0.95 0.35 0.1-0.55 1.25-2.4 3.55-2.7 5.45-0.1 0.75 0.3 5.3 0.35 4.3-1.65 8.05-1.5 2.7-4.65 5.65-3.15 3.05-3.8 5.65-0.75 2.9 0.35 3.8 1.05 0.9 1.45-0.55 0.9-3.1 2.25-5 1.15-1.7 3.15-3.1 0.85-0.55 1-0.55 0.25 0-0.05 0.8-2.75 7.35-1.35 8.3 0.45 0.2 1.45-0.7 1.15-1 2.05-2.55 2.5-4.05 2.5-7.05 0-2.3 0.85-0.45 0.4 0.85 0.5 2.55 0.1 2.1-0.35 3.95-1.15 4.4-7.25 11-4.45 4.8-4.05 7.9 0.3 2.2 1.8 2.3 1.25 0 2.75-1.3 1.8-1.6 2.9-4.55 0.3-0.85 0.55-0.9 0.25-0.1 0.55 0.75 1.45 4-0.25 7.6-1.9 3.8-5.9 4.2-1.55 0.15-3.3 1.05-1.75 0.85-3.05 2.05l-3.7 2.6q-1 0.85-2.35 1.05l-2.35-0.15q-1.15-0.3-2.75-2.75l-1.3-1.6-1.6-2.1-1.4-2.85q-4.6-12.2 0.35-20.1 1.6-2.45 1.4-0.5-0.1 1.85 0.55 3.15 0.7 1.35 1.7 1.15 0.75-0.15 1.3-1.95 0.55-1.9 0.55-4.5 0.05-6.25 4.75-11.6 3.7-4.2 5.95-4.55 0.85-0.05 0.2 0.75-3.15 3.75-3.9 6.4-0.65 2.2 0.45 2.4 1.55 0.2 3.4-2.2 1.95-2.55 4.6-8.45l1.6-3.7q0.6-1.75 0.7-3.6 0.2-3.8 4.3-6.85" fill="#efe908"/>
  <path d="m64.95 188.15q1.7-6 11.25-5.1 8.1 0.75 20 6.2 10.75 4.95 19.2 11.15 8.65 6.3 9 9.65 0.6 6.15-9.75 24.3-9.6 16.9-14 20.4 8.55 10.15 7.65 14.75-0.35 1.85-2.4 3.55l-4.35 3.1q-4.45 3.05-20.75 3.3-15.65 0.2-18.55-1.85-5.1-3.65-5.65-4.5-2.6-3.7 0.65-10 4.9-9.6 5.4-15.45 0.4-5.4-2.85-10.8-2.3-3.85-3.65-8.5-2.35-8.2 0.15-14.45l3.6-9.15 5.05-16.6" fill="#e73820"/>
  <path d="m107.1 232.55q11.55-15.25 11.8-29.45 5.2 4.4 5.5 6.95 0.6 6.15-9.75 24.3-9.6 16.9-14 20.4 6.75 8 7.6 12.35 0.7 3.45-2.4 6-5.9-6.7-10.8-10.4-3.15-2.4-9.65-6.05-4.65-2.65-1.95-5 0.95-0.8 7.8-3.95 6.75-3.15 15.85-15.15" fill="#c82e19"/>
  <path d="m64.1 187.95q1.25-2.9 1.85-2.55t-0.15 2.95l-3.8 12-4.9 13.85q-2.45 6.1 0 14.25 1.3 4.4 3.45 7.95 3.5 5.8 2.95 11.65t-5.45 15.45q-2.7 5.2-1.25 8.3 0.85 1.8 4.45 4.1l1.5 1q2.6 1.85 17.85 1.7 16.05-0.15 20.45-3.2l1.4-0.95q2.5-1.65 3.4-2.5 1.4-1.35 1.6-2.85 0.35-2.15-1.3-5.3-1.7-3.25-5.8-8.1-3.55 1.9-4.15 1.15-0.45-0.55 0-0.95l2.3-1.85q6.3-5.1 15.35-19.15 10.7-16.6 9.65-24.75l1.75-0.2 0.1 1.6q0 9.15-7.85 22.5-6.85 11.6-15.65 20.3 4.25 5.2 6.1 8.15 2.35 3.65 2.35 5.9l-0.45 1.85q-0.3 1.9-2.3 3.25l-4.1 2.4-1.4 0.95q-4.7 3.25-21.15 3.5-15.9 0.3-19.15-2.05l-2.6-0.85q-3.85-2.4-4.8-4.4-1.8-3.65 1.3-9.75 4.8-9.35 4.7-16.75-0.05-5.9-3.3-11.25-2.6-4.25-3.65-7.75-2.2-7.3 0.4-13.8l10.3-25.8" fill="#0d131a"/>
  <path d="m68.15 265.65q2.55-1.9 3.7-0.9 1.6 1.25 3.25 4.25 2.05 3.6 2.3 6.85 0.25 2.85-0.75 6.05-1.05 3.5-3.1 5.75-0.45 0.55-1.35 0.35-1.85-0.35-5.85-5.15-3.55-4.3-4.35-6.25-0.55-1.45 1.65-5.35t4.5-5.6" fill="#0d131a"/>
  <path d="m71.2 266.8q1.55 1.25 2.9 3.4 1.75 2.85 2 5.75v0.85q0 4.35-3.5 8.2-0.95 0.2-4.8-3.45-3.85-3.7-4.55-5.4-0.35-0.8 1.55-3.8 2-3.25 4.25-4.9 1.5-1.1 2.15-0.65" fill="#fff3c2"/>
  <path d="m71.8 282q0.6 0 1.8-0.95 1.35-1.05 2.35-2.5-0.6 3.4-3.35 6.45-0.95 0.2-4.8-3.45-3.85-3.7-4.55-5.4-0.3-0.65 1.25-3.3 1.8 4.25 4.45 7.05 2 2.1 2.85 2.1" fill="#dbd2a9"/>
  <path d="m89.5 265.5q1.25-0.75 3.8 1.3 2.3 1.85 4 4.5 1.9 3.05 2.8 9.3 0.85 5.95-0.05 6.65-0.8 0.7-2.75 0.3l-2.9-0.85q-3.55-1.25-7.5-4.15-3.6-2.6-4.1-3.9-0.6-1.4 1.8-6.5 2.5-5.3 4.9-6.65" fill="#0d131a"/>
  <path d="m92.95 268.95q2.1 1.6 3.1 3.2 1.95 3.1 2.65 7.05 0.65 3.75-0.3 5.45-0.2 0.4-1 0.45-2.55 0.05-7.3-2.75-4.4-2.5-5.3-3.95-0.75-1.15 1.45-5.5 2.15-4.2 3.6-5.15 0.9-0.5 3.1 1.2" fill="#fff3c2"/>
  <path d="m85.95 273.5q3.75 4.55 7.15 7 3.65 2.6 5.8 2-0.1 1.4-0.5 2.15-0.2 0.4-1 0.45-2.55 0.05-7.3-2.75-4.4-2.5-5.3-3.95-0.7-1.05 1.15-4.9" fill="#dbd2a9"/>
  <path d="m106.3 263.25q2.55-0.15 7.35 5.65 4.9 5.95 5.25 9.95 0.05 0.55-0.75 0.6l-1.05-0.05q-2.4 0.25-8.75-1.1-6.3-1.3-6.95-2.15-0.45-0.6-0.35-2.7 0.1-2 0.65-3.8 0.65-2.3 1.6-3.95 1.4-2.35 3-2.45" fill="#0d131a"/>
  <path d="m106.65 265q0.9 0.15 3.7 3.3 3.05 3.35 4.75 6.45 1 1.9 1 2.7l-0.05 0.3q-0.9 0.55-6.6-0.75-5.6-1.3-6.6-2.1l-0.1-0.9q0-2.65 1.1-5.45t2.8-3.55" fill="#fff3c2"/>
  <path d="m103.25 270.4 0.6-1.85q1.1-2.8 2.8-3.55 0.9 0.15 3.7 3.3 3.05 3.35 4.75 6.45 1 1.9 1 2.7l-0.05 0.3q-1.1 0.6-7.35-0.95-0.35-1-1.85-2.7l-3.6-3.7" fill="#dbd2a9"/>
  <path d="m99.1 221.7q0.15-1.9 5.85-1.55 3.3 0.15 5.45 2.15 2.55 2.35 2.6 6.7 0.05 3.8 0.8 13.2l0.9 8.1q0.3 3.45-0.5 3.85-0.45 0.25-1.45-0.75l-1.35-1.4q-3.75-3.5-8.05-12.25-5.05-10.35-4.4-16.8l0.15-1.25" fill="#0d131a"/>
  <path d="m104.85 221.45q2.25 0.05 4 1.3 2.8 1.95 2.85 6.25 0.05 5.4 0.8 13.3l0.45 6.45-0.25 1.7-0.7-0.5q-3.25-3.05-7.05-10.85-4.3-8.85-4.3-14.95l0.1-1.5q0.05-0.4 1.15-0.8l2.95-0.4" fill="#fff3c2"/>
  <path d="m101.9 221.85 2.95-0.4q2.25 0.05 4 1.3 2.8 1.95 2.85 6.25 0.05 5.4 0.8 13.3l0.45 6.45-0.15 1.5q-0.7-5.1-1.85-10.2-1.3-5.75-2.3-7.5-0.75-1.25-2.9-2.65-2.1-1.4-4.8-2.45-0.3-1.7-0.3-3.3l0.1-1.5q0.05-0.4 1.15-0.8" fill="#dbd2a9"/>
  <path d="m153.6 140.6q-8.35 5.05-14.35 8.85-11.45 7.3-13.95 10.2-1.1 4.6 4.6 23.85 6.05 20.35 6.05 21.45 0 7.55-4.95 15.45-7.2 11.4-20.1 8.1l-5.75-1.8q-3.6-1.25-5.7-3.65-6-6.75-4.3-27.95 1.1-13.45 2.4-21.35 1.7-10.3 4.5-16.45 2.6-5.8 9.6-10.25 3.15-2 11-5.5 3.95-1.7 9.75-8 4.4-4.75 6.95-8.65 1.7-2.6 8.35-4.1l10.35-0.35q3.55 1.05 1.35 9.55-2.15 8.3-5.8 10.6" fill="#e73820"/>
  <path d="m128.35 193.05 0.35-13.75 4.8 16q2.4 8.05 2.45 9.65 0 6-3.7 13.25-5.25 10.3-14.7 10.95 7.75-7.3 9.8-22.45 0.75-5.35 1-13.65" fill="#c82e19"/>
  <path d="m145.65 119.7q5.5-1.45 12.5-0.1 1.9 0.35 1.7 1.05-0.25 0.7-2.7 0.45-5.3-0.55-10.15 0.85-5.05 1.45-7.25 4.3-4.95 6.4-7.9 9.45-4.6 4.8-8.85 6.65l-1.2 0.55q-6.95 3.1-10.4 5.35-6.15 4.15-8.55 9.4-5.1 11.2-6.8 37.5-0.3 4.3-0.3 7.75 0 13.15 4 18.65 2.35 3.2 8.4 5.1l2.95 1q8.55 2.15 14.55-2.5 4.7-3.65 7.4-10.95 2-5.5 2-9.25 0-1.4-3.65-13.55-7.65-25-6.95-31.95 0.4-3.6 1.25-3.05 0.45 0.3 0.8 1.3 2.65-3 13.4-9.8 8.85-5.65 12.45-7.45 2.2-1.1 2.55-0.75t-1.65 2.25l-12.65 8.3q-11.35 7.15-13.8 9.8-0.05 3.9 2.15 13.95 2.05 9.15 4.55 17.3l2.8 9.4q1.3 4.45 1.3 5.65 0 3.75-2.45 9.35-3.15 7.05-8.25 11.05-6.55 5.1-16.25 2.6l-4.9-1q-6.95-2.15-9.3-6.25-4-7.1-2.75-26.05 1-14.95 2.35-23.5 1.55-9.9 4.1-15.5t9.55-10.05q3.4-2.2 11.4-5.7l1.2-0.5q5.4-2.7 9.9-8.55l5.35-7.65q3.05-3.55 8.1-4.9" fill="#0d131a"/>
  <path d="m131.95 208.2q2.75-4.45 4.35-3.75 1.9 0.8 3.4 3.65 1.25 2.4 1.9 5.6 2.75 14.1 0.35 20.85l-1.5 3.2q-0.95 1.45-1.5 1.35-0.65-0.1-1.5-2.25l-1.4-3.65q-2.95-7.1-7.6-12.1l-0.45-0.25q-1.25-1.05 0.55-5.8 1.4-3.75 3.4-6.85" fill="#0d131a"/>
  <path d="m129.25 219.15q0-1.7 1.35-5.25 1.45-3.85 3.2-6.2 1.35-1.75 1.9-1.45 1.25 0.55 2.35 2.8 1.1 2.35 1.8 5.95 1.15 5.85 0.95 12-0.2 5.95-1.35 7.1l-0.5 0.35q-0.4-0.05-1.45-2.7l-2.7-5.6q-2.2-3.65-5.4-6.4-0.15-0.15-0.15-0.6" fill="#fff3c2"/>
  <path d="m135.75 210.7 1.7 5.7q0.75 3.6 1 8.4 0.3 4.85-0.05 8.9l-0.9-1.95-2.7-5.6q-2.2-3.65-5.4-6.4-0.15-0.15-0.15-0.6 0-1.7 1.35-5.25 1.45-3.85 3.2-6.2l0.75-0.8q0.15 0.85 1.2 3.8" fill="#dbd2a9"/>
  <path d="m122.25 217.9q3.8 2.5 4.6 8.1l1.9 11.6 2.15 11.05q0.6 4.05-0.45 4.4-1.9 0.65-10.15-9.6-7.9-9.8-9.15-13.2-3.85-10.3-0.95-13.7 0.6-0.75 2-0.95l2.55 0.05 1.1 0.15q4.1 0.55 6.4 2.1" fill="#0d131a"/>
  <path d="m127.45 237.85q1.7 8.85 1.7 10.65l-0.15 0.9q-1.8-0.7-8.4-8.9-6.7-8.35-7.95-11.75-1.5-4.4-1.5-7.75 0-2.35 0.85-3.4 0.8-0.95 2.5-0.65l1.2 0.15q3.95 0.55 5.85 1.9 3.2 2.3 4 8.05l1.9 10.8" fill="#fff3c2"/>
  <path d="m124.05 231.8q-1.1-4.4-0.2-10.2 1.2 2.2 1.7 5.45l1.9 10.8q1.7 8.85 1.7 10.65l-0.15 0.9-0.35-0.2-2.55-9.65-2.05-7.75" fill="#dbd2a9"/>
  <path d="m193.55 60.95q0.9 0.25 1.45 1.55 0.5 1.2 0.5 2.85 0 1.75-0.8 3-0.75 1.25-1.85 1.25t-1.9-1.25-0.8-3q0-1.15 0.4-2.2l3-2.2" fill="#fff"/>
 </g>
</svg>
