<?xml version="1.0" encoding="UTF-8"?>
<svg version="1.1" viewBox="0 0 361.65 353.66" xmlns="http://www.w3.org/2000/svg">
 <g transform="translate(0 -.01)">
  <path d="m254.45 135.7-0.65-0.45 0.85 1.8q0.4 0.8 1.8 1.9l1.4 1.25-0.05-1.4q-0.1-1-3.35-3.1m29.5-15.15q0.6-2.3 2.35-5.65l1.7-3.05q0.6-0.9 1.65-0.6 1 0.35 0.9 1.45l-0.5 6.9q-0.45 7.3-0.2 9.9 0.15 1.25 0.65 1.9l1.45 1.1 2.1 1.25q1.45 1 2.15 2.15 1.8 2.85 2.4 8.8 0.6 5.5-0.25 8.2-0.3 0.95-0.1 1.65 0.15 0.65 0.9 1.5l1.15 0.65 1 0.75 0.4 1.75q-0.05 0.65-0.7 1.4l-1.1 1.5q-0.6 1.1-0.6 2l0.3 2.05q0.2 1.65-0.15 2.6-0.45 1.4-1.85 1.45-1.6-0.15-2.2 0-1.2 0.35-1.85 0.9-0.95 1-1.25 2.65-0.35 1.6 0.1 2.6l0.95 0.3 1.15 0.3 1.55 0.35q0.9 0.45 1.05 1.5l-0.75 1.05-1.4 1.7-1.85 1.95q-1.2 1.35-0.55 1.9 0.45 0.35 1.7-1.45 1.8-2.6 2.85-3.6 3.1-3 6.55-4.15 4.15-1.6 4.15-1.25l-0.75 1-0.8 0.95q3.3-1.6 9.2-3.8l2.35-0.4q1.8-0.25 1.85 0 0.1 0.45-1.35 1.5l-1.9 1.3-12.85 10.05q-2 1.6-3.95 4.65-1.65 2.45-2.2 4.15-0.35 1.15-1.25 1.75l-1.8 1.05-0.95 0.7 0.05 0.3q0.35 1.5-0.1 3.95l-1.05 1.1-1.15 0.95q11.75 19.25 15.25 38.2 5.3 28.4-9.55 50.3-18.85 27.75-45.45 34.8-11.35 3-26 2.9l-28.4-2.05q-24.2-2.75-45-18.25-6.6-4.95-12.15-10.7l-4.65-5.2 0.85-4.15 81.2-21.85 1.4 5.9 2.3-2.1q0.25-0.85 0-1.65-0.25-0.7-0.65-1.05l11.4 5.65q11.4 5.6 23.5 1.9 14.6-4.45 24.9-21.7 6.8-11.4 5.6-26.6-0.9-11.55-5.95-23.05-3.7 0.15-4.2 0.7-1.45 1.65-2.75 2-2.75 0.85-6.95-2l-0.2-0.15q-1.35-0.9-1.15-3.8l-0.15-1.5-0.45-1.1q-0.4-0.45-1.25-0.8l-2.05-0.85-2.05 0.2-2.45 1.05q-2.85 1.7-3.5 1.85-2.2 0.55-3.55-3.05l-1.1-4.25-0.25-0.75-1.15-2.45q-0.55-1.4 0.3-2.75 0.5-0.85 1.05-4.15t0.5-5.1l-0.05-2.05q0-1.45 0.6-2.75 0.35-0.75 1.35-2.15l1.65-2.65 0.5-1.95-0.25-1.75q-0.5-1.95-0.4-3.4l0.15-2.45q0.1-1.45 0.55-2.55 0.2-0.5 1.35-2.45 0.8-1.4 0.75-2-0.1-1-1.75-5.65-1.65-4.4-1.95-6.3-0.3-1.95-0.3-4.25l0.05-2.05q0.05-0.55 0.55-0.95l-4.45-3.9q-0.4-0.35-0.45-0.85-0.1-0.55 0.25-1 0.25-0.4 0.8-0.55l0.95 0.15q4.65 2.35 5.95 2.65l2.65-0.05 1.2-0.2q2.65-0.4 5.75 2.7l0.4 0.45-0.65-5.4q-0.15-2.15 1.55-6.75 1.3-3.3 3.2-7.1 0.8-1.6 1.3-6.3l0.4-6.5q0-1.1 1.05-1.3 1.05-0.25 1.55 0.7l0.65 1.7q0.65 2 0.65 3.8 0 1.3 0.7 4.7l-0.45-4.05q-0.05-0.55 0.25-1 0.35-0.5 0.9-0.6 0.55-0.05 1.05 0.25 0.45 0.3 0.55 0.85l0.45 2q0.6 2.2 1.3 3.7 0.65 1.45 0.6 3.4l-0.4 3.35-0.35 2.25q-0.1 1.6 2.75 5.35l1.2 1.6 0.55 0.95 0.15-2.1q0.25-3.75 0.75-5.55" fill="#0d131a"/>
  <path d="m281.55 148.35 0.9-0.5q0.35 0.15 0 1.55-0.5 2.05-0.45 4.9 0.05 2.65 0.55 4.5 0.45 1.55 1.45 2.85 0.85 1.2 0.9 2.3 0.05 2.6-0.4 4.9 0 0.5 0.35 0.7 0.3 0.2 0.95-0.35 0.65-0.8 1.15-2.2 0.25-0.75 0.05-1.8-0.1-1.3 0.4-2.3l0.8-1.65q0.45-0.9 0.9-0.75l0.15 0.85-0.25 2.55 0.6 0.9 0.25 1.5q-0.1 0.8-1.4 3.8l-1.15 3.35q-0.55 1.7-0.45 2.55 0.25 2.35 0.95 2.35l0.4-0.65 0.4-1.35 1.6-3.05q0.5-0.85 1.9-2.25-1.1 2-1.1 4.15 0 0.95 0.5 2.2 0.35 0.8 2 1.15 1.6 0.25 1.7 0.95 0.1 0.8-1.1 1.8l-1.9 1.65q-0.75 0.95-0.8 1.95-0.1 1.15 0.8 1.75 1 0.7 2.9-1.95l2.85-3.85q1.6-1.35 6.9-3.9l-3.2 2.75q-0.7 0.6-1.35 1.75l-0.5 1.05 2-1.35q2.4-1.55 4.25-2.6 3-1.6 9.9-4.15l-13.15 9.45q-2.35 1.85-4.55 4.55-2.05 2.6-2.6 4.25-0.45 1.25-2.1 2.6l-2.3 1.75q-0.45 0.5-0.25 1.45l0.05 2.5q-0.2 0.85-1 1.55l-7.4-8-3.2-2.85-1.75-1.25 3.65 4.95-2.8 0.3-0.65 0.85-2.05-3.75 0.2 1.7q0.45 2.3 1.55 5.5l-2.15 0.2-1.3 0.4-0.85-0.05q-1.45-1.25-1.55-1.75-0.05-0.3 0.2-0.6l0.35-0.45q0.6-1.15 0.4-3.2t-1.05-3.1q-0.8-1.05-2.95-2.35-2.3-1.35-3.65-1.35-0.5 0-1.6 0.55l-1.75 0.8q-0.95 0.25-1.6-0.85-1.1-2.1-1.7-4.75-0.6-2.8 0.05-3.45 0.75-0.75 4.4-2.4l2.55-1.45q1.1-0.75 1.35-1.55 0.6-1.65-1.3-4-2.5-3.05-1.1-5.85 0.6-1.3 2.9-2.15 1.4-0.55 2.9-2.15l1.55-2.85 1.3-3.95q0.5-1.8 0.95-1.8 0.3 0 0.4 1.4 0.1 1.85-0.2 3.65l-0.4 2.4q-0.1 0.7 0.1 0.9 0.35 0.35 0.85 0.25 1.4-0.35 2.3-1.55 1.05-1.5 1.55-4.6 0.4-2.4 1.75-4.45l1.25-1.5" fill="#efe908"/>
  <path d="m285.25 120.9q0.6-2.2 2.35-5.45l1.6-2.85-0.5 6.9q-0.5 7.4-0.2 10.15 0.25 2.45 2.2 3.75 2.65 1.75 3.55 3.15 1.7 2.7 2.6 8.25 0.9 5.4 0.2 7.7-0.55 1.8 0.65 3.5l1.85 2.5q0.45 0.95 0.15 1.4-0.6 0.7-1.05 1.6-0.45 0.95-0.45 2.4 0 1.75-0.5 3.1-0.5 1.55-2.25 2.1-2.25 0.7-2.95 1.4l-0.8 1.05q-1.6 1.7-2.75 4.35l-0.6 1.9-0.45 0.9q-0.3 0.1-0.6-0.55l-0.5-1.8q-0.15-1.05 0.25-2.5l0.95-2.85 1.05-2.6 0.6-2-0.05-1.2-0.4-0.55q-0.4-0.6-0.4-1.2l0.25-1.85q0.15-0.8-0.05-0.85-0.45-0.1-1.25 1.75-0.75 1.6-0.6 2.6v1.75q-1.1 3.1-2.25 2.9-0.85-0.15-0.4-1.9l0.25-3.5q0-1.4-0.7-2.4-1.1-1.45-1.4-2.5-1.1-3.85-0.9-7.35 0.05-1.15 0.6-2.95 0.7-2.35-1.4 0.15-1.55 2.05-2.1 4.5-0.9 4.2-2.05 5.6-0.35 0.4-1.1 0.8-0.85 0.45-1.4 0.4l-0.6-0.4-0.15-0.55 0.7-5.25q0.15-2.25-0.3-2.25-0.25 0-0.55 0.95l-0.7 2.25q-1.2 3.8-2 4.75l-1.9 1.75-1.9 1.15q-0.9 0.35-1.35 0.7-0.6 0.5-1 1.5-0.75 1.7-0.15 3.35l1.4 2.3 1.15 1.95q0.35 0.9 0.05 1.9-0.2 0.55-1.4 1.5l-3.35 1.9q-2.3 0.85-3.55 2.05-1.25 1.3 1.55 7.95 0.5 1 1.4 0.75l1.6-0.75q1.25-0.6 2.15-0.6 1 0 3.4 1.5 2.25 1.35 2.95 2.15 0.7 0.75 1 2.85 0.3 1.95 0 2.95l-0.7 1.25q-0.3 0.5 0.1 0.85l1 0.95q0.5 0.45 1.05 0.35l1.35-0.45 1.95-0.2 1.1 2.95-0.5-0.1q-1.15-0.25-2.9 1.6l-2.6 2.35q-1.55 0.4-6-2.55-0.8-0.55-0.75-1.45 0.1-1.45-0.2-2.25-0.45-1.3-1.8-2-1.75-0.65-2.8-1.25l-3.8 0.2-3.6 1.45q-1.25 0.3-2.65-1.7-1.05-1.55-1.75-3.6l-0.75-2.65q-0.2-1.25 0.55-2.45 0.7-1.15 0.8-5.55l-0.1-6.2q0-1.65 1.15-3.3l2.3-3.65q0.9-1.85 0.5-3.85-0.55-2.85-0.5-3.75 0.1-1.35 1.55-5 1.35-3.35 1.2-4.7-0.1-1.35-1.75-5.85-1.7-4.75-1.95-6.15-0.3-1.85-0.25-4.1l0.05-1.9 0.25 0.95q0.4 1.2 1.15 2.5 0.6 1.1 2.05 2.3 1.6 1.3 2.3 2.35t0.95 2.55q0.7-4.2 0.45-6.25-0.15-1.35-2-2.8l-3.1-2.05q-1-0.7-3.8-3.2l-2.65-2.35 2.45 1.2q2.65 1.3 3.8 1.6l2.25 0.15 2.1-0.4q2.05-0.3 4.65 2.3 0.5 0.5 0.75 2.05 0.3 1.65 1.3 3.05 1.85 2.5 2.1 3.9-1.85-12-2.1-15-0.15-2 1.65-6.5 1.2-3.15 3-6.65 1-2 1.5-7.85l0.3-5.5 0.6 1.45q0.6 1.8 0.6 3.4 0 1.35 0.6 4.5l0.75 4.7q0.25 2.75 0.45 2.3 0.7-0.9 1.4-3 0.7-2.05-0.25-8.05l0.5 2.05 1.35 3.95q0.7 1.55 0.4 4.05l-0.6 4.25q-0.15 1.7 1.45 4.15l2.7 3.7q1.4 2.05 1.6 4.6 0.95-1.6 1.4-3.7l0.3-3.5q0.1-2.6 0.6-4.55" fill="#e50020"/>
  <path d="m153.25 307.6q-6.6-4.8-12.15-10.2l-4.25-4.5 38.9-10.45q5.5 10.35 14 18.55 13.35 12.8 30.6 16.2 32.75 6.4 62.2-14.3 6.15-4.35 11.5-10.8-18.45 26.45-44.15 32.9-10.85 2.75-24.9 2.55l-26.95-2.05q-23.65-2.7-44.8-17.9" fill="#ddd583"/>
  <path d="m179.85 281.45 17.65-4.8q6.8 12.35 20.8 19.85 14.35 7.65 31.65 7.65 15.05 0 28.1-5.9 12.65-5.75 20.4-15.65-6.45 11.7-16.95 18.8-28.95 19.55-60.85 13.3-16.45-3.25-28.3-15.4-6.6-6.8-12.5-17.85" fill="#d18200"/>
  <path d="m278.4 195.25-0.7-3.95 2.05 1.8 1.8 2.55 6.05 8.15q7.85 11.2 13 26.2 4.95 14.4 4.95 24.95 0 14.7-7.1 27.65-7.75 9.9-20.4 15.65-13.05 5.9-28.1 5.9-17.3 0-31.65-7.65-14-7.5-20.8-19.85l20.55-5.55 1.1 1.05q2.8 1.9 11.2 6 12.15 5.95 25.5 1.95 16.1-4.8 27.1-23.15 7.1-11.85 5.4-28.1-1.25-11.7-6.75-24.35-2.75-6.3-4.7-9.6l-0.5-2.35 2 2.7" fill="#f29600"/>
  <path d="m189.25 295.85q-4.8-5.75-9.4-14.4l38.15-10.3 0.15 0.25q0.45 0.5 2.15 1.5 1 4.4 1 8.9 0 8.45-3.35 16.1-3.25 7.4-9.15 13-11.15-5.05-19.55-15.05" fill="#d18200"/>
  <path d="m146.6 302.45q-3-5.1-4.5-10.95l33.65-9.05q4.05 7.75 10.2 14.55 9.15 10.3 20.8 15.75-5.3 4.35-11.6 6.7-6.6 2.45-13.65 2.5-18.7-5.95-34.9-19.5" fill="#ddd583"/>
  <path d="m100.05 45.2-14.55 16.1q-0.9 1.25-0.9 7.05 0 6.5 1.3 13.55 0.8 4.6 3.6 11.85 2.85 7.5 4.9 10l7.4 8.35 6.85 7.75q1.55 2.25 2.2 7.45 1.4 9.15 2.3 11.8 1.25 3.6 3.1 6.95 1.35 2.4 4.05 6.45 3.65 5.35 8.45 10.25l2.2-0.9 2.65-0.15q1.35 0.45 1.9 2.5l0.65 3.4 3.15 2.1q0.95 0.65 1.2 1.9 0.15 1.15-0.55 2.1l-7.3 9.45-4.6 11.65q-0.55 1.45-2.1 1.7-0.7 0.15-2.05-0.5l-1.8-1.2q-5.3-6.4-10.9-11.6-8.4-7.75-13.4-8.7-3.65-0.7-7.5 0.6-1.15 0.45-6 2.85-3 1.5-4.35 1.85-2.25 0.6-4-0.3-1.45-0.75-1.65-2.55l0.1-2.3 0.25-1.1q0.45-2.9-1.4-6.35-1.2-2.1-4.65-4.25-5.1-3.25-11.45-3.25-14.65 0-30.9 12.2-9.25 6.9-16 15.05-0.25 2.1 0 5.15l0.3 3.25q0 2.5-1.2 4.4-1.25 1.95-3 1.95-1.65 0-2.95-1.25-1.65-1.55-1.9-4.5l-0.05-0.3q-1.05-11.9-1.35-18.8-0.2-4.65 0-5.6 0.9-6.15 4-19.45 2.9-12.5 5.25-20.7 2.05-7.2 6.6-19.55 4.25-11.55 5.55-13.85 1.7-3.05 13.6-16.9 11.75-13.65 14.7-16.05 2.45-2 7.8-4.4l3.2-1.45q2.05-0.95 2.5-1.3l12.4-9.6 12.8-9.75q3.75-2.7 7.15-3.25 3.55-0.55 5.3 1.45 1.3 1.5 1.2 3.9-0.15 2.7-2.1 4.85" fill="#0d131a"/>
  <path d="m49.45 86.45q10.95-9.3 12.8-10.1 2.5-0.35 7 0.8 4.55 1.2 5.4 2.55 0.55 1.05 6.35 19.3l2.75 8.2q1.05 2.75 14.65 14.6 1.75 1.55 4.5 10.95l1.2 4 2.35 9.05 3.2 13.15q1.05 4.05 1.9 4.6 3.35 2.3 7.6 7.15 0.8 0.95 3.4 7.3l4.7 11.85-1.75 3.95q-4.1-4.55-9.5-9.4-10.8-9.65-17.3-10.85-6.2-1.15-13.6 2.2l-4.6 2.15q-2.15 0.85-3.2 0.3-0.55-0.3-0.75-2.05l-0.1-1.65q0.35-0.8 0.35-2.2 0-2.75-1.65-5.8-1.4-2.65-5.6-4.95-5.5-3.05-12.55-3.05-14.2 0-29.3 10.25-9.35 6.35-17.4 15.3 0.55-20.2 1.2-22.65 2.15-8.75 9.2-28.75 9.4-26.55 15.05-33.7 2.4-3 13.7-12.5" fill="#008086"/>
  <path d="m97.45 43.9q-12.6 13.4-15.05 16.45-1.6 2.05-1.05 9.7 0.35 5.1 1.6 11.85 0.8 4.55 4.05 12.3 3.3 7.8 5.7 10.75l13.7 16q1.4 1.85 2.45 8.2 1.3 7.8 2 9.8 1.3 3.8 2.65 6.75l3.35 6.5q1.85 3.45 6.2 8.7 4.05 4.85 4.85 5.15l1.8-0.55q1.3-0.65 2.05-0.4 1.4 0.45 1.85 4.15l4.15 2.75-7.5 9.8-1.05 2.6q-6.05-13.65-7.8-15.6-5.35-6.15-8.8-8.45-0.95-1.1-4.85-16.4l-2.4-9.2-1.2-3.95-1.85-5.85q-1.1-2.65-2.55-3.95l-7.7-7.5q-5.6-5.75-6.1-7.1l-2.75-8.1q-6.6-19.8-7.2-20.7-1.3-2.15-6.75-3.5-4.95-1.2-7.95-0.75-1.85 0.3-13.95 10.9-11.7 10.2-13.85 12.95-6.15 7.8-15.6 36.1-4.75 14.15-8.3 27.05-0.8 3.3-1.35 26.15l-0.45 8.85q0 1.15-0.45 2-0.45 0.8-1 0.8-0.7 0-1-0.4-0.55-0.6-0.7-2.3l-0.65-10.2-0.55-9.75q0.05-5.3 2.9-18.95 2.5-12.2 4.85-20 3.5-11.7 8.4-25.05 4.1-11 5.2-13 1.55-2.8 12.75-16.05 11.25-13.35 14-15.55 2.3-1.85 9.1-4.9 3.4-1.55 6.35-2.7l22.15-18.25q2.75-2.3 5.5-3.15 2.85-0.85 3.75 0.4 1.8 2.6-0.95 5.6" fill="#f29600"/>
  <path d="m73.55 91.75q-1.15-0.55-3.4-1.05l-3.7-0.55q-3.5 2.4-12.7 10.25-9.7 8.25-11.6 10.65-5.25 6.65-14.55 32.7-7.1 19.7-9.35 28.45l-0.3 4.2q-3.8 3.45-7.65 7.65 0.55-20.2 1.2-22.65 2.15-8.75 9.2-28.75 9.4-26.55 15.05-33.7 2.4-3 13.7-12.5 10.95-9.3 12.8-10.1 2.5-0.35 7 0.8 4.55 1.2 5.4 2.55 0.55 1.05 6.35 19.3l2.75 8.2q1.05 2.75 14.65 14.6 1.75 1.55 4.5 10.95l1.2 4 2.35 9.05 3.2 13.15q1.05 4.05 1.9 4.6 3.35 2.3 7.6 7.15 0.8 0.95 3.4 7.3l4.7 11.85-1.75 3.95-4.35-4.5q-2.2-5.5-2.85-6.45-3.9-4.5-6.55-6.2-1.75-1.2-2.7-3.75-0.7-1.8-2.25-8.3l-2.05-8.45-2.3-8.75-1.25-4.2q-1.2-4.1-2.35-10.05l-0.9-5.1-13.95-12q-3.55-3.25-4.6-6.35l-5.85-17.95" fill="#00666c"/>
  <path d="m354.95 132.9q1.7 4.35 4.25 21.05 2.45 16 2.45 21.15v1.1l-0.15 21.85q-0.65 6.15-5.2 6.05-2-0.05-2.85-1.85-0.8-1.7-0.8-5.6 0-2.45-0.5-4.5-10.05-9.9-21.1-19.75-15-13.3-20.1-15.5-6.15-2.65-15.25-2.3-7.45 0.35-10.6 1.9-1.45 0.7-7.1 7.4l-4.35 4.75q-1.5 1.45-2.8 1.6l-1.9-0.25-2.95-1.25q-7.6-3.3-11.1-4.25-8.15-2.15-13.8 0.15-8 3.25-17.85 10-7.5 5.15-10.05 7.7-0.85 0.95-5.15 9.35l-8.6 16.95q-0.65 1.2-2.9 1.3-1.6 0-2.5-1.35l-22.65-38.1q-0.8-1.3-0.1-2.65 0.75-1.4 2.25-1.5l9.65-0.25q2.1-6.15 3.6-7.3 0.85-0.6 3.25-1l4.65 0.1 8-5.3 12.15-8.8q9.95-7.6 17-16.45 1.25-2.95 4.05-13.25 2.95-10.9 5.55-22.5 2.4-10.75 4-21.55 1.45-9.85 1.3-12.6-0.1-1.5-2.95-5.95-3.1-4.9-8.35-11.5-2.1-2.6-2.75-5.5-0.8-3.5 1-6.1 1.35-1.95 3.35-2.3 2.2-0.35 4.85 0.9 2.25 1.05 4.15 2.8l8.15 7.85 7.8 7.55q0.4 0.35 3.5 0.95l4.1 0.85q1.45 0.45 11.65 5.7l11.1 5.5q4.9 1.55 10 2.15l4 0.55q2.3 0.4 2.9 1 3.5 3.3 14 21.45l14.6 25.75q4.5 7.75 11.1 16.05l6 7.75" fill="#0d131a"/>
  <path d="m343.15 123.2 4.7 6.35 3.85 5.85q1.65 4.15 4.4 19.65 2.75 15.35 2.75 20.05v10.95l-0.15 11.1q-0.2 1.75-0.65 2.55-0.6 1.05-1.75 1-0.75-0.05-1.1-2-0.25-1.35-0.25-3l-0.1-4.45-3.4-36.85v-0.2q-4.95-18.3-20.65-45.85-14.25-24.95-22.75-33.4-2.35-2.4-21.05-8.65-17.3-5.85-18.4-5.85-3.1-0.25-6.3 1.35-3.2 1.65-4.9 4.4-1.7 2.7-9.1 30.8-2.2 8.55-4.75 25.35-1.45 9.5-1.9 10.4-0.8 1.5-12.5 9.9l-5.7 4.2q-1.7 1.4-3.6 4.45-1 1.55-2.85 5.05l-1.1 2.05q-0.25 0.3-2.65 0.85-4.7 1.15-7.6 2.15-3.8 1.3-9.95 12.3-4.1 7.35-8.6 17.8l-13.35-22.4 11.55-0.9 1.15-3.25q1.3-3.35 2.2-4 1.25-0.85 4.2-0.8l2.65 0.2 9.45-6.4 11.55-7.9q2.05-1.55 9.75-9 7.65-7.45 8.05-8.3 2.55-5.5 9.45-35.7 7.1-31.2 6.55-36.75-0.2-1.95-5.6-9.5l-6.8-8.9q-1.45-1.8-2-4.15-0.65-2.5 0.2-4 0.85-1.45 3.4-0.45 2.25 0.85 4.6 3l8.1 8.25 7.45 7.55 4.25 0.7 5.85 1.25q2.05 0.7 21.3 9.95l8.7 2.45q6.65 1.7 7.2 2.2 4.75 4.55 20.4 31.25l15.8 27.3" fill="#f29600"/>
  <path d="m349.75 154.8 3.1 34.5q-10.4-9.8-19.95-18.1-15.45-13.4-21-15.8-6.75-2.9-16.3-2.25-7.6 0.5-11.4 2.4-1.65 0.8-7 6.7-4.95 5.4-6.85 5.75-1.15 0.25-4.5-1.1l-6.95-2.8q-10.5-3.7-18.25-0.55-8.6 3.55-18.75 9.65-8.55 5.15-10.7 7.2-1.3 1.3-8.15 14.15l-6.6 12.6-6.85-11q7.3-18.15 8.1-19.95 4.8-10.7 7.75-11.7 2.1-0.75 8.3-2.05l2.5-0.65 1.5-1.1 1.3-2.35 2.3-5.3q1.65-3.55 3-4.7l2.55-1.6 3.6-2.25 8.95-6.6q3.65-2.85 4.25-4.1l0.9-3.55 1.2-7.55 1.7-11.9q1.15-7.6 2.45-12.55l5.35-20.4q2.4-8.9 2.95-9.8 1.35-2.1 4.7-3.35 3.05-1.2 5.7-0.95 2.5 0.4 18.2 5.8 17.15 5.85 19.05 7.75 8.7 8.75 22.9 32.6 16.15 27.1 20.95 44.9" fill="#008086"/>
  <path d="m344.7 181.75-1.35-14.95q-4.7-17.25-20.45-43.65-13.8-23.05-22-31.4-2.45-1.7-17.2-6.75-13.2-4.5-17.55-5.6-1.5-0.05-3.3 0.65-1.8 0.65-2.45 1.4-0.75 2-6.2 22.8l-1.6 6.25q-1.6 6.05-3.25 18.15l-0.8 5.8-1.45 8.55q-0.5 2.7-1.15 3.9-0.9 1.85-4 4.45l-10.6 8-4.25 2.65-1.65 1q-17.9 16.1-20.1 16.85-2.8 2.3-11.15 23.65v0.05l-4.6-7.4q7.3-18.15 8.1-19.95 4.8-10.7 7.75-11.7 2.1-0.75 8.3-2.05l2.5-0.65 1.5-1.1 1.3-2.35 2.3-5.3q1.65-3.55 3-4.7l2.55-1.6 3.6-2.25 8.95-6.6q3.65-2.85 4.25-4.1l0.9-3.55 1.2-7.55 1.7-11.9q1.15-7.6 2.45-12.55l5.35-20.4q2.4-8.9 2.95-9.8 1.35-2.1 4.7-3.35 3.05-1.2 5.7-0.95 2.5 0.4 18.2 5.8 17.15 5.85 19.05 7.75 8.7 8.75 22.9 32.6 16.15 27.1 20.95 44.9l3.1 34.5-8.15-7.55" fill="#00666c"/>
  <path d="m39.9 192-1-0.2-1.75-1.25q-1.75-2-1.5-4.95 0.15-2 3.65-6.55 2.9-3.8 4.35-5l0.4-0.35-2-5.45-0.3-0.6q-0.7-1.45-0.8-2.55-0.1-1.4 0.55-3.15 1.2-2.95 4.1-4.15 2-0.8 5.7-0.7l3.85 0.45q1.7 0.7 5.55 6.15l0.85 0.35 1.1 0.3 3.7-1.75q2.55-1.9 3.75-2.35 1.6-0.6 3.6-0.05 2.75 0.7 4.7 5.25 1.7 4.05 1.2 6.4-0.2 1.05-1.35 3.45l-2.25 4.4-0.55 1 0.15 1.15q10.05 9.05 13.1 8.25l3.9-0.95q3.95-1 7.5-2.5 5.85-2.45 10-4.9 1.2-3.15 2-4.35 2.05-2.9 6-4.6 3.35-1.45 10.9-1.6 4.45-0.1 7.9 0.15l3.7 0.35-12.8 27.5-1.9-0.35-8.65-2.8-5.7 2.85-8 3.85-3.4 1.8-2.9 1.75q-4.75 2.5-7.5 2.75-6.3 0.45-15.25-4.9-5.55-3.35-11.4-8.4-1.85 1.05-3.35 1.1-2.1 0.1-4.6-1.35-1.45-0.8-3.2-3.1l-2.25-3.35-1.2 2.45-0.85 0.9-7.75-0.4" fill="#0d131a"/>
  <path d="m40 189.4q-0.6 0-1.15-0.45-1.15-0.9-1-3 0.1-1.5 1.1-3.1l2.55-3.25 3.2-3.05 2-1.8q0.55-0.85-2.3-7.5-1.3-3-1.3-4-0.05-2.35 3.25-3.7l4.6-0.25 3.35 0.55 2.1 2.4 2.2 2.95q1 1.4 3.55 1.6l4.75-2.3q1.7-1.3 2.95-1.55l2.8 0.25q1.55 0.4 3 3.9 1.35 3.3 1.05 4.75-0.2 1.1-1.65 4l-1.9 3.75q-0.7 1.4 0.2 3.7l6.35 5.05q7.05 4.9 10.6 3.95l4.65-1.6 7-2.7 10.3-4.35q0.25-1.35 1.35-3.1 2.25-3.5 6.8-5.45 3.05-1.3 10-1.35l6.3 0.2-10.4 22.4-7.35-3.85q-10.3 5.35-16.4 7.85-2.2 0.95-7.55 3.7-3.5 1.85-5.15 1.95-5.7 0.45-14.35-4.8-5.3-3.25-10.8-8-0.2-0.15 0.5-1.4l0.75-1.25-2.65 1.85q-0.7 0.8-2 1.2-2.55 0.85-5.6-0.85-2.6-1.5-4.35-4.3l-1.2-2.5-3.55 3.8-6.6-0.35" fill="#f29600"/>
  <path d="m72.55 172.75-4.05 2.45q-3.4 1.65-4.7 1.7-0.8 0-1.35-0.45-0.95-1-0.25-5.1 0.65-3.8 1.55-5.3 1.2-1.85 3.25-2.7l3.85-0.15q1.75 0.65 2.55 2.4 0.7 1.5 0.4 3.25l-0.1 0.7q-0.3 2.25-1.15 3.2" fill="#0d131a"/>
  <path d="m70.7 163.6-3.55 0.2q-1.9 0.8-3 2.5-0.85 1.35-1.5 5.05-0.65 3.95 0.15 4.75 0.35 0.35 0.95 0.35 1.2-0.05 4.55-1.65 3.25-1.6 3.9-2.35 0.8-0.9 1.05-2.95l0.1-0.7q0.25-1.65-0.35-3.05-0.7-1.55-2.3-2.15m-7.35 2.2q1.3-2 3.5-2.85l4.15-0.2q1.65 0.65 2.55 2.15 0.8 1.35 0.8 3l-0.2 1.75q-0.3 2.35-1.25 3.4-0.75 0.9-4.2 2.55-3.55 1.7-4.9 1.75-1 0.05-1.65-0.6-1.15-1.15-0.4-5.5 0.65-3.85 1.6-5.45" fill="#0d131a"/>
  <path d="m70 170.15q-0.9 1.1-6.7 5.3-0.45-0.45-0.05-3.85 0.45-3.45 1.2-4.85 0.85-1.45 2.4-2.2 1.6-0.8 2.95-0.3 1.45 0.5 2 2-0.15 1.4-0.65 2.35l-1.15 1.55" fill="#fff"/>
  <path d="m71.2 171.6q-0.55 0.7-3.95 2.45-3.55 1.8-3.95 1.4 5.8-4.2 6.7-5.3l1.15-1.55q0.5-0.95 0.65-2.35 0.35 0.95 0.25 2.05l-0.25 1.9-0.6 1.4" fill="#dbdcdc"/>
  <path d="m39.25 185.4q1-0.85 2.85-1.2 1.95-0.35 3.4 0.8 1 0.8 1.4 2l2.6 4.1q0.55 0.6 2 1.1l1.55 0.45-0.7 1.45q-1.1 2.25-6.4 1.95l-4.05-0.55q-2.1-0.65-3.35-2.5-0.85-1.25-1.05-2.85-0.2-1.55 0.35-2.7l0.15-0.25q0.5-1.15 1.25-1.8" fill="#0d131a"/>
  <path d="m39.4 185.6q-0.65 0.55-1.2 1.65l-0.15 0.3q-0.5 1.1-0.35 2.6 0.2 1.55 1 2.75 1.25 1.75 3.25 2.35l4 0.55q5.2 0.3 6.15-1.8l0.65-1.2-1.3-0.4q-1.6-0.55-2.15-1.15-0.7-0.8-2.55-4l-0.05-0.05-0.15-0.25q-0.4-1.15-1.35-1.9-1.3-1-3.1-0.65-1.75 0.35-2.7 1.2m-1.05 7.55q-1.15-1.7-1.15-3.7 0-1.2 0.45-2.1l0.15-0.25q0.6-1.25 1.3-1.85 1.05-0.95 2.95-1.3t3.3 0.7q1.05 0.75 1.6 2.05l2.7 4.25q0.5 0.6 1.95 1l1.5 0.5 0.15 0.1 0.05 0.1-0.75 1.55q-1.15 2.35-6.6 2.05l-4.1-0.55q-2.2-0.7-3.5-2.55" fill="#0d131a"/>
  <path d="m39.15 188.05 0.8-1.25q0.75-0.7 2.25-0.95 1.55-0.3 2.45 0.8 0.5 0.5 0.65 1.1l1.1 1.85 1.7 2.5q0.8 0.9 2.6 1.45-9 1.3-11.55-5.5" fill="#fff"/>
  <path d="m39.6 192.3q-0.65-0.95-0.8-2.15-0.1-1.1 0.25-1.85l0.1-0.25q2.55 6.8 11.55 5.5-0.15 0.35-0.9 0.65l-4.05 0.45-3.5-0.4q-1.65-0.5-2.65-1.95" fill="#dbdcdc"/>
  <path d="m50.75 163.1q1.55 1.75 1.3 4.05-0.15 2.05-1.25 2.9l-2.15 2-2.15 2.4q-0.6 0.95-0.7 3.15l-0.35 1.3-1.45-0.05q-1.3-0.4-2.5-1.55-2.4-2.35-2.4-6.35 0-3.8 3.25-8.2 0.4-0.55 1.65-1.05 1.15-0.4 2.15-0.45 2.8-0.15 4.6 1.85" fill="#0d131a"/>
  <path d="m41.95 162.5q0.5-0.7 1.9-1.2l2.25-0.5q3.1-0.15 5 2 1.6 1.85 1.45 4.4-0.25 2.2-1.45 3.25l-2.1 1.9q-1.7 1.7-2.1 2.35-0.55 0.8-0.65 3l-0.35 1.3-0.15 0.25-1.75 0.05h-0.1q-1.25-0.25-2.7-1.7-2.55-2.45-2.55-6.65 0-3.85 3.3-8.45m6.4 9.25 2.15-2.05q0.95-0.7 1.1-2.6l0.05-0.4q0-1.8-1.25-3.3-1.55-1.75-4.25-1.7l-1.95 0.45-1.5 0.9q-3.15 4.3-3.15 7.9 0 3.7 2.15 5.9 1.15 1.2 2.4 1.55l1 0.05 0.25-0.9q0-2.15 0.75-3.35 0.45-0.7 2.25-2.45" fill="#0d131a"/>
  <path d="m48.75 168.3-3.05 2.75q-2 2.55-0.95 6.05v0.25q-0.95-0.3-1.95-1.25-1.95-1.95-1.95-5.35 0-2 1.05-4.4 0.8-1.8 1.8-3.1 0.65-0.8 2.8-0.8 2.4 0.05 3.55 1.4l0.5 0.65q-0.5 2.5-1.8 3.8" fill="#fff"/>
  <path d="m50.3 168.8q-3.6 2.7-4.65 4.25-0.7 1.15-0.9 4.05-1.05-3.5 0.95-6.05l3.05-2.75q1.3-1.3 1.8-3.8 0.7 1.25 0.45 2.7-0.2 1.2-0.7 1.6" fill="#dbdcdc"/>
  <path d="m50.15 180.2q0-3.4 2.55-6.15 2.6-2.75 5.9-2.85-3.75 4.9-3 8.25 0.5 2.25 4.05 3.8 2.95 1.3 5.8 1.4l-2.2 2.5q-1.3 1.1-3.05 1.1-3.65 0-6.75-2.3-3.3-2.5-3.3-5.75" fill="#d18200"/>
  <path d="m57.5 172.75q2.4-3.8 2.8-3.4l-2.05 3.55q-2.05 3.95-1.55 6.3 0.45 1.8 3.6 3.35 2.95 1.45 5.45 1.45 1.75 0 3.75-0.85l1.65-0.75q-2.25 2.25-5.5 2.25-2.8 0-5.9-1.35-3.65-1.55-4.15-3.85-0.6-2.65 1.9-6.7" fill="#0d131a"/>
  <path d="m113.2 225.25 2.75-1.3 32.4 74.1-4.05 0.5q-3.65 0.45-6.25 1.25-1.15 0.4-4.3 2.75l-3.25 2.15q1.5 2.1 2.35 5.9 0.8 3.55 0.4 4.85-0.5 1.75-1.85 3.05-1.25 1.2-2.75 1.65-5.65 1.2-9 2.6-2.15 0.85-6.45 3.7l-4.15 2.95-1.65 1.6q-1.25 0.85-3.05 1.15-1.5 0.25-5-0.85l-3.7 0.85-3.95 1q-2.65 0.9-4.6 1.8l-1.95 0.95q-1.5 0.7-2.2 0.55-1.05-0.25-0.8-2.15 0.25-1.8 1.35-4.25l1.05-2.1-9.1 0.45q-1.7 0.3-3.25 0.9l-2.2 0.95-1.85 0.15q-0.5-0.3-0.35-1.05 0.2-1.6 1-3.45 1.55-3.75 4.9-6.85l-3.9-0.1q-2.8 0.05-4.5 0.8-2.55 1.2-1.5-2.2 0.85-2.75 5.15-6.1 2.4-1.8 5.2-3.15 2.35-1.15 3.95-1.5l0.5-0.1 1.15-0.1 6.2-3.9q2.6-1.8 5.05-4.35l2.3-2.8 0.5-2.3-2.95-2.2q-2.35-1.85-3.7-3.65-5.2-7-6-12.3-1.45-9.95 6.75-23.95 5.5-9.45 17.35-19.4 9.5-7.2 7.95-6.5" fill="#0d131a"/>
  <path d="m106.3 233.4q2.95-2.45 5.8-4.15l2.3-1.25 29.5 67.55q-3.85 0.45-6.75 1.35-1.55 0.5-3.95 2.55-2.7 2.3-4.15 3-0.85 0.45-2.65 1.65l-1.6 1.1 1.4 0.2q1.45 0.2 1.95 0.5 0.6 0.4 1.25 2.6l0.9 4.15q-1 1.6-4.5 3.05-2.5 1-5.3 1.65-2.6 0.6-5.6 1.75-3.55 1.3-5.45 2.6l-3.75 2.35q-1.8 1-3.2 1.15l-2.5 3.75q-4.4-1.45-10.05-4.35-6.05-3.15-9.25-5.85-3.65-3.05-4.2-5.75l0.2-2.1 11.3-7.05q2.95-2.05 5.4-4.8 1.9-2.15 2.4-3.35l0.2-1.4 1.95 0.6 5.3 0.4-2.75-0.6-2.15-0.8q-0.8-0.25-2.05-1l-1.15-0.75q-1.7-1.1-4.9-5.4-4-5.25-4.85-11.75-1.45-10.35 5.15-22.4 6.35-11.55 15.75-19.2" fill="#f29600"/>
  <path d="m125.8 315.7q3.5-1.45 4.5-3.05 0.25 2.1 0.1 2.55-0.6 1.55-2.3 2.5l-2.8 1.05-6 1.85q-1.05 0.2-5.25 2.75l-5.15 3.2-2.05 1.75q-1.3 1.1-3.1 1.4-1 0.15-3.75-0.75l2.5-3.75q1.4-0.15 3.2-1.15l3.75-2.35q1.9-1.3 5.45-2.6 3-1.15 5.6-1.75 2.8-0.65 5.3-1.65" fill="#d18200"/>
  <path d="m98.85 296.85q-1-0.65-0.85-0.85l1 0.3 2.1 0.7 2.75 0.25 1.55 0.2-1.5 0.4-2.75-0.1q-1.15-0.2-2.3-0.9" fill="#0d131a"/>
  <path d="m114.25 290.7q-5.75-8.45-5.75-18.85 0-8.15 3.65-15.3 3.55-6.9 9.7-11.4l22.05 50.4q-3.85 0.45-6.75 1.35-1.55 0.5-3.95 2.55-2.7 2.3-4.15 3l-0.05 0.05q-9.1-3.5-14.75-11.8" fill="#d18200"/>
  <path d="m79.55 308.65q0.7-0.2 1.2 0.6 0.55 0.85 0.75 2.55 0.25 2.45-0.5 5.8h-10.75q-1.7 0.1-4.05 0.9l-2 0.8q-0.2-0.6 0.35-1.75 1.05-2.25 4.6-4.9 2.4-1.8 6.3-2.95l4.1-1.05" fill="#fff"/>
  <path d="m74.75 315.5q5.55-0.4 6-1.55h0.05l-0.35 2.95-10.25 0.05q-1.6 0.05-3.6 0.7 3.15-1.75 8.15-2.15" fill="#dbdcdc"/>
  <path d="m78.75 308.15 0.6-0.15 1.35 0.2q1.2 0.8 1.5 3.55v2.25l-1.4-0.05v-2.05q-0.2-2-0.85-2.55-0.9-0.6-4.45 0.75-3.5 1.3-5.95 3.1-3.75 2.8-4.55 5l1.6-0.55 1 1.15-3.15 1.15h-0.55q-0.35-0.15-0.4-0.45-0.15-1 0.4-2.15 1.1-2.45 4.85-5.25 3.3-2.45 10-3.95" fill="#0d131a"/>
  <path d="m70.25 318.3-2.65 0.5-1-1.15q2-0.65 3.6-0.7l10.25-0.05 0.35-2.95 1.4 0.05-0.5 3.75q-0.15 0.55-0.7 0.55h-10.75" fill="#0d131a"/>
  <path d="m79 324.2q-5.6 1.5-8.85 4.2l0.85 0.3-2.3 1q-0.1-1 0.5-2.55 1.1-3.15 4.35-6.05 2.25-1.95 6.35-4.5l4.3-2.5q0.75-0.45 2.55 1.25 2 1.8 2.65 4.05l0.25 0.95-2.05 1.65q-1.35 0.8-2.45 1l-6.15 1.2" fill="#fff"/>
  <path d="m75.95 327.05q-1.45 0.25-4.95 1.65l-0.85-0.3q3.25-2.7 8.85-4.2l6.15-1.2q1.1-0.2 2.45-1l2.05-1.65q0.65 2.95 0.25 5.6l-13.95 1.1" fill="#dbdcdc"/>
  <path d="m69.6 328.35 0.55-0.05q4.1-1.7 5.7-1.95l13.4-1.05q0.3-3.1-0.5-5.7-0.55-1.9-2.2-3.55-1.4-1.35-2.05-1.35l-0.25 0.15q-7.2 4.05-10.25 6.75-3.35 2.95-4.3 6.2l-0.1 0.55m2.15 0.8q-2.6 1.05-2.75 1.2l-0.65-0.05-0.35-0.55q-0.05-1.15 0.55-2.85 1.15-3.3 4.55-6.3 3.2-2.9 10.45-6.95l0.3-0.15q0.5-0.3 1.45 0 1.2 0.5 2.65 2.15 1.65 1.8 2.35 3.8 0.95 2.7 0.75 4.85l-0.45 1.75q-0.1 0.5-0.65 0.6l-13.85 1.05q-1.4 0.2-4.35 1.45" fill="#0d131a"/>
  <path d="m93.95 320.7q0.6-0.5 3.25 0.8 2.8 1.35 3.9 2.95l0.2 0.35-0.85-0.45q0 1.8-1.8 2.65l-5.95 2.5q-5.45 2.45-7.35 4.3l0.45 0.4-1.8 0.8q-0.4-0.65-0.25-1.85 0.2-2.4 2.7-4.95 5.85-6.15 7.5-7.5" fill="#fff"/>
  <path d="m102.3 328.55-9.8 3.15q-2.45 0.8-6.7 2.5l-0.45-0.4q1.9-1.85 7.35-4.3l5.95-2.5q1.8-0.85 1.8-2.65l0.85 0.45q1.3 2.15 1 3.75" fill="#dbdcdc"/>
  <path d="m100.5 324.85q-0.9-1.35-3.3-2.6-2.1-1.1-2.9-1l-7.4 7.45q-2.3 2.35-2.5 4.5-0.1 0.85 0.85 0.5l7-2.65 5.7-1.75 3.45-1.3q0.5-1.2-0.9-3.15m-7-4.7q0.4-0.3 1.3-0.25 1.5 0.2 3.6 1.4 2.25 1.3 3.25 2.75 1.35 2 1.5 3.7 0.15 1.15-0.3 1.7-0.15 0.25-1.1 0.4l-3.4 0.8-5.65 1.7q-2.85 0.95-5.9 2.2l-2.5 1.05q-0.55 0.25-0.9-0.25-0.45-0.85-0.35-2.2 0.15-2.65 2.9-5.45 6.3-6.5 7.55-7.55" fill="#0d131a"/>
  <path d="m169.95 90.45q1.05 0.25 1.7 1.1t0.6 1.95l-0.6 16.15q-0.45 17.05 0.1 22.3 0.7 6.3 4 16.6 3.55 11 7.65 18.4 2.1 3.75 9.05 14.5l11.95 19q6.6 11.05 9.2 17.6 6.25 15.85 8.85 26.1 4.75 18.5 2.85 32.65-2.1 15.4-12.8 24.1-10.5 8.6-27.85 9.4-20.8 0.95-37.8-6.25-22.35-9.4-35.5-31.9-12.1-20.75-6.55-46.6 4.05-18.85 17.8-40.9 12.2-19.65 14.8-54.1 0.8-11.3-2.55-29.15l-3.55-15.8q-0.1-0.65 0.8-1.35l1.55-1.1q1.2-1.15 2.85-0.75l33.45 8.05" fill="#0d131a"/>
  <path d="m117.35 276q17.6 14.7 37.35 18.45 19.8 3.75 34.35-5.05 2.9 8.3 7.2 11.9 2 1.75 5.2 3.2-7.35 3.05-16.8 3.5-18.45 0.8-33.65-4.9-20.7-7.8-33.65-27.1" fill="#ddd583"/>
  <path d="m109.4 219.55q4.5-12.8 11.45-20.45 9.65-10.6 22.7-9.65 15.65 1.2 27.8 24.1 10.85 20.45 12.25 43.15 1.3 21 5.45 32.7-14.55 8.8-34.35 5.05-19.75-3.75-37.35-18.45l-2.8-4.45q-13.25-22.65-5.15-52" fill="#fff697"/>
  <path d="m185.9 193.25q0-5.85 3.65-10.7 13.3 20.6 18.1 29.95h-0.2q-8.95 0-15.25-5.65-6.3-5.6-6.3-13.6" fill="#d18200"/>
  <path d="m169.2 93.45-0.05 2.35-0.2 19.3q0 9.95 0.35 15.15l0.15 1.7q0.75 7.2 3.85 17.65 3.4 11.5 7.45 18.8l15 23.85q11.6 18.3 15 26.9 6.3 16 8.95 26.45 4.4 17.45 2.6 30.8-1.3 9.65-6.2 16.6-4.65 6.65-12.35 10.45-3.95-1.5-6.35-3.55-4.8-4.1-7.4-14.15-2.4-9.55-3.5-27.35-0.65-10.9-3.7-23.1-3.25-13-8.05-22.35-5.25-10.25-12.2-17.1-8.9-8.75-18.5-9.45-16.75-1.25-29.1 17.8 3.95-8.85 9.5-17.8 12.7-20.3 15.25-54.45 0.45-6.7-0.9-18.15-1.45-12.05-3.85-19.8l0.85-8.4v-0.2l33.4 8.05" fill="#f29600"/>
  <path d="m169.2 93.45-0.05 2.35-0.2 19.3q0 9.95 0.35 15.15l0.15 1.7 1 6.4q-9.1 2.45-17.75-3.6-7.2-5.05-13.35-15.5-1.25-15.05-4.4-25.25l0.85-8.4v-0.2l33.4 8.05" fill="#d18200"/>
  <path d="m224.6 233.85q7.75 8.85 12.85 19.1 6.8 13.55 6.8 28.75 0 7.85-3.65 16.95-1.8 4.6-3.65 7.75-0.4 2.4-0.4 4.85 6.65 5.1 8.75 7.8l2.3 2.8 1.7 2q2.3 1.35 3 2.9 0.65 1.55 0.55 3.7l3.15 5.75q1.75 3.9 1.4 7.45-0.2 1.9-0.9 3.1-0.9 2-1.9 2.1l-1.1-0.8-0.65-0.85q-2.5-2.6-3.5-3.1l-3.2-1.2-3.85-1.35-3.7 0.2v2.3q-0.1 2.7-0.75 4.5-0.75 2.15-1.9 3.7-1.15 1.6-1.85 1.4-0.35-0.05-1.55-1.95-0.95-1.5-2.1-2.6l-4.1-2.7-4.05-2.25-2.15-0.75-3.1 0.05q-0.8 3.2-3.25 7.4-1.3 2.5-1.9 2.45-0.35-0.05-1.25-1.25l-0.8-1.15q-1.65-2.7-2.65-3.75l-3-2.65-3.5-3.05-2.3-0.8-1.6-1.2q-0.85-0.75-1.2-1.8-0.25-0.75-0.35-2.1-0.4-8.5 5.9-18.8l-0.3-3.9q-7-3.45-13.3-11.2-5.3-6.5-6.7-16.7l-0.4-8.95q0.3-8.15 5.9-16.2 3.3-4.8 7.4-8.25l21.15-26.15-0.8-4.95 2.4 4.85 8.1 8.55" fill="#0d131a"/>
  <path d="m230.85 146.85 0.2-1.1q0.35-3.3 2.6-5.25l0.3-0.25q1.4-1.4 3.6-2.1 3.05-1 5.4 0.4 2.95 1.7 4.65 5.75 1.85 4.45 0 7.25l-1.4 2.65q-0.85 1.75-0.95 2.35 0.15 0.6 1.3 2.05l1.8 2.1 4.55-0.85q2.8-0.2 4.05 1.7 0.65 1 1.1 6.35 0.45 5.4-0.15 6.6-0.4 0.8-1.35 1.5l-2.35 1.55-2.05 0.8q-1.35 0.45-1.6 0.8-1.65 1.8-4.85 7.15-0.8 1.35-2.8 2.1l-3.1 0.7q-3.8 15.3-6.8 21.8-2.35 5.15-5.5 7.2-2.8 1.8-6.9 1.9-3.65 0.1-5.75-1.05-0.65-0.35-6.05-6.05l-6.35-6.55-3.45-2.5-3.6-2.35q-2.05-1.4-4.9-2.7l-2.45-1-1.9-0.15-2.15 0.4-1.15 0.35 2.2-1.55q-3-0.4-3.05-0.9-0.05-0.3 0.75-0.4h0.85l-14.9-23q-1.7 0.8-1.95 0-0.15-0.5 0.05-0.85l0.65-0.7q0.55-0.45 4.45-2.6 3.55-1.9 8.15-2.85 5-1 7.65-0.05 4.8 1.75 6.75 4.95 1.85 3.15 1.9 9.4l2.55 1.4q1.65 0.95 2.55 1.9l0.85 0.95 4.35 4.9q3.1 3.45 4.65 4.55 2.1 1.5 5 1.6l3.9-0.3 0.85-5.65q0.45-4.65 0.1-6.25l-2.9-2.45q-2.25-0.8-3-1.45-1.5-1.5-1.35-4.85l0.05-2.4-0.85-0.75q-3.5-2.9-4.7-4.7-1.85-2.7-1.05-6.25 0.75-3.25 2.6-4.05 1.45-0.6 1.4-0.5l4.9-2.45q1.25-0.45 2.4 0.2l1.55 1.4q1.4 1.4 1.65 1.45l3.45 0.45 3.15-5.1q2.1-3.65 2.4-4.65" fill="#0d131a"/>
  <path d="m233.6 147.4 0.4-2.8q0.3-1.7 0.95-2.25l2.6-1.95q2.35-0.9 5.55 0.85l1.8 3.35q1.55 3.7 0.4 5.45-0.75 1.1-1.6 3.65-0.9 2.6-0.75 3.4 0.3 1.85 2.65 4l2.3 1.75 2.75-0.8q2.95-0.5 4 1.05 1.1 1.6 1.2 5.65 0.1 3.55-0.4 4.5l-2.85 2.05q-2.85 1.7-3.65 2.55l-3.2 3.8q-2.1 2.6-2.45 3.3-0.8 1.35-3.4 2.05l-2.45 0.4-0.75 4.7q-1.15 5.85-3.25 11.3-2.45 6.3-3.9 8.5-1.25 1.85-3.7 3.45-2.15 1.4-5.4 1.65-3 0.25-4.4-0.55-0.8-0.4-3.55-3.75-2.9-3.55-4.45-4.7l-5.1-4.15q-3.65-3.05-5.95-4.6-3.05-2.1-11.4-3.45l-2.35-0.3h-0.9l-14.15-22.65 6.95-3.1q7.6-2.85 10.75-1.75 3.7 1.35 5.4 2.95 1.55 1.4 2.3 3.85 0.9 3.05 0.6 6.6l2.1 1.2q2.35 1.45 3.6 2.8l4.4 4.75q3.3 3.35 5.3 4.8 4.35 3.1 9.85 2.65-0.4 1.4-2.15 2.5l-2.5 1.75-2.05 1.2q-0.8 0.65-0.85 1.85-0.05 1.35 1.1 4.15 1.15 2.75 1.55 2.6l-0.55-1.75q-0.9-2.3-0.75-4.7 0-0.5 0.65-1 0.4-0.25 1.95-1.15l2.2-1.25q1.85-1.2 3.35-3.6l0.4-0.9 0.7-2.6 1.25-5.75q0.45-2.7 0.15-5.2l-0.45-1.95q-3.25-3.15-4.3-3.6l-1.65-0.85q-0.85-0.9-0.85-3.15l0.05-2.6-0.2-1.1-2.8-2.1q-2.85-1.95-3.75-3.2-2.2-3.05-0.95-5.5l1.65-1.85 6.5-2.15 1.4 1.25q1.4 1.5 2.4 1.85l3.35 0.55 2.5-0.25q0.65-0.35 3.6-5.4 3-5.05 3.2-6.3" fill="#f29600"/>
  <path d="m223.4 164.75q-0.2 2-2.15 2.6-1.8 0.55-2.9-0.4-2.1-1.8-3.65-2.45l-1.6-0.25-1.2-0.15q-1.75-0.3-2.45-2.85-0.45-1.75-0.1-3.5 0.5-2.1 2.1-3.55 1.9-1.7 4.6-1.45 2.45 0.25 3.3 1.45l0.3 0.3q3.15 3.15 3.55 5.6 0.45 2.8 0.2 4.65" fill="#0d131a"/>
  <path d="m223 163.3-0.25-3.1q-0.4-2.2-3.4-5.35l-0.35-0.35q-0.8-1-3-1.25-2.4-0.3-4.25 1.3-2.1 1.9-2.1 4.75l0.25 1.8q0.65 2.3 2.05 2.55l1.2 0.15 1.75 0.25q1.55 0.7 3.3 2.2 1.05 0.8 2.7 0.55 1.8-0.3 2-1.85l0.1-1.65m0.65-3.25q0.5 3-0.35 5.45-0.95 2.5-1.8 2.95t-2.3-0.85-4.7-2.7l-2.7-0.35q-2-0.3-2.8-3.2-0.5-1.85-0.1-3.7 0.5-2.2 2.25-3.75 2-1.85 4.95-1.6l2.2 0.6 1.4 1 0.3 0.3q3.2 3.2 3.65 5.85" fill="#0d131a"/>
  <path d="m216.1 154.05q1.6 0.25 2.1 0.85l1.7 1.9q1.5 1.85 1.75 3.25 0.55 3.4-0.05 5.5l-0.75 1.45-0.35-0.35q-0.8-2.25-4.1-4.65l-1.4-0.35q-1.25-0.2-2.1-0.75l-2.15-2.25q0.2-2.2 1.75-3.5 1.5-1.35 3.6-1.1" fill="#fff"/>
  <path d="m212.25 162.4q-0.6-0.1-1.1-1.2-0.5-1.2-0.4-2.55l2.15 2.25q0.85 0.55 2.1 0.75l1.4 0.35q3.3 2.4 4.1 4.65-2.95-2.8-5.25-3.8l-1.45-0.3-1.55-0.15" fill="#dbdcdc"/>
  <path d="m241.55 138.6q2.55 1.15 3.3 3.9 0.5 1.75 0.15 3.8-0.25 1.8-0.85 2.55-6.85 6.6-9 7.1-1 0.15-1.45-0.4-1.1-1.35-1.55-5.7-0.5-4.6 0.55-6.75 3.05-7.05 8.85-4.5" fill="#0d131a"/>
  <path d="m241.2 139.35q-2.95-1.3-5 0.25-1.5 1.1-2.75 3.85-0.95 2.05-0.65 6.55 0.25 4.3 1.1 5.35l0.75 0.1q1.15-0.25 4.85-3.4l4-3.7 0.55-1.4 0.25-2.3-0.25-1.95q-0.6-2.35-2.85-3.35m-8.95 3.4q1.25-3.7 3.85-5 2.55-1.3 5.75 0.1 3.1 1.35 3.85 5.15 0.7 3.6-1.25 6.05-1.9 2.7-5.45 5.4-3.75 2.9-5.15 2.35-1.55-0.6-2.2-5.3-0.7-4.95 0.6-8.75" fill="#0d131a"/>
  <path d="m233.95 143.2q1.2-2.65 2.65-3.65l4.35-0.15q1.4 0.55 2.2 2-0.2 2.85-1.5 4.9-3.3 4.95-7.3 8.9-0.8 0.1-1.1-4.85-0.3-5.05 0.7-7.15" fill="#fff"/>
  <path d="m239.05 151.55q-3.65 3.4-4.65 3.65h-0.05q4-3.95 7.3-8.9 1.3-2.05 1.5-4.9 0.8 1.55 0.55 3.8-0.2 1.7-0.65 2.4l-4 3.95" fill="#dbdcdc"/>
  <path d="m242.7 168.35 2.4-4.55q1.35-1.55 3.4-1.6 2.05 0 3.7 1.7 1.8 1.8 1.35 4.65-0.45 2.25-3.1 3.55l-3.85 1.35q-3.45 1.05-4.7 0.9l-1.05-0.1q-0.4-1.15 1.85-5.9" fill="#0d131a"/>
  <path d="m242.8 169.3q-1.95 4.3-1.8 4.7l1.55-0.1 3.5-0.6q1.75-0.45 4.25-1.7 2.45-1.25 2.8-3.15l0.05-1q0-1.95-1.25-3.2-1.6-1.65-3.35-1.55-1.9 0-3.05 1.35l-2.7 5.25m-2.75 5.6q-0.55-0.5 1.2-4.95 1.8-4.6 3.5-6.5 1.55-1.65 3.75-1.7 2.25 0 4.05 1.85 2 2 1.45 5-0.25 1.45-1.2 2.7l-1.95 1.65q-1.3 0.7-5.7 1.55l-5.1 0.4" fill="#0d131a"/>
  <path d="m252.45 166.15q-1.35 2.05-3.85 3.95-3.1 2.25-7.15 3.6-0.45-0.05 1.95-4.6 2.3-4.35 2.95-5.1 0.85-0.9 2-1.05 1.65-0.25 3.1 1.25 0.85 0.85 1 1.95" fill="#fff"/>
  <path d="m250.5 171.05-4.4 1.55q-3.75 1.2-4.65 1.1 4.05-1.35 7.15-3.6 2.5-1.9 3.85-3.95 0.2 1.5-0.6 3.15-0.65 1.35-1.35 1.75" fill="#dbdcdc"/>
  <path d="m233.75 169.45q-1.4 1.15-2.7 2.75-2.65 3.25-2.3 5.6 0.2 1.6 1.1 3.15-2.65-0.65-4.4-3.05-1.75-2.45-1.75-5.55 0-3.65 2.3-6.25 2.25-2.6 5.5-2.6 2 0 3.75 1.1 1.7 1.05 2.8 2.85-3.05 1-4.3 2" fill="#d18200"/>
  <path d="m233.75 169.45q0.85-0.65 2.95-1.5 2.05-0.85 2.15-0.65l-1.75 1-2.65 1.5q-1.35 1.05-2.95 3.55-1.85 3-1.6 4.85 0.45 3.25 3.75 6.15l3.1 2.35q-0.25 0.65-3.7-2.15-3.75-3.05-4.3-6.75-0.35-2.35 2.3-5.6 1.3-1.6 2.7-2.75" fill="#0d131a"/>
  <path d="m211.55 221.15 0.85 2.05q1.05 2.35 2.15 3.8l6.45 6.5q6.25 7.05 11.65 17.9 6 12 7.5 22.15 1.1 7.75-0.35 15.75-0.95 5.5-3 11.2l-2 5.5q-0.35 1.75-0.4 3.85-0.1 2.15 0.25 2.45l3.3 2.65q3.55 3 4.85 4.75l4.8 6.05 1.15 0.6q1.25 0.7 1.45 1.25 0.7 1.7-0.2 4.4-1.1 3.15-3.8 4.6l-4.15 2.2q-0.3-3-1.1-2.55-2.65 1.6-5.1 0.7v3.7l-7.05 0.7-3.55 0.15q-2.1-4.8-3.45-3.65-1.3 1.15-3.4 0.7-1.85-0.4-2.85-1.6l-0.15 4.5q-7.15-0.25-11.6-1.5l-1.4-3.95q-1.5-0.8-2.6-2.55-1.1-1.8-1.45-3.95 1.05-5.8 4.8-11.65 0.3-0.55 0.2-4.4l2 0.4 4.55 0.2 2.35-0.35-2.3-0.4-4.2-0.7-2.45-0.7v-0.05q-1.15-0.25-3.3-1.7-4.35-2.95-9.35-9.1-5.15-6.35-6.65-14.55-0.8-4.35-0.55-11.45 0.3-8.35 5.25-17.15l4.9-7.15 17.95-29.6" fill="#f29600"/>
  <g fill="#d18200">
   <path d="m240.95 336.25q0.8-0.45 1.1 2.55-2.45 1.2-6.2 1.85v-3.7q2.45 0.9 5.1-0.7"/>
   <path d="m221.8 337.85q1.35-1.15 3.45 3.65-5.1 0.15-9.85-0.05l0.15-4.5q1 1.2 2.85 1.6 2.1 0.45 3.4-0.7"/>
   <path d="m198.35 329.5q0.35 2.15 1.45 3.95 1.1 1.75 2.6 2.55l1.4 3.95q-5.75-1.5-5.9-4.45-0.15-2.85 0.45-6"/>
  </g>
  <path d="m242.1 335.55-0.2 0.1q1.2-3 3.05-4.65 2-1.75 2.9-2.2 1-0.55 1.55 0.15l2.2 3.45 2.55 4.7q1.55 3.5 1.25 6.55-0.15 1.55-0.6 2.35-0.3-2.1-3-4.5-2.2-1.95-3.7-2.5-1.85-0.6-3.45-1.35-2.4-1.2-2.55-2.1" fill="#fff"/>
  <path d="m241.4 338.65q-0.65-0.25 0.5-3l0.2-0.1q0.15 0.9 2.55 2.1 1.6 0.75 3.45 1.35 1.5 0.55 3.7 2.5 2.7 2.4 3 4.5-2.9-3-4.25-3.7l-4.8-1.95-4.35-1.7" fill="#dbdcdc"/>
  <path d="m230.7 330 3.25 4.5q2.9 4.5 2.9 7.15 0 4.75-1.05 7.55l-1.05 1.8-0.45-0.65q0.15-2.95-3.15-5.95-2.3-2.15-4.5-3.05-3.45-1.5-3.9-3.8 1.2-3.4 2.7-5.05 1.6-1.7 3.35-2.4l1.9-0.1" fill="#fff"/>
  <path d="m226.65 341.35q2.2 0.9 4.5 3.05 3.3 3 3.15 5.95l-2.15-2.55q-1-0.95-5.25-3.55-4.05-2.5-4.75-2.7-0.3-0.05-0.1-1.25 0.15-1.2 0.7-2.75 0.45 2.3 3.9 3.8" fill="#dbdcdc"/>
  <path d="m204.95 331.9q1.1-1.35 2.3-2.15 1.4-0.85 1.9-0.25l3.2 3.85q2.7 3.4 3 4.45 0.8 2.7-1.2 7.8-1 2.55-2.2 4.55l-0.3-0.5v-0.25q-0.15-2.5-1.8-4.8l-2.8-3.25-2.35-2.4-2-2.25q1.2-3.55 2.25-4.8" fill="#fff"/>
  <path d="m207.05 341.35 2.8 3.25q1.65 2.3 1.8 4.8v0.25q-1.9-2.85-2.75-3.75l-6.6-6.4q-0.4-0.3 0.4-2.8l2 2.25 2.35 2.4" fill="#dbdcdc"/>
  <g fill="#0d131a">
   <path d="m242.5 335q-1.1 2.35-0.95 3.3l0.2 0.3 1.2 0.45 7.5 3q1.25 0.7 4.05 3.55 0.45-0.7 0.6-2.35 0.3-2.85-1.2-6.1l-2.4-4.5-2.15-3.3q-0.25-0.35-0.6-0.35-0.85-0.1-3.65 2.3-1.4 1.25-2.6 3.7m-0.2 5.8-1.25-0.5q-1.05-0.35-1.3-1.65-0.25-1.55 1.1-4.4t3.05-4.35l2.7-2.1q1.3-0.75 2.35-0.65 1.1 0.15 1.9 1.1l2.2 3.45 2.5 4.7q1.75 3.8 1.35 7.25-0.2 1.75-0.8 2.85l-0.6 1.1-0.7 0.45q-0.45 0.1-0.75-0.3l-0.85-0.85q-2.8-2.8-3.65-3.2-1.2-0.7-7.25-2.9"/>
   <path d="m222.35 341.3 0.2 0.25q0.75 0.25 4.55 2.6 4 2.4 4.95 3.3l2.45 3.05q0.55-0.45 1-1.75 1-2.65 1-7.15 0-3.7-5.65-10.8l-0.2-0.3-0.5-0.2q-0.75-0.05-1.85 0.55-1.4 0.7-2.65 2.05-1.35 1.45-2.45 4.5-1.1 2.9-0.85 3.9m-0.4 2q-1-0.3-1.35-1.5-0.45-1.55 0.8-5 1.3-3.4 2.9-5.15 1.4-1.55 3.05-2.4 1.6-0.85 2.9-0.8 1.2 0.1 1.9 0.95l0.15 0.25q6.05 7.6 6.05 11.95 0 4.9-1.15 7.9-0.65 1.7-1.5 2.45l-0.8 0.65-0.75 0.25-0.65-0.45-0.55-0.9q-1-1.6-2.15-2.7-0.8-0.75-4.55-3.05-3.65-2.25-4.3-2.45"/>
   <path d="m209.6 330.55-0.45-0.55q-0.25-0.25-0.55-0.25-0.7 0-1.7 0.8-1 0.75-1.75 1.75-0.8 0.95-1.85 3.7-1.1 2.9-0.7 3.55l2.95 2.75 3.35 3.3q1.05 1.15 2.9 4.05 1.6-2.7 2.6-5.65 1.3-3.95 0.65-6.1-0.4-1.4-5.45-7.35m-5.9 0.6q0.65-0.9 1.8-1.85 1.7-1.4 3.1-1.4 1.15 0 1.95 0.9l0.45 0.55q5.3 6.2 5.8 8 0.9 3-0.95 8.1-1.05 2.75-2.45 5.15l-0.75 1.3-0.8 0.5-0.75-0.45-0.85-1.3-2.7-3.8-6.15-5.95q-1.45-1.25 0.15-5.45 1.2-3.05 2.15-4.3"/>
   <path d="m209.2 316.25-2.8-0.6q-1.45-0.5-1.35-0.75l1.25 0.15 2.55 0.35 4.1-0.1q2.7-0.15 2.7 0l-2.55 0.6-3.9 0.35"/>
  </g>
  <path d="m163.1 1.7q3.6-0.25 6 5.1 0.65 1.4 1.55 6.15l1.25 7q0.35 2.05 3.45 15.2 1.1 4.8 7.05 14.2l2.85 5 0.85 2.75q0.2 1.6-1.65 7.35 0.95 3.15 0.7 9l3.25 9.25 1.75 4.5 2.05 4.05q0.4 0.65 1.45 0.7 0.9 0.1 1.75 1.7 1.65 3.15-3.35 11.75l-5.3 8q0.65 4.25-4 5.6l-7.05 0.85q-1.15 0.15-3.35 1.35-2 1.05-4.6 1.05-3.1 0-7.2-2.3-3.55-1.9-4.35-3.2l-3.15-3.9-4.35-5.25-5.85-6.4-5.35-5.6q-1.05-1.2-2.55-1.65l-1.25-0.2q-3.4-3-5.8-7.8-1.9-3.85-1.9-5.45 0-1.15 0.55-4.65 0.6-3.75 1.25-6.05 1.5-5.3 1.5-8.8 0-3.05-2.65-10.6-1.15-3.4-7.35-13.6l-4.35-5.35-5.1-5.95q-1.6-1.95-1.45-4.9 0.15-2.55 1.2-3.3t3.55-0.8q2.35 0 3.7 0.55 1.15 0.45 4.55 3.75l6.65 6.65q8.25 8.25 14.2 12.35 2.5 1.75 7.05 0.75 3.65-0.75 7.25-2.85 2.55-1.5 3.25-5.7 0.3-1.9 0.3-7.2l-0.55-9.4q-0.5-6.75-0.45-7.9 0.1-2.2 0.9-3.65 1-2 3.1-2.15" fill="#f29600"/>
  <g fill="#0d131a">
   <path d="m174.15 101 2.35 0.9 2 0.25 1.75-0.05 0.95-0.25 0.55 0.1q0.15 0.4-0.8 0.75l-2.4 0.4q-2.3 0-4.7-1.2-0.6-0.3-2.05-0.45l-1.9-0.05q-0.6 0.1-3.35 2.85-1 1-1.5 0.3-0.35-0.45 0.95-1.5l2.1-1.55q1.75-1.15 3-1.15 1.3 0 3.05 0.65"/>
   <path d="m174.25 109-2.2-0.6-1.75 0.5q-1.1 0.15-1.5-0.4-0.2-0.3 0.75-1 0.95-0.65 1.55-0.7 0.55-0.05 1.9 0.6l1.65 0.95q0.35 0.3 0.2 0.55l-0.6 0.1"/>
   <path d="m192.05 100q0.25 0.3-0.3 1l-0.9 1-1.7 2.6q-0.4 0.7-0.9 0.6-0.55-0.15-0.25-0.7 0.35-0.7 1.8-2.7 0.35-0.6 1.25-1.25 0.9-0.7 1-0.55"/>
   <path d="m165.5 69.75-0.15-0.55q0-0.35 0.25-0.45l0.85 0.4 0.65 1.8 0.65 0.9 0.35 0.8-0.4 0.95q-0.45 0.4-0.75 0.3-0.35-0.15-0.35-1.85l-0.45-1.15-0.65-1.15"/>
   <path d="m166.95 74.45q0.45 0.2-0.3 3.1l-2.3 6.55-1.3 1.75q-1.1 1.1-1.4 0.9-0.5-0.35 0.55-1.95l0.65-0.85 0.65-1 1.25-3 1.2-3.15q0.75-2.55 1-2.35"/>
   <path d="m178.6 69.6 0.25 0.8 0.05 1.4-0.3 2.4q0 2.4-0.8 2.25-0.5-0.1-0.5-0.75l0.1-1.1 0.55-2.25q0.35-2.7 0.65-2.75"/>
   <path d="m155.75 107.6 0.15 2.7q-0.05 0.85 0.75 1.15t1.5-0.65l0.6 0.9q-1.15 1.45-2.5 1.45-0.9 0-1.35-2.15-0.45-2.1-0.3-5.15l1.15 1.75"/>
  </g>
  <path d="m156.45 111.65q-0.9-0.4-0.7-4.05l2.4 3.2-1 0.8-0.7 0.05" fill="#fff"/>
  <path d="m184.4 67.3 0.2 1.3q0.3 2.35 0.05 5-0.05 1.05-1.05 2.85-1.25 2.2-2.95 3 0.1-3 1-5.8 1.05-3.2 2.75-6.35" fill="#fff"/>
  <g fill="#0d131a">
   <path d="m261.8 72.05q0.35-0.15 1.05 0.45l0.9 0.95q5.35 7.1 10.2 23.45 5.05 16.9 7 35.25 0.2 1.6-0.05 2.85-0.2 1.15-0.65 1.2-0.9 0.1-1.25-3.9-1.65-16.6-6.6-33.5-4.6-15.75-9.9-24.65-1.15-1.9-0.7-2.1"/>
   <path d="m276.1 81.05q0.35-0.15 1.5 1.4l1.25 1.9q11.7 32.3 8.8 61.55l-0.2 2.5q-0.25 2.1-0.6 2.1-0.3 0-0.65-1.85l-0.3-2.3q1.2-38.2-9.1-61.85-1.4-3.15-0.7-3.45"/>
   <path d="m66.9 84.7 0.65-1q0.45-0.65 0.75-0.55 0.35 0.1 0.35 1l-0.2 1.3q-2.9 8-4.4 21.9-1.65 14.85-0.65 27.45v1.85q-0.1 1.4-0.45 1.4t-0.7-1.4l-0.3-1.8q-1.55-13 0.1-29 1.6-15.8 4.85-21.15"/>
   <path d="m60 96.35q0.45-1.5 0.95-1.35 0.35 0.05 0.45 0.8v1.1q-3.45 13.45-5.2 27.55-1.85 15-1.4 28.2 0 2.9-0.5 2.95-0.35 0-0.5-1.25l-0.1-1.7q-1.75-12.95 0.25-28.4 1.7-13.5 6.05-27.9"/>
  </g>
  <path d="m143.35 69.1q0.65-0.3 1.45 0.2l10.25 7.6 0.7 0.6q0.9 0.55 1.3 1.65l0.7 1.45 1.05 2.45-0.2 0.7-2.2 0.1-6.25-1.2-0.55-0.15-5.3-1.4q-2.05-0.75-2.3-1.75-0.25-1.15-0.05-4.25l0.5-4.6q0.2-1.1 0.9-1.4" fill="#fff"/>
  <path d="m143.35 69.1q0.65-0.3 1.45 0.2l10.25 7.6 0.7 0.6q0.9 0.55 1.3 1.65l0.7 1.45 1.05 2.45-0.2 0.7-2.2 0.1-6.25-1.2-0.55-0.15-5.3-1.4q-2.05-0.75-2.3-1.75-0.25-1.15-0.05-4.25l0.5-4.6q0.2-1.1 0.9-1.4" fill="#fff"/>
  <path d="m148.75 72.1 0.1 0.1 6.9 5.3q0.9 0.55 1.3 1.65l0.7 1.45 1.05 2.45-0.2 0.7-2.2 0.1-5.8-1.1q-2.15-3.4-2.15-7.65 0-1.55 0.3-3" fill="#008086"/>
  <path d="m181.35 79.65-1.25 0.65 0.05-0.9q0.05-3.1 1-5.9l1.45-3.75q0.7 1.85 0.7 3.85 0 3.45-1.95 6.05" fill="#008086"/>
  <path d="m181.25 77.75q-0.45 0-0.9-0.6l0.8-3.65q0.55-1.75 1.4-3.6 0.7 1.4 0.7 3.4 0 1.85-0.6 3.15-0.55 1.3-1.4 1.3" fill="#00666c"/>
  <path d="m181.95 76.65q-0.35 1.4-1.45 1.2 0.1-1.05 0.8-3.15 0.95 0.8 0.65 1.95" fill="#0d131a"/>
  <path d="m148.75 72.1 0.1 0.1 6.9 5.3q0.9 0.55 1.3 1.65l1.1 2.3-4.5 0.3q-2.7-0.5-4.5-2.25-0.7-2.1-0.7-4.4 0-1.55 0.3-3" fill="#00666c"/>
  <path d="m151 82.4-1.2-0.05q-1.9-3.25-1.9-7.25 0-1.4 0.35-3.35l0.05-0.05q0.05 0.7 0.9 0.7l-0.25 2.7q0 3.95 2.05 7.3" fill="#0d131a"/>
  <path d="m153.8 81.45q-0.85 0-1.4-0.6-0.5-0.6-0.5-1.4t0.5-1.4q0.55-0.55 1.25-0.55 0.65 0 1.15 0.6t0.5 1.4l-0.35 1.3-1.15 0.65" fill="#0d131a"/>
  <path d="m151.85 78.8q-0.75 0-1.2-0.55-0.4-0.5-0.4-1.15 0-0.75 0.45-1.25 0.5-0.55 1.15-0.55 0.6 0 1.1 0.6 0.45 0.55 0.45 1.3l-0.45 1.1q-0.5 0.5-1.1 0.5" fill="#fff"/>
  <path d="m181.65 75.5-0.6-0.45-0.2-0.9q0-0.65 0.25-1.05 0.2-0.45 0.55-0.45l0.55 0.5 0.2 1.05-0.2 0.9-0.55 0.4" fill="#fff"/>
  <g fill="#0d131a">
   <path d="m144.5 69.75q-1.25-0.75-1.55 0.85l-0.5 4.55q-0.2 3 0.05 4.05 0.25 1 3.55 1.9l4.25 1 6.2 1.25 1.45 0.15q0.4-0.05 0.35-0.4l-1.7-3.75q-0.3-0.75-1.15-1.45-3.4-2.75-5-3.95l-5.95-4.2m-1.05-1.75q3.35 1.9 7 4.6l5 4.15 1.2 1.05q0.8 0.7 1 1.25l2.6 5.45 0.35 0.9q0.1 0.5-0.35 0.65l-0.4-0.3-0.25-0.65q-0.1-0.25-0.75-0.5l-1.25-0.25q-1.55 0-6.15-1l-7.8-1.9q-1.1-0.45-1.8-1.6-0.8-1.25-0.8-2.95 0-1.4 0.3-3.95l0.25-2.65 0.1-1.05-0.1-0.9q-1.4-1.5-1.25-1.75 0.2-0.25 3.1 1.4"/>
   <path d="m183.5 73.45q0 4.55-2.85 7.3l-0.75-0.25q1.3-1.15 2.05-2.95 0.8-1.85 0.8-3.95 0-1.85-0.6-3.45l0.55-0.95q0.8 2.1 0.8 4.25"/>
   <path d="m184.6 68.6-0.2-1.3q-1.7 3.15-2.75 6.35-0.9 2.8-1 5.8 1.7-0.8 2.95-3 1-1.8 1.05-2.85 0.25-2.65-0.05-5m-15.55-60.1q-1.9-6.1-5.45-6.1-2.35 0-3.35 2.7-0.75 2.1-0.5 4.75l0.65 8.1 0.4 10.05q-0.1 5.2-1.45 7.65-1 1.75-3.7 3.4-2.15 1.3-5.15 1.85l-4.6 0.3 1.95 0.85 2.35 1.25 1.85 1.45 2.4 2.05q1.15 1.3 1.15 1.65-0.05 0.4-1.65-0.75l-2.05-1.35-1.6-1.2q-1.3-1.3-2.7-1.65-0.95-0.15-2.5-1-1.85-0.95-3.35-2.3-6.6-5.45-11.85-10.45l-11.6-11.15q-1.4-1.3-4.2-1.55-2.8-0.3-4.05 0.8-1.15 1-1 3.35 0.15 2.1 1 3.25l4.7 5.55 5.25 6.65q9.95 15.9 9.95 23.85 0 3.65-0.65 6.85l-1.15 4.3-1 4.35q-0.5 2.7-0.5 3.9 0 1.45 0.7 3.45 0.75 2.3 2.15 4.3 3.2 4.7 4 5.4l0.95 0.15q0.85 0 1.3 0.3l3.55 2.8q3.25 2.9 5.5 5.65l6.85 7.85q3.65 4.25 4.45 5.75 0.75 1.25 4.05 3.4 4.15 2.7 7.45 2.7 1.7 0 3.25-0.65l1.9-0.95q2.45-1.1 5.05-1.15 5.15-0.25 6.55-1.25 0.9-0.65 1.5-2.45-1.85 1.8-3.55 2.1-2.3 0.5-5.95-1.25l-2.5-0.85-2.95-0.4-3.5 0.7q-2.6 0.5-4.3-0.05-1.85-0.6-2.9-1.7l-1.7-2.45q-1.95-3-5.45-6.85-6.35-6.85-8.3-8.4-0.8-0.65-3.3-1.5l-3.1-1.2q-0.8-0.5-1.2-1.8-0.25-0.85-0.55-2.9-0.2-1.45 0.05-2.6 0.2-0.95 0.5-0.95 0.45 0.1 0.5 1.4 0.55 4.5 1.1 5.45 0.35 0.6 2.5 1.25 2.55 0.8 3.55 1.55l5.25 4.45q3.8 3.55 5.7 5.9 2.7 3.4 5.05 7.25l1.85 1.25q1.45 0.6 3.25 0.6l2.55-0.35 2.65-0.35 2.95 0.35 2.85 0.75q3.8 1.65 4.5 1.65 1.45 0 3.8-2.45 2.85-2.95 5.75-8.2 1.65-3 2.75-5.85 1.25-3.2 1.25-4.8 0-1.3-1.05-1.95l-2.25-1.65q-1.1-1.3-2.55-4.75-1.3-3-1.9-5.25-0.85-3.1-2.1-6.5-1 2.95-2.3 4.5l-1.45 1.3q-0.85 0.6-0.85 1.25l-0.25 0.5-0.45-0.1q-0.45-0.9-0.45-2.2l0.45-3.25q0.5-2.75 0.95-3.75l3.45-8.9q1.3-3.9 1.3-6.7 0-1.9-0.75-3.5-0.6-1.2-2-2.95-1.35-1.65-3.15-4.8-2.05-3.55-3.35-6.8-2.8-7.15-4.8-18.95-1.8-10.1-2.4-12m1.2-2.35 2.7 12.65 2.7 12.35q1.45 5.25 4.6 11.35l3.65 6.7q2.25 4.15 2.6 5.85 0.4 1.9 0.3 3.35l-0.6 2.65-0.95 3.4 0.35 2.4q0.35 3.05 0.15 6.35l3.8 10.75 1.8 4.15q1.1 2.05 1.8 2.65l2.05 1.45q1.4 1.1 1.4 2.6 0 3.05-2.7 8.7-2.65 5.65-6.05 9.65-0.2 2.6-2.3 5.15-1.1 1.25-4.3 1.8l-5.55 0.65q-1.45 0.2-4.15 1.5-2.3 1.15-4.3 1.15-2.5 0-6.05-1.7-2.95-1.45-4.4-2.8l-3.3-3.8-4.9-6.05-10.65-11.85q-1.4-1.45-3.15-1.8l-1.75-0.35-2.7-3.1-2.7-3.5-2.1-3.85q-1.25-2.55-1.25-3.7 0-1.6 1.85-9.1 1.65-7.05 1.65-11.35 0-2.9-2.4-9.1-2.1-5.5-4.65-10-1.9-3.35-6.85-8.8l-5.85-6.4q-1.95-2.45-1.7-5.75 0.2-3 1.95-4.4 1.6-1.35 4.85-1.45 3.8-0.15 6.2 2.15l9 8.95 8.4 8.35q5 4.45 7.05 5.35 1.3 0.6 4.35 0.5 3.15-0.15 4.95-0.95 2.6-1.1 3.85-2.4 1.95-2.1 1.95-5.6l0.05-6.8-0.2-5.95-0.8-10.6q-0.1-2.3 1.3-4.6 1.55-2.55 3.95-2.9 2.4-0.3 4.5 1.65 1.95 1.85 2.55 4.45"/>
  </g>
 </g>
</svg>
