<?xml version="1.0" encoding="UTF-8" standalone="no"?>
<!-- Created with Inkscape (http://www.inkscape.org/) -->

<svg
   version="1.1"
   viewBox="0 0 141.77 144.5"
   id="svg3522"
   sodipodi:docname="2.svg"
   inkscape:version="1.2.2 (b0a8486, 2022-12-01)"
   xmlns:inkscape="http://www.inkscape.org/namespaces/inkscape"
   xmlns:sodipodi="http://sodipodi.sourceforge.net/DTD/sodipodi-0.dtd"
   xmlns="http://www.w3.org/2000/svg"
   xmlns:svg="http://www.w3.org/2000/svg">
  <defs
     id="defs3526" />
  <sodipodi:namedview
     id="namedview3524"
     pagecolor="#505050"
     bordercolor="#eeeeee"
     borderopacity="1"
     inkscape:showpageshadow="0"
     inkscape:pageopacity="0"
     inkscape:pagecheckerboard="0"
     inkscape:deskcolor="#505050"
     showgrid="false"
     inkscape:zoom="1.633218"
     inkscape:cx="58.167373"
     inkscape:cy="75.311441"
     inkscape:window-width="1309"
     inkscape:window-height="430"
     inkscape:window-x="0"
     inkscape:window-y="25"
     inkscape:window-maximized="0"
     inkscape:current-layer="svg3522" />
  <path
     d="m 86.6776,130.1512 c 1.417037,0.88565 8.561264,1.71225 10.214474,1.47608 l 1.239907,-0.11809 c 1.712253,-0.11808 4.546329,-2.00747 8.502219,-11.33629 5.43198,-12.5762 4.60537,-28.872126 2.53886,-31.942372 l -0.59043,1.357994 c -0.17713,-0.295216 -0.64948,-0.590432 -1.53513,-0.295216 -2.95216,1.003734 -9.919254,8.443177 -15.469314,15.056014 -5.431975,6.5538 -11.277252,14.40654 -11.159165,16.23688 z"
     fill="#0f141b"
     id="path3052"
     style="stroke-width:0.36902" />
  <path
     d="m 85.3786,125.9612 c 0.05904,0.17713 0.118086,0.29522 0.17713,0.47235 0.590432,1.12182 1.12182,2.36172 1.47608,2.5979 1.180864,0.70851 8.266048,1.71225 9.919257,1.53512 l 0.590432,-0.059 c 1.535123,-0.11809 3.896851,-0.23618 7.498491,-9.21074 0.70851,-1.7713 1.29895,-3.66068 1.77129,-5.55006 -3.78799,-1.42782 -7.748311,0.13645 -11.966579,2.37383 -3.741125,1.98451 -7.498855,4.71829 -9.466101,7.84057 z"
     fill="#5dc1cf"
     id="path3056"
     style="stroke-width:0.36902" />
  <path
     d="m 107.9896,90.0042 c -0.17713,-0.236173 -0.8266,0.05904 -1.12182,0.17713 -2.65694,1.29895 -8.738394,7.439443 -15.469319,15.52836 -6.494752,7.85275 -10.273517,13.63898 -10.273517,14.7608 v 0.059 c 1.889382,0.47235 3.188333,3.12929 4.25111,5.43198 4.900586,-6.02241 15.469316,-11.80864 21.432686,-10.21447 3.12929,-11.45439 2.65694,-23.558242 1.18086,-25.74284 z"
     fill="#50a8b4"
     id="path3060"
     style="stroke-width:0.36902" />
  <path
     d="m 19.3096,24.4082 c 0.236173,0.649475 1.594166,1.889382 2.243642,2.77503 -1.417037,-0.826604 -3.601636,-2.125555 -3.896852,-2.184598 -0.236172,-0.05904 -3.778764,1.062778 -4.133024,1.239907 -0.413302,0.17713 1.298951,0.590432 1.47608,0.708519 -0.413302,-0.118087 -1.357993,-0.295216 -1.357993,-0.295216 -0.118087,0.05904 -3.6606786,2.420771 -4.0149378,3.011203 -0.295216,0.590432 3.8378078,0.590432 5.4910178,0.531389 -1.47608,0.767561 -4.723456,2.184598 -4.723456,2.479814 0.05904,0.354259 1.712253,1.47608 2.361728,1.535123 0.649475,0 5.431974,-0.944691 8.088918,-1.417037 -2.361728,1.121821 -5.845277,2.656944 -6.022406,2.893117 -0.236173,0.236173 4.133024,3.955895 4.546326,4.014938 0.354259,0 4.664413,-2.243642 8.502221,-3.365463 -2.007469,1.889383 -6.730925,4.073981 -6.967098,4.310154 -0.295216,0.295216 5.195802,4.60537 5.491018,4.664413 0.354259,0.05904 5.195802,-2.538858 8.738394,-3.719722 -2.834074,1.712253 -8.147962,4.310154 -8.325092,4.664413 -0.177129,0.354259 16.295924,6.553795 16.295924,6.553795 L 63.828173,49.32443 49.421632,33.618939 v -0.05904 c -2.361728,-1.535123 -10.33256,-5.668147 -10.391603,-5.609104 -0.05904,0.118086 0.236173,1.357994 0.354259,2.007469 -0.413302,-1.180864 -0.767562,-2.302685 -0.944691,-2.597901 -0.17713,-0.354259 -7.55753,-3.483549 -7.734659,-3.247376 -0.118087,0.295216 0.649475,1.948426 1.062777,3.12929 -0.649475,-1.180864 -1.239907,-2.302685 -1.535123,-2.538858 -0.236173,-0.17713 -2.479814,-0.649475 -2.656944,-0.472346 -0.17713,0.17713 0.236173,1.889383 0.413302,3.12929 -0.767561,-1.535123 -1.653209,-3.070246 -2.007468,-3.483549 -0.295216,-0.413302 -6.908055,-0.05904 -6.671882,0.531389 z"
     fill="#0f141b"
     id="path3064"
     style="stroke-width:0.36902" />
  <path
     d="m 25.7456,24.5262 c 0.17713,0.354259 1.712253,3.247376 2.597901,4.664413 0.885648,1.357993 0.708518,0.118086 0.708518,0.118086 -0.295216,-1.417037 -0.649475,-3.542592 -0.767561,-4.42824 0.590432,0.118087 1.357993,0.354259 1.653209,0.413303 0.118087,0.236172 2.95216,5.195801 2.95216,5.195801 0,0 1.357994,2.538858 0.590432,-0.295216 -0.767561,-2.834073 -1.29895,-3.837808 -1.653209,-4.900585 1.062777,0.472345 5.845276,2.479814 6.081449,2.538857 0.118087,0.236173 2.538858,6.730925 2.538858,6.730925 l 0.295216,-1.121821 c 0,0 -0.708519,-3.660678 -0.885648,-4.546326 1.889382,0.767561 6.908054,3.719721 9.151696,5.195801 0.05904,0.05904 12.753331,13.934196 13.520893,14.7608 -1.121821,0.17713 -19.18904,3.247376 -19.36617,3.247376 -0.17713,-0.05904 -13.638979,-5.431974 -14.819843,-5.963363 1.889382,-1.003734 7.675616,-4.133024 8.915523,-5.136758 1.239907,-1.003735 1.712253,-1.062778 -0.295216,-0.590432 -1.948426,0.531389 -9.269782,3.542592 -10.450646,4.133024 -0.295216,-0.236173 -3.837808,-3.188333 -4.42824,-3.719722 1.357993,-0.708518 5.491017,-2.95216 7.321356,-4.900585 0.885648,-0.885648 1.712253,-1.180864 -0.590432,-0.472346 -2.361728,0.767562 -8.384134,3.011203 -9.387868,3.483549 -0.236173,-0.236173 -2.893117,-2.538858 -3.424506,-3.070247 1.357994,-0.649475 5.609104,-2.656944 7.085184,-3.483548 0,0 2.715987,-1.121821 -0.236173,-0.590432 -2.95216,0.531388 -9.742128,1.653209 -9.978301,1.712252 -0.118086,-0.05904 -0.708518,-0.472345 -1.180864,-0.767561 0.826605,-0.413303 4.959629,-2.597901 4.959629,-2.597901 0,0 2.243642,-0.649475 -0.177129,-0.649475 -2.361728,0.05904 -4.073981,0.177129 -5.90432,0.05904 0.944691,-0.944691 2.834073,-2.007469 3.247376,-2.243642 0.236172,0.05904 4.664412,1.239908 4.664412,1.239908 0,0 3.365463,1.417036 0.708519,-0.17713 -2.656944,-1.65321 -2.834074,-1.535123 -3.837808,-2.007469 0.826605,-0.236173 2.066512,-0.590432 2.243641,-0.649475 0.236173,0.118086 5.018672,2.834074 5.018672,2.834074 0,0 0.649476,0.472345 0.17713,-0.35426 C 22.321094,27.30123 21.31736,25.766107 20.490755,24.70333 21.730662,24.467157 24.505693,24.5262 25.7456,24.5262 Z"
     fill="#00a63c"
     id="path3068"
     style="stroke-width:0.36902" />
  <path
     d="m 41.2736,36.0982 c -3.188333,-1.180864 -6.317622,-2.302685 -8.67935,-2.95216 -0.826605,-0.236173 -1.003735,0.17713 -0.118087,0.472346 2.361728,0.649475 5.609104,1.830339 8.85648,3.188332 z"
     fill="#0f141b"
     id="path3072"
     style="stroke-width:0.36902" />
  <path
     d="m 41.6286,38.1062 c -5.313888,-2.538858 -11.041078,-4.782499 -15.469318,-6.022406 -0.826605,-0.236173 -0.944692,0.177129 -0.118087,0.413302 4.42824,1.29895 10.273517,3.719722 15.705491,6.317622 z"
     fill="#0f141b"
     id="path3076"
     style="stroke-width:0.36902" />
  <path
     d="m 38.3216,35.2712 c -0.17713,-1.712253 -0.531389,-3.483549 -1.003734,-4.900586 -0.17713,-0.531388 -0.472346,-0.413302 -0.35426,0.118087 0.413303,1.417037 0.649476,2.95216 0.826605,4.605369 z"
     fill="#0f141b"
     id="path3080"
     style="stroke-width:0.36902" />
  <path
     d="m 36.6686,34.6812 c 0,-0.767562 -0.17713,-2.184598 -0.413302,-2.834074 -0.17713,-0.413302 -0.472346,-0.354259 -0.35426,0.05904 0.17713,0.767561 0.295216,1.830339 0.295216,2.5979 z"
     fill="#0f141b"
     id="path3084"
     style="stroke-width:0.36902" />
  <path
     d="m 36.4916,36.0982 c -0.826605,0.767562 -2.893117,2.656944 -4.014938,3.306419 -0.472345,0.236173 -0.295216,0.590432 0.17713,0.354259 1.29895,-0.649475 3.365462,-2.361728 4.369197,-3.365462 z"
     fill="#0f141b"
     id="path3088"
     style="stroke-width:0.36902" />
  <path
     d="m 46.2336,62.3132 c -3.601635,0.236173 -16.473053,1.594166 -23.144934,13.520893 -5.313888,9.446912 -5.372932,12.753331 -4.133024,22.1412 0,0 0.472345,2.597897 0.236172,3.955897 -0.236172,1.29895 -0.354259,3.0112 -0.767561,5.55006 -0.354259,2.36173 -0.295216,4.66441 -0.118087,5.96336 0.236173,2.5979 1.535124,3.66068 3.896852,4.07398 0,0 12.280985,1.23991 13.993238,-0.8266 0,0 3.188333,-2.5979 4.310154,-7.43945 2.125555,2.00747 6.553795,4.7825 10.096387,6.19954 2.361728,9.44691 11.336294,22.5545 17.299657,26.09709 1.47608,0.82661 10.982036,-0.17713 13.63898,-1.59416 0.531388,-0.29521 0.885648,-0.94469 1.003734,-1.29895 0.05904,-0.29522 0.413302,-0.82661 0.413302,-1.53513 0,-3.66067 -1.003734,-11.74959 -1.47608,-14.40654 8.147962,-1.47608 15.705492,-5.49101 18.480522,-8.44317 4.428238,-4.60537 7.085188,-8.3251 8.502218,-14.347502 v -0.236172 c 0,-0.531389 -0.35426,-1.180864 -1.06277,-2.007469 C 104.03689,93.665139 91.873994,84.985789 77.762669,76.660698 71.976435,73.236192 52.610266,62.017984 46.2336,62.3132 Z"
     fill="#0f141b"
     id="path3092"
     style="stroke-width:0.36902" />
  <path
     d="m 20.3136,100.7512 c -0.649475,-6.494752 -2.302685,-13.816109 3.955894,-24.384842 6.789968,-11.45438 18.480522,-13.10759 22.023114,-13.28472 9.564998,-0.531388 60.991622,36.724871 60.932582,36.783914 -1.35799,4.605368 -3.60163,9.151698 -8.50222,13.698018 -6.022407,5.72719 -16.768269,7.79371 -17.299658,7.79371 -0.590432,0 -0.708518,-2.24364 -0.826605,-3.5426 -0.11809,-1.35799 -1.29895,-0.88564 -1.003734,1.00374 0.531389,3.0112 2.715987,17.89009 2.243641,19.60234 0,0.059 -0.11809,0.29522 -0.590432,0.53139 -2.715987,1.47608 -11.218208,2.36173 -12.576201,1.94843 -1.712253,-0.53139 -15.646448,-13.5209 -17.358701,-30.76151 -0.354259,-3.30642 -1.003734,-4.42824 -1.239907,-2.65695 -0.236173,1.7713 0.354259,6.49476 0.354259,6.49476 -3.778765,-1.41704 -20.015645,-10.86395 -21.609811,-28.16361 -0.413303,-3.896851 -1.771296,-2.77503 -0.413303,4.664413 0.413303,2.656944 1.535124,8.915523 11.100122,18.067217 -0.354259,1.94843 -1.535123,4.66442 -3.306419,6.78997 0,0 -1.948426,2.5979 -12.044813,1.47608 l -1.121821,-0.17713 c -2.538857,-0.4133 -3.483549,-1.71225 -3.719721,-3.66068 -0.118087,-1.18086 -0.118087,-2.30268 0.236172,-4.54632 0.413303,-2.5979 1.003735,-5.49102 0.767562,-7.67562 z"
     fill="#5dc1cf"
     id="path3096"
     style="stroke-width:0.36902" />
  <path
     d="m 30.4686,93.1932 c 4.60537,12.5762 16.709226,19.60234 19.956602,20.78321 0,0 -0.590432,-4.72346 -0.35426,-6.49476 0.05904,-0.4133 -13.166633,-1.18086 -19.602342,-14.28845 z"
     fill="#50a8b4"
     id="path3100"
     style="stroke-width:0.36902" />
  <path
     d="m 30.1146,96.1412 c 3.719722,8.26605 5.786234,18.65765 0.118086,20.90129 4.841543,-0.23617 5.963364,-1.71225 5.963364,-1.71225 1.771296,-2.12556 2.95216,-4.84154 3.306419,-6.78997 C 34.247624,103.46256 31.531637,99.329533 30.1146,96.1412 Z"
     fill="#50a8b4"
     id="path3104"
     style="stroke-width:0.36902" />
  <path
     d="m 46.2926,63.0812 c -2.125555,0.118086 -7.321357,0.708518 -12.576202,3.719722 28.872125,6.258579 32.060458,35.603048 33.359408,48.474468 12.694288,5.01867 13.166634,17.89009 13.048548,24.14867 0.413302,-0.11809 0.767561,-0.29522 1.12182,-0.47235 0.472346,-0.23617 0.590432,-0.47234 0.590432,-0.53139 0.472346,-1.71225 -1.712252,-16.59114 -2.243641,-19.60234 -0.295216,-1.88938 0.885648,-2.36173 1.003734,-1.00373 0.118087,1.29895 0.236173,3.54259 0.826605,3.54259 0.531389,0 11.277251,-2.06651 17.299658,-7.7937 4.900588,-4.54633 7.144228,-9.09266 8.502218,-13.698026 C 107.28423,99.80607 55.857598,62.549811 46.2926,63.0812 Z"
     fill="#50a8b4"
     id="path3108"
     style="stroke-width:0.36902" />
  <path
     d="m 24.6236,114.1512 c -0.590432,-0.059 -2.361728,2.12556 -2.361728,2.77503 0,0.59043 2.066512,3.30642 2.715987,3.30642 0.649475,0 1.771296,-1.94843 1.830339,-3.12929 0.118087,-1.18086 -1.653209,-2.95216 -2.184598,-2.95216 z"
     fill="#0f141b"
     id="path3112"
     style="stroke-width:0.36902" />
  <path
     d="m 24.0336,115.2112 c 0.413302,-0.59043 0.590432,-0.59043 1.003734,-0.23617 0.413303,0.35426 1.239908,1.53512 1.239908,2.06651 0,0.53139 -0.944692,2.42077 -1.239908,2.42077 -0.295216,0 -2.125555,-1.83034 -2.066512,-2.42077 0.05904,-0.29522 0.531389,-1.00374 1.062778,-1.83034 z"
     fill="#ffffff"
     id="path3116"
     style="stroke-width:0.36902" />
  <path
     d="M 24.684787,114.45365 Z"
     fill="none"
     stroke="#0f141b"
     stroke-linecap="round"
     stroke-linejoin="round"
     stroke-miterlimit="10"
     stroke-width="0.18451"
     id="path3120" />
  <path
     d="m 28.8156,117.6912 c 0.05904,0.47235 2.302685,3.36546 3.12929,2.95216 0.767561,-0.47235 1.180864,-2.47981 1.357993,-3.24738 0.17713,-0.70851 -1.594166,-3.07024 -2.243641,-3.0112 -0.649476,0.059 -2.302685,2.83407 -2.243642,3.30642 z"
     fill="#0f141b"
     id="path3124"
     style="stroke-width:0.36902" />
  <path
     d="m 31.0596,115.1612 c 0.295216,-0.11809 1.594166,1.65321 1.712253,2.36173 -0.05904,0.29521 -0.708519,2.24364 -1.062778,2.36173 -0.354259,0.11808 -2.243641,-1.71226 -2.302685,-2.1846 -0.05904,-0.53139 1.357994,-2.42077 1.65321,-2.53886 z"
     fill="#ffffff"
     id="path3128"
     style="stroke-width:0.36902" />
  <path
     d="m 34.4246,116.9312 c 0,0.53139 3.955894,2.47981 4.192067,1.53512 0.413303,-1.47608 -1.062777,-5.49101 -2.243641,-4.90058 -1.239908,0.53139 -1.948426,2.83407 -1.948426,3.36546 z"
     fill="#0f141b"
     id="path3132"
     style="stroke-width:0.36902" />
  <path
     d="m 36.3146,114.1512 c 0.531389,-0.23617 1.771296,3.48355 1.712253,3.66068 -0.05904,0.17713 -2.715987,-0.64948 -2.834074,-1.12182 -0.177129,-0.47235 0.590432,-2.30269 1.121821,-2.53886 z"
     fill="#ffffff"
     id="path3136"
     style="stroke-width:0.36902" />
  <path
     d="m 68.1976,141.0812 c -0.05904,0.64948 1.830339,3.42451 2.715987,3.42451 1.003735,-0.059 1.712253,-3.18834 1.594167,-3.66068 -0.236173,-0.88565 -1.417037,-2.30269 -2.302685,-2.24364 -0.649475,0.059 -1.889383,1.41703 -2.007469,2.47981 z"
     fill="#0f141b"
     id="path3140"
     style="stroke-width:0.36902" />
  <path
     d="m 69.0246,141.1912 c 0,-0.59043 0.531389,-1.65321 1.121821,-1.83034 0.590432,-0.17713 1.712253,1.29895 1.771296,1.71225 0,0.41331 -0.649475,2.30269 -0.944691,2.42077 -0.295216,0.11809 -2.007469,-1.6532 -1.948426,-2.30268 z"
     fill="#ffffff"
     id="path3144"
     style="stroke-width:0.36902" />
  <path
     d="m 76.0506,137.8312 c -0.590432,0.059 -2.007469,2.5979 -1.948426,3.24738 0.118087,0.94469 3.12929,3.0112 3.837808,2.71598 1.062778,-0.35426 1.003735,-2.71598 1.062778,-3.71972 0.05904,-0.94469 -2.420771,-2.24364 -2.95216,-2.24364 z"
     fill="#0f141b"
     id="path3148"
     style="stroke-width:0.36902" />
  <path
     d="m 76.2866,138.6512 c 0.295216,-0.059 1.889382,0.94469 1.948426,1.35799 0.05904,0.35426 -0.236173,2.71599 -0.531389,2.89312 -0.295216,0.17713 -2.775031,-1.65321 -2.775031,-2.12555 0,-0.53139 1.062778,-2.06652 1.357994,-2.12556 z"
     fill="#ffffff"
     id="path3152"
     style="stroke-width:0.36902" />
  <path
     d="m 81.3046,136.0012 c -0.590432,0.23617 -1.594166,2.12556 -1.712253,3.0112 -0.177129,0.88565 -0.05904,1.06278 0.590432,1.358 0.708519,0.29521 3.955895,1.29895 4.192067,0.94469 0.767562,-1.06278 -1.771296,-5.84528 -3.070246,-5.31389 z"
     fill="#0f141b"
     id="path3156"
     style="stroke-width:0.36902" />
  <path
     d="m 81.6006,136.7712 c 1.417037,0.8266 2.243642,3.42451 2.125555,3.77876 -0.118086,0.35426 -3.129289,-0.8266 -3.306419,-1.06277 -0.236173,-0.23618 0.649475,-3.07025 1.180864,-2.71599 z"
     fill="#ffffff"
     id="path3160"
     style="stroke-width:0.36902" />
  <path
     d="m 85.4966,128.0912 c -0.17713,0.64948 -0.118086,3.89685 0.531389,4.07398 0.708518,0.11809 2.77503,-1.7713 3.129289,-2.1846 0.295216,-0.47234 -0.649475,-2.47981 -1.357993,-2.77503 -0.708519,-0.29521 -2.243642,0.70852 -2.302685,0.88565 z"
     fill="#0f141b"
     id="path3164"
     style="stroke-width:0.36902" />
  <path
     d="m 87.5046,127.6712 c 0.295216,0.059 1.062778,1.53512 0.885648,1.83034 -0.17713,0.35426 -1.830339,1.83034 -2.066512,1.83034 -0.531389,0 -0.295216,-2.53886 -0.236173,-2.83408 0.05904,-0.29521 1.062778,-0.94469 1.417037,-0.8266 z"
     fill="#ffffff"
     id="path3168"
     style="stroke-width:0.36902" />
  <path
     d="m 91.1656,130.2712 c -0.295216,0.47235 0.826605,3.83781 1.771296,3.89685 0.885648,0.11809 2.893117,-3.0112 2.893117,-3.4245 0,-0.41331 -1.47608,-2.47982 -2.302685,-2.30269 -0.826605,0.11809 -2.125555,1.47608 -2.361728,1.83034 z"
     fill="#0f141b"
     id="path3172"
     style="stroke-width:0.36902" />
  <path
     d="m 93.5856,128.9712 c 0.295216,0.11809 1.535123,1.12182 1.47608,1.65321 -0.118086,0.53139 -1.771296,2.83407 -2.066512,2.83407 -0.295216,0 -1.357994,-2.47981 -1.121821,-3.0112 0.236173,-0.59043 1.417037,-1.59417 1.712253,-1.47608 z"
     fill="#ffffff"
     id="path3176"
     style="stroke-width:0.36902" />
  <path
     d="m 98.0096,130.6212 c 0,0.76756 1.771296,3.77876 2.65694,2.83407 1.358,-1.53512 0.9447,-5.07771 -0.17713,-5.1958 -1.062773,-0.11808 -2.47981,2.30269 -2.47981,2.36173 z"
     fill="#0f141b"
     id="path3180"
     style="stroke-width:0.36902" />
  <path
     d="m 100.4396,129.0312 c 0.29522,0.29522 0.59043,1.23991 0.59043,1.7713 0,0.17713 -0.29521,1.65321 -0.64947,2.00746 -0.35426,0.29522 -1.535126,-1.88938 -1.653213,-2.24364 0.295216,-0.4133 1.417033,-1.77129 1.712253,-1.53512 z"
     fill="#ffffff"
     id="path3184"
     style="stroke-width:0.36902" />
  <path
     d="m 47.0606,48.0252 c -1.47608,-1.003734 -4.782499,-3.542592 -5.254845,-3.660678 -0.531389,-0.05904 -8.266048,1.357993 -8.797437,1.653209 -0.590432,0.295216 2.066512,1.298951 3.365463,2.066512 -2.893117,-0.944691 -6.435709,-2.420771 -6.908055,-2.302685 -0.472345,0.17713 -6.908054,3.719722 -7.20327,3.837808 -0.295216,0.118087 2.125555,0.944692 3.601635,1.535124 -2.479814,-0.472346 -5.077715,-1.003735 -5.550061,-0.944692 -0.472345,0.118087 -6.967097,5.077716 -6.967097,5.431975 0.05904,0.295216 4.014937,1.062777 5.609104,1.712253 -2.715987,0.177129 -7.970832,0.649475 -8.9745666,1.003734 -1.3579936,0.531389 -4.7824992,6.022406 -4.723456,6.199536 0.1180864,0.236173 3.247376,-0.17713 5.4319746,-0.354259 -2.6569442,0.944691 -6.3766658,2.007469 -6.7899682,2.361728 -0.4133024,0.354259 -4.0149376,6.908054 -3.8968512,7.144227 0.1180864,0.236173 4.6644128,-1.830339 6.6718816,-2.420771 -2.1255552,1.417037 -5.3729312,3.601635 -5.609104,3.896851 -0.2361728,0.295216 -0.6494752,5.491018 -0.295216,5.609104 0.295216,0.118086 8.4431776,-7.675616 10.1554308,-8.85648 -1.0037348,2.066512 -3.6016356,6.612838 -3.6016356,6.849011 0,0.236173 8.0298756,-1.29895 8.3250916,-1.47608 0.295216,-0.118086 1.239907,-3.306419 2.125555,-5.72719 -0.05904,0.885648 -0.05904,4.664413 0.05904,4.841542 0.118086,0.236173 10.627776,-2.656944 10.863949,-3.070246 0.177129,-0.354259 -0.118087,-4.546327 0.944691,-7.026141 0,1.771296 -0.17713,5.90432 0,6.258579 0.17713,0.413303 10.037344,-0.885648 10.450646,-1.003734 0.472346,-0.118087 0.472346,-0.354259 0.472346,-1.062778 0,-0.708518 -0.295216,-3.542592 -0.472346,-5.72719 0.826605,2.479814 1.83034,5.195801 2.125556,5.668147 0.295216,0.472346 16.295923,-0.767562 21.019379,0.944691 l 0.118086,0.05904 0.118087,-0.05904 C 67.843806,69.635011 77.822107,57.354026 78.23541,56.88168 l 0.295216,-0.413302 -23.676324,-8.85648 -10.037344,-4.546327 c 0,0 1.594167,3.542592 2.243642,4.959629 z"
     fill="#0f141b"
     id="path3188"
     style="stroke-width:0.36902" />
  <path
     d="m 48.2996,48.9102 c 0,0 -1.47608,-3.12929 -2.007469,-4.369197 1.417037,0.649475 8.266048,3.778765 8.266048,3.778765 0,0 21.845984,8.147962 22.790675,8.502221 -1.771296,2.066512 -10.214473,12.162899 -14.052281,13.875152 -4.664413,-1.594167 -18.657651,-1.062778 -20.84225,-0.944691 -0.177129,-0.531389 -2.184598,-6.789968 -2.656944,-8.266048 -0.472345,-1.47608 -0.885648,-1.535124 -0.708518,0.177129 0.177129,1.65321 0.590432,6.376666 0.649475,9.210739 -2.125555,0.17713 -7.852746,0.767562 -9.387869,0.885648 0,-0.708518 0.354259,-5.90432 0,-7.793702 -0.354259,-1.830339 -2.479814,7.498486 -2.479814,8.738394 -1.298951,0.354259 -6.849011,1.771296 -9.446912,2.656944 0,-0.295216 -0.05904,-0.649476 -0.05904,-1.003735 0,-2.302685 0.413302,-3.011203 0.413302,-5.491017 0.05904,-2.479815 -0.05904,-2.184599 -0.708518,-0.17713 -0.590432,2.007469 -2.834074,7.616573 -2.95216,7.970832 -0.35426,0.05904 -5.2548452,0.944691 -6.4357092,1.121821 0.8266048,-1.594167 2.9521602,-5.550061 3.3654622,-6.612839 0,0 2.184599,-2.125555 -0.472345,-0.472345 -2.6569444,1.653209 -4.5463268,3.424505 -8.0889188,6.730925 -0.8266048,0.708518 -1.47608,1.357993 -2.0074688,1.830339 0.059043,-1.417037 0.2361728,-3.247376 0.295216,-3.837808 0.295216,-0.17713 7.2623136,-4.841543 7.2623136,-4.841543 0,0 2.125555,-1.180864 -0.3542592,-0.649475 C 6.2608416,70.460968 3.7810272,71.287573 1.360256,72.291307 2.1868608,70.638098 4.0172,67.744981 4.3714592,67.213592 4.607632,67.095506 11.57473,64.615691 13.405069,64.025259 c 1.889382,-0.590432 2.243641,-0.767561 -0.118087,-0.708518 -2.361728,0.05904 -5.5500604,0.354259 -6.6718812,0.472345 1.1218208,-1.889382 2.8340736,-4.42824 3.6016352,-4.723456 1.003734,-0.413302 9.03361,-0.944691 10.33256,-1.12182 1.29895,-0.118087 1.830339,0 0.118086,-0.708519 -1.712252,-0.649475 -3.896851,-1.594166 -5.845276,-2.125555 1.535123,-1.29895 5.077715,-3.719722 5.786233,-4.192067 0.295216,0.05904 6.494752,1.357993 8.325091,1.594166 1.889383,0.236173 2.184599,0.236173 0.236173,-0.708518 -1.948425,-0.944691 -4.133024,-1.771296 -5.254845,-2.243642 1.062778,-0.590432 5.372932,-2.834073 5.609104,-2.95216 0.295216,0.05904 9.624042,3.12929 9.624042,3.12929 0,0 3.955894,1.357993 0.354259,-0.649475 -3.660678,-2.007469 -3.365462,-2.007469 -4.487283,-2.715988 1.417037,-0.236172 6.317622,-1.180864 6.612838,-1.239907 0.236173,0.17713 7.203271,5.018672 7.203271,5.018672 z"
     fill="#00a63c"
     id="path3192"
     style="stroke-width:0.36902" />
  <path
     d="m 54.5586,48.3202 c 0,0 -6.849011,-3.12929 -8.266048,-3.778765 0.531389,1.239907 2.007469,4.369197 2.007469,4.369197 l 0.531389,1.239907 c 0,0 -2.479815,-1.712253 -4.546327,-3.188333 2.479815,2.775031 4.664413,5.550061 4.664413,8.85648 7.439443,2.302685 8.738394,8.088919 8.443178,13.934196 2.420771,0.177129 4.546326,0.472345 5.90432,0.944691 C 67.134802,68.98532 75.577979,58.888933 77.349275,56.822421 76.404584,56.468162 54.5586,48.3202 54.5586,48.3202 Z"
     fill="#009233"
     id="path3196"
     style="stroke-width:0.36902" />
  <path
     d="m 125.3496,30.4892 h -0.059 c -1.12182,0.590432 -4.01494,2.893117 -5.66815,4.310154 0.59043,-1.239908 1.41704,-3.837808 1.29895,-4.014938 -0.17713,-0.17713 -5.90432,0.05904 -6.19954,0.17713 -0.35426,0.118086 -2.77503,3.129289 -4.25111,4.723456 0.59044,-1.47608 2.12556,-4.546327 2.06652,-4.723456 -0.059,-0.17713 -5.19581,0.590432 -5.55007,0.826604 -0.4133,0.236173 -2.36172,3.483549 -3.8378,5.609104 0.64947,-1.771296 2.5979,-5.136758 2.5979,-5.491017 -0.059,-0.354259 -7.911791,2.007469 -8.384137,2.302685 -0.413302,0.295216 -1.417037,3.306419 -2.893117,6.317622 0.472346,-1.65321 2.125556,-5.72719 1.83034,-6.022406 -0.295216,-0.295216 -11.159165,5.491017 -13.28472,7.616572 l -0.05904,0.05904 -7.20327,17.53583 18.539565,6.258579 c 0,0 9.860209,-3.070246 10.096379,-3.247376 0.17713,-0.177129 -3.8378,-4.546326 -4.31015,-5.609104 2.30269,1.062778 5.43197,4.60537 5.72719,4.723456 0.29522,0.17713 4.7825,-2.834073 4.90059,-3.070246 0.059,-0.17713 -3.01121,-3.424506 -3.77877,-4.487283 1.59417,0.708518 4.31016,3.837808 4.66441,3.896851 0.29522,0.05904 3.01121,-0.885648 3.18834,-1.121821 0.17713,-0.236173 -5.49102,-6.317622 -7.49849,-8.029875 3.54259,1.121821 10.09639,6.081449 10.45065,6.081449 0.29521,-0.05904 7.49848,-3.070246 7.61657,-3.424505 0.11809,-0.354259 -4.7825,-3.660679 -6.78997,-5.018672 3.07025,1.062777 9.09265,5.254845 9.44691,5.372931 0.35426,0.05904 7.14423,-5.254845 7.08519,-5.431974 -0.0591,-0.17713 -4.66441,-2.007469 -7.20327,-3.070247 2.95216,0.413303 8.08892,1.417037 8.38413,1.239907 0.35426,-0.118086 4.7825,-4.42824 4.66441,-4.605369 -0.11808,-0.236173 -3.71972,-0.295216 -6.90805,-0.17713 2.36173,-0.944691 7.85275,-2.77503 7.73466,-3.070246 -0.059,-0.236173 -5.96336,-3.306419 -6.37667,-3.306419 -0.47234,0.05904 -3.60163,1.948425 -5.43197,2.834073 1.18086,-1.357993 3.42451,-3.837808 3.42451,-4.073981 0,-0.177129 -6.31763,-1.889382 -7.97084,-1.889382 z"
     fill="#0f141b"
     id="path3200"
     style="stroke-width:0.36902" />
  <path
     d="m 125.5296,31.1382 c 1.35799,0.05904 5.37293,1.180864 6.73092,1.594166 -0.53138,0.649476 -2.95216,3.896852 -3.8378,4.60537 -0.88565,0.708518 -1.18087,1.121821 0.35426,0.472346 1.59416,-0.590432 6.31762,-3.30642 6.61283,-3.424506 0.23618,0.118086 3.83781,1.948426 4.84155,2.479814 -1.18087,0.472346 -6.43571,2.597901 -7.97084,2.95216 -1.59416,0.413303 -2.95216,0.531389 -1.12182,0.649476 1.88939,0.118086 6.90806,0.177129 8.3251,0.236172 -0.76757,0.767562 -3.12929,3.12929 -3.36547,3.188333 -0.23617,0.05904 -7.61657,-1.003734 -10.62777,-1.357993 -3.01121,-0.413303 -0.17713,0.590432 -0.17713,0.590432 0,0 8.26605,3.424505 8.44317,3.601635 0.17713,0.236173 -5.55006,4.369197 -5.72719,4.310153 -0.11808,-0.118086 -9.80117,-5.313888 -11.2182,-5.491017 -1.358,-0.118087 -1.7713,-0.236173 -0.17713,0.590432 1.59416,0.885648 7.32135,4.900585 7.3804,5.254845 0.059,0.295216 -5.25485,2.479814 -6.19954,2.95216 -1.23991,-0.885648 -7.91179,-5.786234 -11.63151,-6.317623 -3.66068,-0.472345 -1.06278,0.236173 -0.29522,0.708519 0.70852,0.472345 5.49102,4.900585 7.79371,7.852745 -0.76756,0.17713 -1.59417,0.590432 -1.94843,0.767562 -0.70852,-0.826605 -4.19207,-3.306419 -5.49102,-3.955895 -1.29895,-0.590432 -0.8266,-0.236172 -0.35426,0.472346 0.47235,0.708518 2.95216,3.778765 3.83781,4.782499 -0.53139,0.295216 -3.4245,2.125555 -3.77876,2.361728 -0.82661,-0.826605 -4.31016,-3.778765 -6.258582,-4.723456 -1.29895,-0.590432 -0.944691,-0.295216 -0.472345,0.649475 0.413302,0.885648 2.775027,4.073981 4.014937,5.491018 -0.88565,0.236173 -8.67935,2.77503 -8.915523,2.834074 -0.177129,-0.05904 -17.063485,-5.727191 -17.653917,-5.963364 0.236173,-0.590432 6.849012,-16.650182 6.908055,-16.768268 1.771296,-1.712253 9.328825,-5.609104 11.690553,-6.789968 -0.590432,1.889382 -1.594166,5.90432 -2.066512,7.262313 -0.472345,1.357994 -0.590432,2.243642 0.649476,0.17713 1.239907,-2.125555 3.719721,-7.734659 4.07398,-8.561264 2.125558,-0.649475 5.136758,-1.535123 6.494748,-1.889383 -1.12182,2.066512 -2.00746,4.7825 -2.65694,6.789968 -0.70852,2.007469 -0.8266,2.479815 0.53139,0.295216 1.41704,-2.184598 4.90058,-7.20327 5.07771,-7.439443 0.59044,-0.05904 3.01121,-0.413302 4.42824,-0.590432 -1.29895,1.771296 -1.94842,3.719722 -2.53885,5.313888 -0.53139,1.594167 -0.35426,1.417037 0.59043,0.354259 0.88565,-1.062777 5.01867,-5.668147 5.1958,-5.845276 0.64948,-0.05904 3.66068,-0.118087 5.25485,-0.17713 -0.17713,0.885648 -1.41704,2.95216 -2.00747,4.487283 -0.64948,1.594167 -0.76757,1.417037 0.47234,0.413303 1.29895,-1.003735 5.13676,-4.369197 6.78997,-5.195802 z"
     fill="#00a63c"
     id="path3204"
     style="stroke-width:0.36902" />
  <path
     d="m 87.9176,39.6412 c -1.948426,1.121821 -3.660678,2.184598 -4.369197,2.893117 -0.05904,0.118086 -6.671881,16.177837 -6.908054,16.768269 0.590432,0.236172 17.476787,5.90432 17.653917,5.963363 0.236172,-0.05904 8.029874,-2.597901 8.915524,-2.834074 -1.23991,-1.417037 -3.601636,-4.605369 -4.014939,-5.491017 -0.472345,-0.944692 -0.826605,-1.239908 0.472346,-0.649476 1.948423,0.944692 5.431973,3.896852 6.258583,4.723456 0.35426,-0.236172 3.24737,-2.066512 3.77876,-2.361728 -0.88565,-1.003734 -3.36546,-4.07398 -3.83781,-4.782499 -0.47234,-0.708518 -0.94469,-1.062777 0.35426,-0.472345 1.29895,0.649475 4.7825,3.129289 5.49102,3.955894 0.23617,-0.118086 0.64947,-0.295216 1.12182,-0.472346 C 106.75238,52.394531 105.2763,47.848205 92.16871,47.493946 91.460192,45.663606 89.806982,42.59336 87.9176,39.6412 Z"
     fill="#009233"
     id="path3208"
     style="stroke-width:0.36902" />
  <path
     d="m 47.3556,53.1022 c 1.239907,0.472346 7.026141,2.184598 8.088918,2.538858 -0.826604,0.590432 -4.487283,3.424505 -5.018672,3.837808 -0.590432,0.413302 8.384135,0.472345 9.328826,0.472345 -0.413302,0.708519 -2.893117,3.247376 -3.306419,3.778765 -0.413303,0.590432 14.465584,-3.955894 14.465584,-3.955894 L 59.754672,53.1022 c 0,0 -10.391603,-0.826605 -12.280986,-0.649475 -1.889382,0.177129 -1.357993,0.177129 -0.118086,0.649475 z"
     fill="#0f141b"
     id="path3212"
     style="stroke-width:0.36902" />
  <path
     d="m 56.3296,55.7592 c 0.708518,-0.472346 1.003734,-0.354259 0,-0.826605 -1.003734,-0.472345 -6.258579,-1.47608 -6.317622,-1.712253 0,-0.177129 9.446912,0.531389 9.564998,0.531389 0.118086,0.05904 8.502221,5.136759 9.683085,5.786234 -1.239907,0.354259 -9.624042,2.95216 -10.037344,2.656944 -0.413303,-0.236173 1.830339,-2.479815 1.653209,-2.834074 -0.236172,-0.354259 -8.443177,-0.295216 -8.67935,-0.472345 -0.17713,-0.118087 3.424506,-2.656944 4.133024,-3.12929 z"
     fill="#00a63c"
     id="path3216"
     style="stroke-width:0.36902" />
  <path
     d="m 69.9096,1.1449 c -1.121821,1.6532096 -4.073981,7.675616 -4.073981,7.675616 l 5.668147,10.391603 0.295216,-0.118086 c 0.05904,0 4.42824,-1.298951 9.860215,-4.310154 l 0.354259,-0.236173 -0.236173,-0.354259 C 78.825123,10.591812 80.24216,5.277924 80.714506,4.3332328 81.186851,3.3885416 80.596419,3.211412 79.710771,3.506628 c -0.885648,0.295216 -2.125555,1.8303392 -3.129289,2.7159872 0,-0.9446912 0.354259,-2.2436416 0.531388,-2.95216 0.236173,-0.7085184 0.885648,-2.0074688 -1.417036,-1.1218208 -1.712253,0.7085184 -3.188333,1.8303392 -4.073981,2.361728 -0.118087,-0.7675616 0,-2.4207712 0.118086,-3.3064192 C 71.917069,-0.33118 71.090464,-0.4492664 69.9096,1.1449 Z"
     fill="#0f141b"
     id="path3220"
     style="stroke-width:0.36902" />
  <path
     d="m 70.5596,2.3257 c 0,0.6494752 -0.118086,2.4798144 0.118086,3.0702464 0.236173,0.6494752 0.118087,0.7675616 0.885648,0.059043 0.767562,-0.7085184 4.60537,-2.7750304 4.487284,-2.361728 -0.05904,0.4723456 -0.472346,2.8931168 -0.472346,3.7197216 0,0.8266048 0.236173,1.2399072 0.885648,0.5313888 0.649475,-0.7675616 3.306419,-3.0112032 3.070246,-2.5979008 -0.177129,0.3542592 -0.413302,2.066512 -0.413302,3.4835488 0,1.9484262 0.413302,4.1920672 1.830339,6.0814502 -4.42824,2.420771 -8.088918,3.719721 -9.092653,4.014937 C 71.622378,17.854062 66.839878,9.1747112 66.662749,8.820452 66.839878,8.525236 70.500557,1.6171816 70.5596,2.3257 Z"
     fill="#c94772"
     id="path3224"
     style="stroke-width:0.36902" />
  <path
     d="m 66.6036,8.4072 c -3.306419,1.0627776 -20.901293,21.137466 -19.956602,31.233853 0.885648,10.037344 5.609104,12.162899 10.155431,14.170368 l 1.239907,0.590432 c 0.472346,0.177129 0.944691,0.177129 1.417037,-0.05904 2.77503,-1.417037 4.841542,-11.80864 6.789968,-21.905028 1.062777,-5.491017 2.125555,-10.745862 3.070246,-12.871417 0.649475,-1.47608 0.885648,-2.893117 0.885648,-4.133024 0,-4.073981 -2.597901,-6.730925 -2.715987,-6.8490114 C 67.371162,8.4662432 67.134989,8.2300704 66.6036,8.4072 Z"
     fill="#0f141b"
     id="path3228"
     style="stroke-width:0.36902" />
  <path
     d="m 58.3966,53.7522 -1.29895,-0.590432 c -4.369197,-1.948426 -8.915524,-3.955894 -9.742128,-13.579936 0,-0.236173 -0.05904,-0.472346 -0.05904,-0.708518 0,-7.970832 10.450647,-21.432682 16.23688,-27.159872 2.125556,-2.0665124 3.12929,-2.5979012 3.424506,-2.6569444 0.118086,0.1771296 2.538858,2.5388574 2.538858,6.3176224 0,1.180864 -0.236173,2.479814 -0.885648,3.896851 -0.944692,2.184599 -1.948426,7.262314 -3.070247,13.048547 -1.771296,8.974567 -3.955894,20.133732 -6.435709,21.373639 -0.236172,0.177129 -0.472345,0.177129 -0.708518,0.05904 z"
     fill="#0f141b"
     id="path3232"
     style="stroke-width:0.36902" />
  <path
     d="m 61.5846,2.5619 c 0.531389,0.7085184 0.531389,1.180864 0.531389,2.4798144 0,1.771296 -1.535123,4.3691968 -5.254845,6.6718816 -2.243642,1.357994 -17.831046,11.572467 -16.41401,24.030582 0.649476,5.845277 5.372932,13.993239 15.646448,18.303392 0.885648,1.003735 6.849012,3.955895 12.930461,4.487284 5.254845,0.413302 12.694288,-0.885648 17.831047,-6.376666 9.210739,-9.801171 9.269782,-20.192774 1.712252,-30.82055 -5.077715,-7.203271 -4.900585,-8.443178 -2.834073,-13.2256772 0.590432,-1.2989504 -0.413303,-0.885648 -1.65321,0 C 82.840152,8.9385656 82.308763,9.2337816 81.068856,11.005078 81.186942,8.9385656 81.600245,8.1119608 82.07259,7.1672696 82.485893,6.1635352 81.068856,6.3406648 79.887992,7.4034424 78.648085,8.46622 77.172005,10.532732 76.581573,12.067855 76.16827,10.650818 75.991141,9.9423 76.050184,8.8204792 76.109227,7.6396152 75.577838,7.6396152 74.751234,8.9976088 73.924629,10.296559 73.098024,11.713596 72.448549,13.543935 72.035246,12.599244 71.799074,12.067855 70.322994,9.7651704 68.846914,7.4624856 69.555432,9.056652 68.905957,10.473689 68.492654,7.875788 67.843179,4.4512824 67.075618,3.6837208 66.367099,2.9161592 66.01284,5.218844 65.83571,5.809276 65.127192,4.628412 64.71389,2.9752024 62.647378,2.0305112 61.348427,1.4991224 61.053211,1.8533816 61.5846,2.5619 Z"
     fill="#0f141b"
     id="path3236"
     style="stroke-width:0.36902" />
  <path
     d="m 41.8056,34.6812 v -0.118086 c 0,-10.568733 11.690554,-19.838516 16.177837,-22.49546 3.955894,-2.3026844 4.959629,-4.7824988 5.195801,-6.1995356 0.236173,-1.47608 -0.118086,-2.7159872 0.295216,-2.2436416 0.35426,0.4133024 1.121821,1.3579936 1.65321,2.3026848 0.590432,0.9446912 0.649475,2.4798144 0.885648,1.771296 0.236173,-0.6494752 0.354259,-2.8340736 0.767562,-2.4207712 0.354259,0.3542592 0.767561,1.4170368 1.357993,4.133024 0.05904,0.2361765 0.05904,0.5313888 0.05904,0.7675616 0,3.896851 -7.675616,9.860214 -11.45438,13.579936 -6.317623,6.199536 -7.675616,11.867683 -7.616573,16.41401 0.118086,7.262313 3.424505,10.391603 4.42824,11.45438 C 45.820538,46.548883 41.864643,40.821693 41.8056,34.6812 Z"
     fill="#e85382"
     id="path3240"
     style="stroke-width:0.36902" />
  <path
     d="m 51.3116,46.2542 c -0.531389,-1.357994 -1.003734,-3.247376 -0.944691,-5.431974 0.236173,-6.140493 2.77503,-11.395338 6.376665,-15.351232 3.601636,-3.896852 10.450647,-8.974567 11.926727,-14.170368 0.05904,0.236172 0.826605,3.483548 -4.42824,9.092652 -4.369197,4.60537 -12.103856,11.395338 -12.103856,21.196509 0,3.011203 1.535123,7.203271 2.834073,10.33256 C 53.673328,50.977656 52.61055,49.265403 51.3116,46.2542 Z"
     fill="#c94772"
     id="path3244"
     style="stroke-width:0.36902" />
  <path
     d="m 77.0536,13.1892 c 0.236173,-0.767562 1.771296,-3.9558944 3.306419,-5.2548448 0.236173,-0.1771296 0.472346,-0.3542592 0.649475,-0.4723456 -0.413302,1.0037344 -0.708518,3.0112034 -0.708518,4.4282404 0,1.357993 0.295216,0.944691 0.649475,0.236172 0.295216,-0.708518 2.95216,-3.0112028 2.775031,-2.3617276 -0.17713,0.5904316 -0.472346,2.0665116 -0.472346,2.9521596 0,2.125556 1.062778,4.369197 4.369197,8.974567 2.77503,3.896851 4.605369,9.033609 4.605369,14.406541 0,5.254844 -1.771296,10.745862 -6.199536,15.469318 -4.959628,5.254845 -12.044812,5.90432 -17.181571,5.431974 -6.671881,-0.531388 -11.867683,-2.893116 -12.221942,-3.483548 h -0.05904 l 0.118086,0.05904 -0.531389,-0.944691 c -2.007469,-3.719722 -2.834073,-7.203271 -2.834073,-10.450647 0,-9.505955 8.029875,-16.768269 12.340028,-21.196509 1.239908,-1.29895 5.491018,-7.557529 4.251111,-9.860214 0.885648,0.826605 1.29895,2.184598 2.420771,3.483549 1.180864,1.357993 0.944691,0.531389 1.003734,-0.472346 0.05904,-1.003734 1.121821,-2.95216 2.125556,-4.3101534 0.05904,1.0627774 0.354259,2.5388574 0.885648,3.5425924 0.590432,0.944691 0.413302,0.531388 0.708518,-0.17713 z"
     fill="#e85382"
     id="path3248"
     style="stroke-width:0.36902" />
  <path
     d="M 53.5546,51.6262 C 52.905125,50.917682 51.251915,49.323515 50.189138,46.312312 48.831144,46.017096 47.47315,45.72188 46.115157,45.249534 48.004539,47.493176 50.484354,49.618731 53.5546,51.6262 Z"
     fill="#c94772"
     id="path3252"
     style="stroke-width:0.36902" />
  <path
     d="m 53.9686,47.2572 c 0.472346,1.771296 1.180864,3.542592 2.184598,5.372931 l 0.531389,0.944691 -0.118086,-0.05904 h 0.05904 c 0.354259,0.590432 5.550061,2.95216 12.221942,3.483549 5.136759,0.472346 12.221943,-0.17713 17.181572,-5.431974 4.42824,-4.723456 6.199536,-10.214474 6.199536,-15.469319 0,-1.771296 -0.236173,-3.483549 -0.590432,-5.136758 C 87.682267,45.78112 69.083659,51.449267 53.9686,47.2572 Z"
     fill="#c94772"
     id="path3256"
     style="stroke-width:0.36902" />
  <path
     d="m 107.1096,102.1112 c 2.06651,-4.782499 3.07025,-12.930461 2.30268,-16.709226 2.30269,-8.797436 3.18834,-17.240614 2.42078,-17.772003 -0.76757,-0.531389 -10.74587,-3.542592 -20.487994,0.118087 -4.7825,-3.778765 -10.50969,-5.609104 -18.421479,-4.664413 -3.660678,0.413302 -9.624041,3.365462 -10.273517,3.896851 -1.712252,-0.295216 -11.395337,-0.944691 -13.10759,0.354259 -0.767562,1.594167 0.649475,10.450647 1.29895,12.044813 -0.177133,1.417037 1.180864,3.424506 1.180864,3.424506 0,0 -2.361728,6.376665 -1.712252,9.505955 -1.121821,1.239907 -2.302685,3.483549 -0.472346,5.963363 0.649475,2.834078 2.77503,9.624038 12.812374,14.996968 11.513424,6.19954 26.56944,4.48729 32.82802,0.41331 6.25858,-4.07398 9.62404,-6.84901 11.63151,-11.57247 z"
     fill="#5dc1cf"
     id="path3260"
     style="stroke-width:0.36902" />
  <path
     d="m 58.2786,71.0522 c 8.384134,-3.011203 14.347498,3.365462 17.181571,6.967098 4.133024,-4.723456 7.734659,-8.738394 13.166634,-12.1629 -4.192067,-2.479814 -9.269783,-3.542592 -15.705491,-2.77503 -3.660679,0.413302 -9.624042,3.365462 -10.273517,3.896851 -1.003735,-0.177129 -4.782499,-0.472345 -8.088919,-0.413302 1.83034,0.177129 3.542592,2.184598 3.719722,4.487283 z"
     fill="#50a8b4"
     id="path3264"
     style="stroke-width:0.36902" />
  <path
     d="m 51.2526,99.7512 c 0.118086,1.88938 2.302685,5.13676 3.12929,5.01867 0.590432,-0.11808 0.944691,-1.59416 1.239907,-2.5979 0.177129,-0.4133 0.354259,-1.71225 0.354259,-1.71225 C 54.913278,99.692157 51.193557,99.515027 51.2526,99.7512 Z"
     fill="#0f141b"
     id="path3268"
     style="stroke-width:0.36902" />
  <path
     d="m 55.3856,100.7512 c -0.17713,0.23617 -0.295216,0.64948 -0.472346,1.23991 -0.177129,0.53139 -0.531388,1.53512 -0.767561,1.53512 -0.17713,0 -0.885648,-0.70852 -1.594167,-1.88938 -0.531388,-0.94469 -0.767561,-1.653212 -0.767561,-1.889384 v -0.05904 c 0.354259,-0.236172 2.420771,0.295216 3.601635,1.062774 z"
     fill="#ffffff"
     id="path3272"
     style="stroke-width:0.36902" />
  <path
     d="m 111.8296,67.6272 c -0.23617,-0.17713 -5.49102,1.003734 -11.39534,5.195802 -1.830337,1.29895 -2.184596,0.472345 0.29522,5.018672 9.26978,16.886355 2.77503,31.647156 -5.254846,35.839226 3.542592,-0.88565 9.624046,-6.84902 11.631506,-11.57247 2.06652,-4.7825 3.07025,-12.930462 2.30269,-16.709227 2.30268,-8.797437 3.18833,-17.240614 2.42077,-17.772003 z"
     fill="#50a8b4"
     id="path3276"
     style="stroke-width:0.36902" />
  <path
     d="m 92.8186,103.7612 -0.354259,0.4133 c 0.472345,0.70852 1.121821,1.94843 1.653209,2.71599 0.531389,0.76756 0.826605,1.12182 1.594167,0.35426 0.708518,-0.76756 0.649475,-0.59043 2.834073,-3.9559 0,0 -4.369196,0.11809 -5.72719,0.47235 z"
     fill="#0f141b"
     id="path3280"
     style="stroke-width:0.36902" />
  <path
     d="m 97.4796,103.5812 c -1.594166,2.42077 -2.243642,3.30642 -2.420771,3.24738 -0.236173,-0.11809 -1.357994,-1.94843 -1.771296,-2.5979 1.180864,-0.29522 3.070246,-0.70852 4.192067,-0.64948 z"
     fill="#ffffff"
     id="path3284"
     style="stroke-width:0.36902" />
  <path
     d="m 112.5996,66.7412 c -1.00373,-0.708518 -11.45438,-3.12929 -21.137466,0.413302 -5.136758,-4.014937 -11.100121,-5.313888 -18.598608,-4.42824 -3.483548,0.413303 -9.151696,3.070247 -10.33256,3.896852 -1.889382,-0.35426 -11.100121,-1.771296 -13.520892,-0.236173 -0.885648,0.590432 -1.062778,6.022406 1.417036,12.694288 -0.767561,1.003734 -0.590432,3.306419 0.35426,4.782499 -1.357994,3.483549 -1.298951,8.029875 -1.298951,8.325091 -1.830339,2.066512 -2.007469,5.550061 0.177126,6.730925 1.47608,6.199536 5.727191,11.218206 12.812375,15.056016 9.919257,5.31389 21.491724,5.25484 33.241321,-0.23617 2.656944,-1.23991 1.594167,-1.29895 -0.236173,-0.64948 -12.221942,4.66441 -22.672588,5.1958 -32.650889,-0.11808 -6.435709,-3.48355 -10.568733,-7.97084 -12.221943,-13.402811 0.354263,0.236173 0.944692,0.531391 1.889383,0.649471 1.357993,0.23618 7.557529,1.83034 11.395337,4.72346 1.121821,1.94843 4.42824,5.1958 6.494752,4.95963 1.535124,-0.11809 6.730925,-2.77503 6.730925,-2.77503 5.90432,-1.59417 13.638979,-2.47982 18.008176,-3.0112 1.889383,-0.23618 3.365463,-0.35426 3.719722,-0.47235 2.066509,-0.53139 2.361729,-1.18086 2.834069,-1.83034 0.47235,-0.70852 0.0591,-1.00373 -0.53138,-0.53139 -0.59044,0.47235 -1.417041,1.41704 -2.834078,1.53513 -1.417037,0.11808 -2.538858,0.35425 -4.192067,0.53138 -4.42824,0.53139 -11.749597,1.59417 -17.71296,3.12929 0,0 -4.723456,2.12556 -6.140493,2.30269 -1.65321,0.11808 -4.723456,-2.30269 -5.786234,-4.25111 l -0.05905,-0.11809 h -0.05904 c -4.014937,-3.07024 -10.804905,-5.136757 -12.221942,-5.37293 -2.775031,-0.413302 -3.837808,-3.955894 -1.771296,-6.435708 0,0 -0.236173,-5.668148 1.239907,-8.797437 0,0 -1.239907,-3.424506 -0.472346,-4.369197 1.180864,-1.357994 4.310154,-2.893117 5.136759,-3.12929 1.003734,-0.236172 1.062777,-0.826604 0.05904,-0.826604 -1.003734,0 -1.29895,0.295216 -1.29895,0.295216 -0.295216,-1.948426 -3.365463,-7.439444 -4.369197,-7.3804 -0.118087,0 -0.413303,0.05904 -0.413303,0.531388 -0.118082,1.712253 1.062778,8.738394 1.121821,9.03361 0,0 -0.118086,0.05904 -0.295216,0.236173 -1.830339,-6.199536 -1.948425,-10.214474 -1.417037,-10.686819 1.712253,-1.121821 10.391604,-0.531389 12.221943,-0.17713 0,0 -1.47608,1.239907 -2.184599,2.007469 -0.708518,0.826605 -0.708518,1.357993 1.003735,0.118086 1.771296,-1.239907 6.967097,-4.546326 12.340029,-5.313888 7.3804,-1.062777 13.048547,-0.118086 18.067219,3.896851 l 0.177129,0.118087 0.17713,-0.05904 c 9.683086,-3.660679 19.425216,-0.590432 20.133736,-0.17713 0.47234,0.826605 0.17713,7.144227 -2.30269,16.827312 0,0 -0.23617,-0.354259 -0.70851,-0.708518 -0.47235,-0.413303 -0.70852,-0.17713 -0.41331,0.531388 0.29522,0.649476 1.06278,4.251111 0.94469,7.144228 -0.11808,5.195801 -2.06651,9.860213 -5.49101,16.354963 5.37293,-4.72346 8.08891,-14.406538 6.19953,-22.141197 3.36546,-9.03361 3.48355,-18.657651 2.77503,-19.18904 z"
     fill="#0f141b"
     id="path3288"
     style="stroke-width:0.36902" />
  <path
     d="m 50.7796,69.1622 v -0.118086 c 0.767562,0.767561 3.070246,5.195801 3.483549,7.321356 -0.885648,0.236173 -1.830339,0.944692 -2.361728,1.357994 C 51.606205,76.129298 50.7796,70.933496 50.7796,69.1622 Z"
     fill="#431e37"
     id="path3292"
     style="stroke-width:0.36902" />
  <path
     d="m 52.7286,81.9152 c -0.236173,0.236173 0,0.767562 0.649475,1.239907 -1.29895,0.944691 -2.656944,5.431975 -1.889382,9.624042 0,0 -0.472346,0.177129 -0.354259,0.590432 0.05904,0.354259 0.531388,0.531389 0.531388,0.531389 2.066512,1.712252 8.029876,5.55006 10.863949,4.841542 0,0 0.118087,0.531389 0.531389,0.531389 0.413302,0.05904 0.236173,-0.649475 -0.118086,-1.830339 C 61.76221,93.428624 57.629186,84.808317 54.736069,82.564675 54.440853,82.328502 52.964773,81.679027 52.7286,81.9152 Z"
     fill="#0f141b"
     id="path3296"
     style="stroke-width:0.36902" />
  <path
     d="m 52.0196,91.0082 c 0,-3.778765 1.47608,-7.144227 2.066512,-7.498486 1.771296,0.531388 6.376666,9.505955 7.852746,14.58367 -2.420772,0.17713 -7.498487,-2.834074 -9.683085,-4.664413 C 52.078643,92.602366 52.0196,91.834805 52.0196,91.0082 Z"
     fill="#ffffff"
     id="path3300"
     style="stroke-width:0.36902" />
  <path
     d="m 56.5656,85.9302 c -2.715987,3.306419 -1.948426,6.967098 -0.590432,10.686819 l 0.05904,0.118087 0.05904,0.05904 c 2.420772,1.712253 6.671882,1.830339 6.671882,1.830339 L 62.70609,98.329269 C 61.761402,94.96381 59.163501,89.295662 57.037946,85.9302 Z"
     fill="#0f141b"
     id="path3304"
     style="stroke-width:0.36902" />
  <path
     d="m 55.6216,91.7172 c 0,-1.830339 0.413302,-3.601635 1.180864,-5.077715 2.066512,3.306419 4.369197,8.325091 5.254845,11.513424 -1.180864,0.177129 -3.12929,-0.472346 -5.550061,-1.830339 C 55.916816,94.787446 55.6216,93.252323 55.6216,91.7172 Z"
     fill="#91308c"
     id="path3308"
     style="stroke-width:0.36902" />
  <path
     d="m 90.1616,87.2292 c -4.25111,3.955894 -6.612838,7.498486 -7.55753,11.926726 -0.295216,1.357994 1.003735,0.590432 1.003735,0.590432 0,0 1.29895,-0.236172 3.011203,-0.649475 1.712253,-0.354259 11.513424,-2.420771 12.871418,-2.715987 1.417034,-0.295216 1.712254,-0.354259 1.830334,-0.708518 0.11809,-0.35426 -0.94469,-0.413303 -0.94469,-0.413303 0.94469,-2.361728 1.06278,-9.683085 -1.298947,-11.454381 0,0 0.649475,-0.236172 1.062777,-0.413302 0.4133,-0.236173 0.76756,-1.062778 -0.354258,-0.944691 -3.070247,0.472345 -6.317623,1.771296 -9.624042,4.782499 z"
     fill="#0f141b"
     id="path3312"
     style="stroke-width:0.36902" />
  <path
     d="m 90.5746,88.7052 c 2.95216,-2.715987 5.90432,-4.42824 7.616573,-4.782499 1.121821,1.357993 1.653209,5.195801 1.653209,8.266048 0,1.357993 -0.118086,2.538857 -0.354259,3.306419 -2.479814,0.295216 -9.742128,2.007469 -13.757065,2.95216 0,0 -1.239908,0.295216 -1.889383,0.472346 C 84.197934,96.0856 86.618706,92.306835 90.5746,88.7052 Z"
     fill="#ffffff"
     id="path3316"
     style="stroke-width:0.36902" />
  <path
     d="m 93.8816,85.2222 c -4.369197,2.95216 -10.568733,9.328826 -10.686819,14.170368 l -0.05904,0.354259 2.77503,-0.649475 c 2.420771,-0.590432 6.08145,-1.47608 9.151696,-2.125555 h 0.118086 l 0.05904,-0.17713 C 96.4795,92.012168 95.534809,88.115317 94.294901,85.39933 l -0.05904,-0.35426 z"
     fill="#0f141b"
     id="path3320"
     style="stroke-width:0.36902" />
  <path
     d="m 93.8816,85.9302 c 0.590432,2.243642 1.180864,4.900586 1.180864,7.498486 0,1.062778 -0.118086,2.066512 -0.295216,3.070247 -3.011203,0.649475 -6.612838,1.47608 -8.974566,2.066512 0,0 -1.535124,0.354259 -2.066512,0.472345 0.472345,-4.487283 6.022406,-10.214473 10.15543,-13.10759 z"
     fill="#91308c"
     id="path3324"
     style="stroke-width:0.36902" />
  <path
     d="m 110.7096,69.2212 c 0.23617,-0.354259 0.29522,-0.590432 -1.47608,-0.236173 -1.7713,0.413303 -7.85275,5.372931 -8.56126,6.199536 -0.64948,0.826605 -0.29522,1.062778 0.11808,0.826605 0.35426,-0.236173 0.53139,-0.413302 0.53139,-0.413302 2.83407,1.889382 6.19954,5.90432 6.43571,6.553795 0.29522,0.708518 0.29522,0.708518 0.76756,-0.472346 0.4133,-1.121821 2.5979,-10.391603 1.59417,-11.926726 0,0 0.35426,-0.118087 0.59043,-0.531389 z"
     fill="#0f141b"
     id="path3328"
     style="stroke-width:0.36902" />
  <path
     d="m 109.3496,69.9892 c 0.059,0.17713 0.11809,0.295216 0.11809,0.708518 0,2.479815 -0.94469,8.029876 -1.53513,10.627776 -1.00373,-1.653209 -3.24737,-4.546326 -5.66814,-6.258579 1.83034,-1.830339 5.01867,-4.42824 7.08518,-5.077715 z"
     fill="#431e37"
     id="path3332"
     style="stroke-width:0.36902" />
  <path
     d="m 62.5886,85.2222 c 0.708518,1.47608 1.771296,4.310154 2.125555,5.609104 0.354259,1.357994 0.826605,3.247376 0.708519,0.649475 -0.17713,-2.597901 -1.47608,-5.313888 -2.302685,-6.671881 C 62.352427,83.509947 61.998168,84.041336 62.5886,85.2222 Z"
     fill="#0f141b"
     id="path3336"
     style="stroke-width:0.36902" />
  <path
     d="m 82.0726,92.5432 c -0.118086,1.830339 0.354259,1.180864 0.590432,-0.118086 0.826605,-4.369197 2.361728,-7.498487 3.778765,-8.797437 0.531389,-0.472346 0.354259,-0.885648 -0.413303,-0.354259 -3.011203,2.125555 -3.837808,6.022406 -3.955894,9.269782 z"
     fill="#0f141b"
     id="path3340"
     style="stroke-width:0.36902" />
  <path
     d="m 65.6586,103.9412 c 0.354259,0.53139 0.708518,0.94469 1.121821,1.29895 0.354259,0.29522 0.649475,0.53139 0.413302,-0.17713 -0.236173,-0.70852 -0.472345,-1.29895 -1.180864,-1.7713 -0.708518,-0.47234 -0.708518,0.17713 -0.354259,0.64948 z"
     fill="#0f141b"
     id="path3344"
     style="stroke-width:0.36902" />
  <path
     d="m 71.9176,105.8312 c -0.236173,0.64948 -0.413302,0.8266 0.472346,0.35426 0.826604,-0.47235 1.239907,-0.82661 1.771296,-1.18086 0.531388,-0.41331 0.236172,-1.00374 -0.413303,-0.70852 -0.590432,0.29521 -1.653209,0.94469 -1.830339,1.53512 z"
     fill="#0f141b"
     id="path3348"
     style="stroke-width:0.36902" />
  <path
     d="m 58.5146,89.4142 c -0.354259,0.649475 -0.531389,1.771296 -0.531389,3.011203 0,2.007469 0.531389,3.601635 1.180864,3.601635 0.590432,0 1.062778,-1.180864 1.180864,-2.77503 C 59.754507,91.953058 59.223118,90.654107 58.5146,89.4142 Z"
     fill="#0f141b"
     id="path3352"
     style="stroke-width:0.36902" />
  <path
     d="m 89.0396,94.6102 c -0.295216,1.830339 -1.180864,3.188333 -1.889382,3.070246 -0.767562,-0.118086 -1.180864,-1.712252 -0.885648,-3.483548 0.295216,-1.83034 1.180864,-3.188333 1.889382,-3.070247 0.767562,0.118087 1.180864,1.65321 0.885648,3.483549 z"
     fill="#0f141b"
     id="path3356"
     style="stroke-width:0.36902" />
  <path
     d="m 88.3316,49.6192 c 4.959629,-2.420771 17.12253,-6.908054 22.20024,-8.088918 0.82661,-0.17713 0.94469,0.236172 0.059,0.472345 -4.60537,1.121821 -17.83105,6.376666 -23.085895,8.85648 z"
     fill="#0f141b"
     id="path3360"
     style="stroke-width:0.36902" />
  <path
     d="m 85.3196,53.1022 c 9.151696,-4.841542 28.34074,-11.395338 35.89827,-12.812374 0.8266,-0.118087 0.94469,0.236172 0.059,0.413302 -6.73093,1.594166 -26.333268,8.147962 -36.193483,13.28472 z"
     fill="#0f141b"
     id="path3364"
     style="stroke-width:0.36902" />
  <path
     d="m 103.2096,44.0102 c 0.29522,-1.712253 0.76756,-3.424506 1.29895,-4.841542 0.17713,-0.531389 0.53139,-0.413303 0.35426,0.118086 -0.47235,1.417037 -0.76756,2.893117 -1.06278,4.60537 z"
     fill="#0f141b"
     id="path3368"
     style="stroke-width:0.36902" />
  <path
     d="m 95.8896,46.7852 c 0.354259,-1.889382 0.649475,-3.188333 1.121821,-4.782499 0.177129,-0.531389 0.472345,-0.413303 0.354259,0.118086 -0.413302,1.535123 -0.590432,2.479815 -0.826605,4.369197 z"
     fill="#0f141b"
     id="path3372"
     style="stroke-width:0.36902" />
  <path
     d="m 105.0396,43.3012 c 0.11809,-0.944691 0.29522,-1.771296 0.47235,-2.479814 0.11808,-0.413303 0.47234,-0.295216 0.35425,0.118086 -0.11808,0.590432 -0.23617,1.29895 -0.35425,2.184598 z"
     fill="#0f141b"
     id="path3376"
     style="stroke-width:0.36902" />
  <path
     d="m 109.7096,43.9512 c 0.76756,0.590432 1.35799,1.062778 1.88938,1.594166 0.35426,0.35426 0.059,0.590432 -0.23617,0.295216 -0.47235,-0.413302 -1.53512,-1.239907 -2.30269,-1.771296 z"
     fill="#0f141b"
     id="path3380"
     style="stroke-width:0.36902" />
  <path
     d="m 96.0696,48.7922 c 0.944691,0.708518 3.837808,3.011203 4.72346,3.955894 0.29521,0.413303 0.59043,0.17713 0.29521,-0.236172 -0.94469,-1.121821 -3.247374,-3.188333 -4.487281,-4.014938 z"
     fill="#0f141b"
     id="path3384"
     style="stroke-width:0.36902" />
  <path
     d="m 100.1396,47.1982 c 1.29895,1.003734 2.53886,1.948426 4.01494,3.542592 0.35426,0.354259 0.64947,0.17713 0.29521,-0.236173 -1.2399,-1.535123 -2.42077,-2.597901 -3.71972,-3.542592 z"
     fill="#0f141b"
     id="path3388"
     style="stroke-width:0.36902" />
  <path
     d="M 89.7486,74.5352 C 89.57147,71.642083 74.456411,68.45375 72.448942,70.402176 70.677646,72.114429 74.515454,85.517235 77.290485,85.871494 80.124558,86.284797 89.92573,77.074058 89.7486,74.5352 Z"
     fill="#008982"
     id="path3392"
     style="stroke-width:0.36902" />
  <path
     d="m 71.9176,85.2812 c -0.295216,-0.531389 -4.192067,0.17713 -4.546326,1.47608 -0.413303,1.239907 2.302684,5.786234 2.95216,5.72719 0.826604,-0.05904 2.420771,-5.668147 1.594166,-7.20327 z"
     fill="#008982"
     id="path3396"
     style="stroke-width:0.36902" />
  <path
     d="m 45.2886,84.2182 c -0.295216,-0.649475 -4.723456,-0.17713 -5.668147,0.826605 -1.003735,1.062777 -2.479815,4.42824 -2.597901,5.313888 -0.118086,0.885648 1.771296,3.483549 2.302685,3.837808 0.472345,0.295216 4.073981,0.118086 4.959629,-0.767562 0.885648,-0.826605 1.417036,-8.088918 1.003734,-9.210739 z"
     fill="#008982"
     id="path3400"
     style="stroke-width:0.36902" />
  <path
     d="m 37.2586,81.4432 c 0.118086,-0.944691 -3.719722,-2.243642 -4.369197,-1.65321 -0.590432,0.531389 1.180864,3.424506 1.65321,3.483549 0.531389,0.05904 2.597901,-1.003734 2.715987,-1.830339 z"
     fill="#008982"
     id="path3404"
     style="stroke-width:0.36902" />
  <path
     d="m 25.7456,98.5612 c 0,-1.180864 -2.834074,-6.199536 -3.365462,-6.258579 -0.413303,0 -1.83034,0.295216 -2.715988,0.531389 0,2.834073 0.413303,5.431974 0.649476,7.91179 0.05904,0.76756 0.05904,1.65321 0,2.5979 0.826604,0.29522 2.125555,0.70852 2.715987,0.47234 0.649475,-0.29521 2.715987,-4.133019 2.715987,-5.25484 z"
     fill="#008982"
     id="path3408"
     style="stroke-width:0.36902" />
  <path
     d="m 67.7846,119.0512 c -0.590432,0.11809 -1.239907,5.90432 -1.003734,6.78997 0.236172,0.88565 2.066512,3.30642 2.538857,3.54259 0.472346,0.29522 3.306419,0.64948 3.896851,0.4133 0.531389,-0.23617 1.889383,-4.01494 1.65321,-4.95963 -0.295216,-0.88564 -6.435709,-5.90432 -7.085184,-5.78623 z"
     fill="#008982"
     id="path3412"
     style="stroke-width:0.36902" />
  <path
     d="m 66.3676,131.1612 c -0.413302,0.11809 -0.885648,3.12929 -0.531389,3.95589 0.17713,0.59044 1.712253,0.9447 2.184599,0.82661 0.472345,-0.11809 2.302684,-2.24364 2.125555,-2.95216 -0.118087,-0.76756 -3.247376,-2.00747 -3.778765,-1.83034 z"
     fill="#008982"
     id="path3416"
     style="stroke-width:0.36902" />
  <path
     d="m 100.3796,122.7712 c 0.23617,-0.53139 -1.357994,-3.07025 -2.007469,-3.12929 -0.708518,-0.059 -2.656944,2.95216 -2.479814,3.60164 0.177129,0.70851 4.192063,0.11808 4.487283,-0.47235 z"
     fill="#008982"
     id="path3420"
     style="stroke-width:0.36902" />
  <path
     d="m 106.8096,115.7512 c -0.58217,-0.74121 -1.38582,-0.53154 -2.19508,-0.48452 -0.68774,0.04 -1.48165,0.17015 -2.23316,0.42548 0,0.059 0,0.11808 -0.059,0.17713 -0.23618,0.94469 -0.17713,4.90058 0.53139,5.55006 0.23617,0.23617 1.2399,0.17713 2.06651,0.059 0.059,-0.059 0.059,-0.11809 0.11808,-0.17713 0.70852,-1.7713 1.29895,-3.66068 1.7713,-5.55006 z"
     fill="#008982"
     id="path3424"
     style="stroke-width:0.36902" />
  <path
     d="m 104.5696,112.2012 c -0.59043,0.23617 -1.83034,2.42077 -2.1846,3.48355 1.65321,-0.29522 3.12929,-0.29522 4.42824,0.059 0.35426,-1.18086 0.64948,-2.42077 0.88565,-3.66068 -1.06278,-0.059 -2.65694,-0.059 -3.12929,0.11809 z"
     fill="#00736d"
     id="path3428"
     style="stroke-width:0.36902" />
  <path
     d="m 70.2636,91.8942 c -0.531389,0.118086 -2.715987,-4.310154 -2.538858,-5.136758 0.118087,-0.590432 3.188333,-1.65321 3.719722,-1.180864 0.649475,0.649475 -0.531389,6.140492 -1.180864,6.317622 z m 1.889382,-7.085184 c -1.003734,-0.885648 -5.313888,0.590432 -5.55006,1.771296 -0.236173,1.121821 2.420771,6.908054 3.896851,6.376666 1.47608,-0.531389 2.834073,-7.026141 1.653209,-8.147962 z"
     fill="#0f141b"
     id="path3432"
     style="stroke-width:0.36902" />
  <path
     d="m 34.6606,82.8602 c -0.531389,-0.17713 -1.830339,-2.597901 -1.417037,-2.77503 0.531389,-0.295216 3.365463,0.708518 3.601635,1.357993 0.17713,0.354259 -1.712252,1.594167 -2.184598,1.417037 z m 3.011203,-1.47608 c -0.118086,-1.180864 -4.369197,-2.77503 -5.136758,-1.948426 -0.708519,0.767562 1.062777,4.014938 1.889382,4.251111 0.885648,0.295216 3.365463,-1.357994 3.247376,-2.302685 z"
     fill="#0f141b"
     id="path3436"
     style="stroke-width:0.36902" />
  <path
     d="m 37.4956,90.3592 c 0,-0.413302 1.948426,-4.782499 2.302685,-5.018672 1.535123,-0.944691 4.487283,-1.239907 4.959629,-0.826605 0.531388,0.413303 -0.05904,7.55753 -0.708519,8.561264 -0.472345,0.708519 -3.896851,0.944691 -4.42824,0.708519 C 38.912637,93.547533 37.4956,91.185805 37.4956,90.3592 Z m 1.889382,-5.845277 c -0.531388,0.295216 -2.95216,5.431975 -2.893116,5.90432 0.118086,1.121821 2.007468,4.073981 2.834073,4.251111 0.826605,0.177129 4.723456,0.05904 5.431975,-1.062778 0.767561,-1.121821 1.653209,-9.151696 0.649475,-9.978301 -0.826605,-0.708518 -5.018672,0.295216 -6.022407,0.885648 z"
     fill="#0f141b"
     id="path3440"
     style="stroke-width:0.36902" />
  <path
     d="m 22.2026,92.8382 c 0.590432,0.236173 2.95216,4.900586 2.95216,5.845277 0,0.767561 -1.712253,4.546323 -2.479814,4.664413 -0.826605,0.11809 -2.302685,-0.35426 -2.95216,-0.88565 v 1.12182 c 0.708518,0.4133 2.479814,0.88565 3.306419,0.76756 1.239907,-0.17713 3.188333,-4.723452 3.306419,-5.668143 0.05904,-0.826605 -2.715987,-6.671882 -3.778765,-6.908055 -0.531389,-0.118086 -2.361728,0.35426 -3.247376,0.649476 l 0.05904,1.062777 C 20.254174,93.074373 21.789298,92.720114 22.2026,92.8382 Z"
     fill="#0f141b"
     id="path3444"
     style="stroke-width:0.36902" />
  <path
     d="m 69.4376,128.8512 c -0.354259,-0.23617 -2.184598,-2.5979 -2.184598,-3.0112 -0.05904,-1.83034 0.118086,-5.96337 0.649475,-6.19954 0.590432,-0.23617 5.90432,4.19207 6.435709,5.25485 0.354259,0.76756 -0.826605,4.07398 -1.298951,4.42824 -0.354259,0.23617 -3.188333,-0.23618 -3.601635,-0.47235 z m -3.12929,-3.07025 c 0.05904,0.64948 2.243642,3.83781 2.715988,4.01494 0.767561,0.29522 4.07398,0.82661 4.605369,0.17713 0.649475,-0.64947 2.125555,-4.25111 1.535123,-5.43197 -0.590432,-1.23991 -6.494752,-6.37667 -7.675616,-5.90432 -1.062777,0.4133 -1.239907,6.0224 -1.180864,7.14422 z"
     fill="#0f141b"
     id="path3448"
     style="stroke-width:0.36902" />
  <path
     d="m 66.5446,131.5712 c 0.531389,-0.059 2.834074,1.00373 3.070246,1.47608 0.118087,0.23617 -0.767561,1.94843 -1.594166,2.42077 -0.295216,0.23617 -1.712253,-0.29521 -1.830339,-0.64947 -0.295216,-1.00374 0.118086,-3.24738 0.354259,-3.24738 z m -0.413302,-1.00373 c -0.767562,0.23617 -1.062778,3.60163 -0.708519,4.72345 0.17713,0.64948 2.420771,1.29895 3.011203,0.94469 0.649476,-0.35426 2.125556,-2.36173 2.184599,-3.4245 0,-0.76756 -3.719722,-2.47982 -4.487283,-2.24364 z"
     fill="#0f141b"
     id="path3452"
     style="stroke-width:0.36902" />
  <path
     d="m 98.3096,120.0612 c 0.413302,0 1.71225,2.00747 1.594166,2.36173 -0.177129,0.4133 -3.306419,0.94469 -3.542592,0.64947 -0.236172,-0.29521 1.65321,-3.0112 1.948426,-3.0112 z m 0.118086,-0.88565 c -0.944691,-0.11808 -3.601635,3.9559 -3.070246,4.54633 0.708518,0.76756 5.13676,0.059 5.55006,-0.82661 0.23617,-0.59043 -1.653209,-3.60163 -2.479814,-3.71972 z"
     fill="#0f141b"
     id="path3456"
     style="stroke-width:0.36902" />
  <path
     d="m 103.0896,121.0012 c -0.4133,-0.23617 -0.64948,-3.42451 -0.4133,-4.72346 0.17713,-0.94469 1.59416,-3.60163 2.06651,-3.71972 0.70852,-0.059 2.89312,0.059 3.54259,0.29522 l 0.29522,-1.06278 c -0.76756,-0.29522 -3.36546,-0.35426 -4.19207,-0.23617 -1.06278,0.11808 -2.5979,4.07398 -2.71599,4.54632 -0.059,0.53139 -0.11808,5.19581 0.82661,5.78624 0.4133,0.29521 1.47608,0.35426 2.89311,0 l 0.47235,-1.12182 c -1.71225,0.47234 -2.53886,0.4133 -2.77503,0.23617 z"
     fill="#0f141b"
     id="path3460"
     style="stroke-width:0.36902" />
  <path
     d="m 82.3086,70.7562 c -4.192067,-1.003734 -8.797437,-1.357994 -9.860214,-0.354259 -0.531389,0.531389 -0.531389,2.125555 -0.236173,4.073981 1.29895,1.180864 2.420771,2.479814 3.247376,3.542592 2.302685,-2.656944 4.42824,-5.018672 6.849011,-7.262314 z"
     fill="#00736d"
     id="path3464"
     style="stroke-width:0.36902" />
  <path
     d="m 72.8616,70.9332 c 1.239907,-1.771296 16.650182,1.29895 16.295923,3.719722 C 88.92135,76.129002 79.946784,86.166346 77.28984,85.339741 74.869069,84.631222 71.680736,72.527366 72.8616,70.9332 Z m -0.944691,-1.003734 c -1.594167,2.007468 1.47608,15.410275 5.077715,16.473052 3.483549,1.062778 13.10759,-9.624041 13.343763,-11.572467 0.531389,-3.778765 -16.473053,-7.262313 -18.421478,-4.900585 z"
     fill="#0f141b"
     id="path3468"
     style="stroke-width:0.36902" />
  <path
     d="m 81.3046,54.9922 c 0,0 -0.354259,0.118086 -0.472346,0.17713 -11.336294,-5.136759 -18.480521,6.730924 -18.539564,7.262313 -0.05904,0.472346 1.948425,4.192067 2.479814,4.192067 0.472346,0 5.845277,-5.845276 7.793702,-6.908054 -2.066512,2.007469 -5.195801,5.668147 -5.195801,6.08145 0.05904,0.472345 5.372931,4.959628 5.786233,4.900585 0.413303,0 3.660679,-3.660678 5.550061,-4.546326 -2.125555,1.830339 -5.254845,5.372931 -5.254845,5.668147 0,0.236173 4.192068,2.715987 4.42824,2.715987 0.17713,0.05904 2.420772,-3.070246 3.424506,-4.073981 -0.472346,0.649476 -3.778765,5.018672 -3.837808,5.491018 -0.118086,0.472346 6.612838,3.660678 7.026141,3.601635 0.413302,-0.118086 1.239907,-2.243641 1.889382,-3.365462 0.118087,1.535123 0.295216,5.963363 0.413303,6.140493 0.177129,0.177129 5.136758,-3.955895 5.609104,-4.664413 0.472345,-0.708519 0.472345,-1.357994 0.295216,-2.066512 -0.17713,-0.708519 -1.121821,-3.719722 -1.594167,-5.550061 1.121821,1.239907 3.365463,4.133024 3.719722,4.133024 0.413302,0 3.837808,-6.317622 4.073981,-6.789968 0.295216,-0.472346 -0.413303,-0.944691 -1.003735,-1.417037 -0.590432,-0.472345 -2.597901,-2.007469 -4.546326,-3.365462 0.885648,0.295216 5.845277,1.948425 6.612838,2.361728 0.767559,0.413302 0.531389,-3.896851 0.236169,-4.251111 -0.295212,-0.413302 -0.944687,-0.413302 -1.771292,-0.767561 0.649475,0 1.653212,0.236173 1.889382,0.05904 0.29522,-0.17713 -0.649475,-1.594166 -0.944691,-2.125555 -0.354259,-0.531389 -0.590432,-1.003735 -0.590432,-1.003735 H 98.663301 C 93.703672,52.984731 87.976482,51.980997 81.3046,54.9922 Z"
     fill="#0f141b"
     id="path3472"
     style="stroke-width:0.36902" />
  <path
     d="m 81.5416,55.5822 c 2.361728,-0.944691 9.505955,-3.837808 16.709226,1.771296 0.295216,0.649475 0.708518,1.47608 0.944691,1.948426 -0.767562,0 -0.413303,-0.118087 -2.479815,-0.118087 -2.066512,0 -1.417036,0.236173 -0.118086,0.649475 1.239907,0.35426 2.834074,1.298951 3.070246,1.357994 0.118087,0.236173 0.236173,2.597901 0,3.12929 -0.649475,-0.05904 -5.90432,-2.243642 -8.207004,-2.893117 -2.302685,-0.590432 -2.066512,-0.354259 -0.17713,0.649475 1.889382,0.944691 5.609104,3.837808 6.967098,5.195802 -0.826605,1.29895 -3.12929,5.786233 -3.483549,5.786233 -0.413303,0.05904 -3.011203,-3.188333 -4.073981,-4.42824 -1.062778,-1.29895 -0.708518,-0.885648 -0.531389,0.295216 0.118087,1.121821 2.184599,7.439443 2.007469,7.793703 -0.118086,0.413302 -3.660678,3.247376 -4.782499,4.25111 -0.05904,-1.062778 0,-6.376666 -0.236173,-6.849011 -0.295216,-0.472346 -2.597901,4.014937 -2.893117,4.487283 -1.535123,-0.885648 -4.369197,-2.538858 -5.609104,-3.070246 0.590432,-0.708519 4.073981,-5.786234 4.664413,-6.435709 0.531389,-0.708519 1.47608,-1.712253 -0.413302,-0.708519 -1.889383,1.062778 -3.837808,3.542592 -5.195802,5.313888 -0.413302,-0.295216 -2.77503,-1.771296 -3.247376,-2.066512 0.885648,-1.062777 4.723456,-5.313888 5.90432,-5.90432 1.180864,-0.590432 1.594166,-0.708518 -0.118086,-0.590432 -2.775031,0.17713 -6.199536,3.660679 -7.144228,4.664413 -0.413302,-0.354259 -4.369196,-3.719721 -4.782499,-4.073981 0.767562,-1.062777 4.60537,-5.72719 5.668147,-6.435708 1.062778,-0.708519 1.298951,-0.767562 -0.118086,-0.590432 -3.955894,0.590432 -7.321357,5.077715 -9.03361,6.849011 -0.354259,-0.531389 -1.712252,-2.715987 -1.889382,-3.011203 1.65321,-2.893117 8.029875,-11.277252 18.244349,-6.849012 z"
     fill="#00a63c"
     id="path3476"
     style="stroke-width:0.36902" />
  <path
     d="m 81.8366,55.2872 c 4.841542,2.95216 6.258579,10.568733 4.959629,17.299658 -0.17713,1.003734 -0.590432,0.885648 -0.472346,-0.118087 1.062778,-6.967097 -0.472345,-14.111325 -5.136758,-16.768269 z"
     fill="#0f141b"
     id="path3480"
     style="stroke-width:0.36902" />
  <path
     d="m 83.3716,54.5192 c 3.12929,2.302685 5.72719,6.435709 4.841542,13.875152 -0.118086,1.062778 -0.531388,1.003734 -0.413302,-0.05904 0.413302,-6.140493 -1.239907,-10.686819 -5.195802,-13.579936 z"
     fill="#0f141b"
     id="path3484"
     style="stroke-width:0.36902" />
  <path
     d="m 85.2606,59.7152 c -2.656944,-0.17713 -4.900586,0.767562 -7.439443,2.77503 -0.649475,0.531389 -0.885648,0.295216 -0.354259,-0.295216 2.302684,-2.243641 4.605369,-3.247376 7.20327,-3.306419 z"
     fill="#0f141b"
     id="path3488"
     style="stroke-width:0.36902" />
  <path
     d="m 51.1336,50.7412 c -5.077715,1.121821 -17.653917,4.546326 -22.436416,6.494752 -0.826605,0.354259 -0.649475,0.767562 0.17713,0.413302 4.42824,-1.712252 18.303392,-5.136758 23.322064,-6.199536 z"
     fill="#0f141b"
     id="path3492"
     style="stroke-width:0.36902" />
  <path
     d="m 49.7166,53.4572 c -9.505955,1.771296 -23.61728,5.90432 -30.466291,8.974566 -0.826605,0.35426 -0.649475,0.708519 0.177129,0.35426 6.435709,-2.538858 22.259287,-6.967098 31.765242,-8.85648 z"
     fill="#0f141b"
     id="path3496"
     style="stroke-width:0.36902" />
  <path
     d="m 38.2036,54.4602 c -1.239907,-1.239907 -2.597901,-2.420771 -3.837808,-3.247376 -0.472346,-0.295216 -0.649475,0 -0.236173,0.295216 1.180864,0.885648 2.361728,1.948426 3.483549,3.188333 z"
     fill="#0f141b"
     id="path3500"
     style="stroke-width:0.36902" />
  <path
     d="m 40.0926,53.8112 c -0.649475,-0.708518 -1.180864,-1.239907 -1.830339,-1.771296 -0.413303,-0.295216 -0.649475,-0.05904 -0.17713,0.354259 0.413303,0.354259 0.944691,0.885648 1.535123,1.594167 z"
     fill="#0f141b"
     id="path3504"
     style="stroke-width:0.36902" />
  <path
     d="m 23.8566,60.8962 c -0.118086,0.885648 -0.17713,1.594166 -0.17713,2.243642 0.05904,0.472345 0.35426,0.472345 0.413303,-0.05904 0,-0.531388 0.118086,-1.594166 0.236173,-2.361728 z"
     fill="#0f141b"
     id="path3508"
     style="stroke-width:0.36902" />
  <path
     d="m 35.6056,57.2952 c -0.118086,1.47608 -0.17713,4.723456 0.05904,6.022406 0.05904,0.531389 -0.295216,0.590432 -0.413302,0.118087 -0.295216,-1.47608 -0.413303,-4.546327 -0.295216,-6.022407 z"
     fill="#0f141b"
     id="path3512"
     style="stroke-width:0.36902" />
  <path
     d="m 33.1846,57.9442 c -0.17713,1.594166 -0.295216,3.12929 -0.236173,5.313888 0.05904,0.472346 -0.295216,0.590432 -0.354259,0.05904 -0.236173,-2.007469 -0.17713,-3.542592 0,-5.195801 z"
     fill="#0f141b"
     id="path3516"
     style="stroke-width:0.36902" />
</svg>
