<?xml version="1.0" encoding="UTF-8"?>
<!-- Created with Inkscape (http://www.inkscape.org/) -->
<svg version="1.1" viewBox="0 0 113.11 103.37" xmlns="http://www.w3.org/2000/svg">
 <g transform="translate(-19.727 -75.829)">
  <g transform="matrix(.26458 0 0 .26458 54.144 117.01)">
   <path d="m0 0c-23.36 12.16-39.84 29.92-46.4 50.08-11.84 36.16 8.64 75.68 56.16 108.64 29.76 23.68 54.56 28.48 120.32 14.4 5.12-1.12 8.48 0.96001 13.92 4.16 7.2 4.32 15.68 11.52 38.88 14.88 20 2.88 68.64 3.68 76-11.04 0.63999-1.28 2.08-3.04 2.08-4.48 0-4.16-3.68-8.8-8.8-14.08 25.28-13.76 45.28-39.36 45.28-62.56 0-28.8-40.96-113.12-210.72-118.08-32.48-0.96-62.4 5.28-86.72 18.08z" fill="#0f141b"/>
  </g>
  <g transform="matrix(.26458 0 0 .26458 42.587 130.47)">
   <path d="m0 0c13.28-40.8 67.04-68 130.4-66.24 112.32 3.36 172.8 32.8 202.56 98.88 15.52 34.72-26.4 70.88-39.84 77.44-12.96 6.4-3.36 4.48 0.48001 3.52 3.04 1.92 8.48 11.2 6.4 15.36-6.24 12.48-49.76 12-70.56 8.96-22.72-3.2-32.96-9.44-40.32-13.92-5.6-3.36-9.76-5.76-16-4.48-56.96 11.84-85.76 8.32-118.08-14.08-46.4-32-66.56-70.4-55.04-105.44z" fill="#5dc1cf"/>
  </g>
  <g transform="matrix(.26458 0 0 .26458 55.541 157.23)">
   <path d="m0 0c1.92 1.44 4 2.88 6.08 4.32 32.32 22.4 61.12 25.92 118.08 14.08 3.04-0.64 5.6-0.32 8 0.48-5.12-12.64-9.44-25.76-12.64-38.72-39.52 9.12-79.2 20-119.52 19.84z" fill="#50a8b4"/>
  </g>
  <g transform="matrix(.26458 0 0 .26458 120.14 159.6)">
   <path d="m0 0c13.44-6.56 55.36-42.72 39.84-77.6-29.76-65.92-90.24-95.36-202.56-98.72-47.52-1.28-89.6 13.6-113.28 38.4 32.64 18.56 63.52 71.52 98.72 49.44 88.48-55.36 146.88 7.36 140.96 16 9.6-15.2 46.24 9.92 41.6 30.56-4.48 20.48-34.24 48.64-36.8 49.92 3.84 2.24 9.44 9.6 9.76 21.12 13.76-1.12 25.6-4.16 28.64-10.24 2.08-4.16-3.36-13.44-6.4-15.36-3.84 0.96-13.44 2.88-0.48-3.52z" fill="#50a8b4"/>
  </g>
  <g transform="matrix(.26458 0 0 .26458 112.35 166.96)">
   <path d="m0 0c-2.72 3.52-0.96 3.84-0.64 4.32 5.6 4.32 13.12 7.84 19.68 8 2.72 0 5.6-8.64 6.24-11.68 0.64-3.2-8.16-12.8-11.2-13.92-3.2-1.28-12.32 10.72-14.08 13.28z" fill="#0f141b"/>
  </g>
  <g transform="matrix(.26458 0 0 .26458 115.53 164.46)">
   <path d="m0 0c1.6-1.12 2.24-0.96 2.24-0.96 2.72 1.12 9.6 9.28 9.12 11.68-0.48 2.72-3.52 7.52-4.96 7.52-2.4 0-14.88-3.36-16.96-5.76 0.32-1.44 6.08-9.44 10.56-12.48z" fill="#fff"/>
  </g>
  <g transform="matrix(.26458 0 0 .26458 116.12 164.21)">
   <path d="m0 0c3.36 4.96 5.92 10.24 7.36 16 0.8-1.44 1.6-3.2 1.76-4.32 0.48-2.4-6.24-10.56-9.12-11.68z" fill="#dbdcdc"/>
  </g>
  <g transform="matrix(.26458 0 0 .26458 120.27 166.41)">
   <path d="m0 0c-0.48 3.36 17.76 2.08 20.32-4.48 1.12-2.88-11.2-16.16-15.36-14.56-0.48 0.16-4.32 14.72-4.96 19.04z" fill="#0f141b"/>
  </g>
  <g transform="matrix(.26458 0 0 .26458 121.03 165.86)">
   <path d="m0 0v-0.8c0-3.36 3.04-12.16 4-14.08 1.92 1.28 9.76 9.76 9.76 12-0.16 1.12-4.64 3.68-9.28 4.16-1.12 0.16-4 0.32-4.48-1.28z" fill="#dbdcdc"/>
  </g>
  <g transform="matrix(.26458 0 0 .26458 105.07 161.04)">
   <path d="m0 0-0.48 1.28c8.64 3.36 39.52 1.12 41.92 0s3.36-2.88-0.64-2.24c-4 0.48-33.6 3.36-40.8 0.96z" fill="#0f141b"/>
  </g>
  <g transform="matrix(.26458 0 0 .26458 111.17 134.62)">
   <path d="m0 0c-3.36 21.12-11.68 47.52-39.04 58.88l0.8 1.92c28.32-11.68 39.2-31.84 40.32-60.8 0.16-4.32-1.28-4.16-2.08 0z" fill="#0f141b"/>
  </g>
  <g transform="matrix(.26458 0 0 .26458 36.237 105.96)">
   <path d="m0 0c-2.88 1.44-1.92 0.96-0.16 1.92 1.92 0.96 5.92 2.72 9.12 3.84-6.88 0.32-19.84 0.64-21.44 1.28-1.44 0.48-23.84 18.88-23.36 19.68 0.64 0.8 11.52-1.92 18.08-3.04-8 3.52-20.64 9.12-20.64 9.12l-12 15.84s8.64-2.4 14.24-3.84c-7.36 4-17.12 9.12-17.12 9.12l-8.64 25.28s-1.12 3.68 1.6 1.12c2.88-2.72 13.76-13.76 18.56-18.56-2.24 6.08-8.8 22.08-8.32 22.88 0.48 0.96 12.48-1.92 12.48-1.92s2.72-9.92 4.32-15.36c0.64 4.64 0.48 12.64 1.6 13.44 0.96 0.8 9.6-3.52 9.6-3.52s4.48-15.68 6.08-21.44c1.12 5.44 2.72 17.76 4 18.72 1.12 0.96 14.08-3.52 14.08-3.52s4-18.08 6.08-27.84c0.16 8.96-0.32 23.2 0.64 23.84 0.8 0.64 20.48-5.28 20.48-5.28s4.48-26.88 5.76-33.76c1.92 6.4 7.68 29.28 9.12 29.44 1.28 0.32 44.64-13.6 46.08-14.56 1.28-0.8 44.16-30.88 44.16-30.88l-1.12-0.96c-34.08-34.88-85.12-36-133.28-11.04z" fill="#0f141b"/>
  </g>
  <g transform="matrix(.26458 0 0 .26458 70.866 109.09)">
   <path d="m0 0c-2.08 1.44-43.52 29.28-43.84 29.44-0.16 0-40.64 14.08-41.6 13.6s-9.28-27.36-9.76-31.68-1.28-3.52-3.2 4.32c-1.76 8-4.8 31.2-4.96 32.48-1.12 0.32-14.56 3.84-16.8 4.32 0-2.4-0.48-25.28-0.64-29.92s-0.32-5.92-2.08-0.16c-1.76 5.6-7.36 33.92-7.68 35.04-0.96 0.32-9.12 2.4-10.72 2.72-0.47999-1.92-3.52-14.24-4.48-20.64-0.80001-6.56-1.28-3.68-2.08-0.16-0.64 3.52-6.4 23.2-6.72 24.32-0.96 0.16-4.64 0.96-6.08 1.28-0.32001-1.92-1.76-9.6-2.24-14.56s-0.64-4.64-2.08-0.16c-1.28 4.64-4.8 17.6-5.12 18.88-0.95999 0.16-5.6 0.8-7.84 1.12 1.12-2.88 6.88-18.88 8.8-24s-1.76-1.12-1.76-1.12l-18.56 18.72c1.92-5.76 6.72-19.68 7.04-20.32 0.64-0.32 19.36-10.72 24.48-12.96 4.96-2.4 5.44-3.2-0.8-1.92-6.24 1.12-12.96 3.36-17.28 4.64 2.4-3.2 7.84-10.24 8.16-10.56 0.48-0.32 22.88-10.24 27.68-12.48 4.96-2.08 5.76-2.56-0.64-1.92-6.24 0.64-13.44 2.4-18.72 3.2 4.16-3.52 16.64-13.92 17.12-14.4 0.64 0 22.72-1.28 26.08-1.44 3.36-0.32 3.2-0.64 0.16-2.08s-7.52-2.24-11.84-4.32c50.08-22.88 94.4-19.2 128 10.72z" fill="#00a63c"/>
  </g>
  <g transform="matrix(.26458 0 0 .26458 39.666 105.11)">
   <path d="m0 0c13.92-2.72 21.44 15.36 25.6 15.36 18.72 0.8 39.52 13.6 49.92 28.16 7.2-4.96 40.48-27.2 42.4-28.48-31.36-28-72-32.96-117.92-15.04z" fill="#009233"/>
  </g>
  <g transform="matrix(.26458 0 0 .26458 31.835 116.97)">
   <path d="m0 0c-5.28 5.92 0.96 0.96 0.96 0.96 70.88-52.48 130.24-32.32 130.88-32l3.52-0.96-7.2-6.4-1.76-1.28c-53.44-9.6-100.48 9.92-126.4 39.68z" fill="#0f141b"/>
  </g>
  <g transform="matrix(.26458 0 0 .26458 65.278 106.93)">
   <path d="m0 0c0.16 0.16 0.64 2.4 4.16 4.64-26.24-5.44-63.52-10.72-119.68 25.76 26.56-24.96 68.8-37.6 115.52-30.4z" fill="#00a63c"/>
  </g>
  <g transform="matrix(.26458 0 0 .26458 66.379 108.16)">
   <path d="m0 0c-3.52-2.24-4-4.48-4.16-4.64-26.24-4-51.2-1.76-72.8 5.44 1.12 0.64 2.08 1.44 3.04 2.24 31.84-10.56 55.52-6.88 73.92-3.04z" fill="#009233"/>
  </g>
  <g transform="matrix(.26458 0 0 .26458 76.623 103.51)">
   <path d="m0 0c-11.52 10.08-18.4 21.44-16.64 26.88 0.48 1.44 1.76 3.2 5.12 3.36 43.36 3.36 66.88-9.28 74.4-22.24 4.16-7.36 3.84-15.68-0.8-22.56l-0.32-0.32-0.32-0.16c-26.56-12.8-53.76 8.32-61.44 15.04z" fill="#fff"/>
  </g>
  <g transform="matrix(.26458 0 0 .26458 72.94 110.36)">
   <path d="m0 0c-1.28-3.68 4.32-13.76 15.68-23.84 7.36-6.4 33.12-26.56 58.24-14.88 2.08 3.2 3.04 6.56 3.04 10.08 0 3.04-0.8 6.24-2.56 9.28-7.04 12.16-29.6 24.16-71.84 20.96-1.92-0.16-2.4-0.96-2.56-1.6z" fill="#009233"/>
  </g>
  <g transform="matrix(.26458 0 0 .26458 67.733 91.821)">
   <path d="m0 0c-4.64 7.36-22.24 48.64-0.64 75.52 10.4 12.96 30.56 13.28 44.32 9.76 11.84-2.88 19.84-8.96 21.76-15.04 8.8-27.04 7.04-45.28-2.4-69.28-2.56-6.72-11.52-11.36-24.32-12.48-14.4-1.44-32.8 2.24-38.72 11.52z" fill="#0f141b"/>
  </g>
  <g transform="matrix(.26458 0 0 .26458 68.114 111.34)">
   <path d="m0 0c-18.56-25.76-3.36-65.44 0.96-72.32 5.28-8.32 22.56-11.52 36.16-10.24 11.52 1.12 19.68 5.12 21.92 10.88 6.7655 17.211 8.6698 32.924 6.1986 49.623-0.86 5.8114-1.692 11.742-3.7986 17.897-1.76 5.12-9.12 10.4-19.84 13.12-12.96 3.2-32.64 3.52-41.6-8.96z" fill="#c28600"/>
  </g>
  <g transform="matrix(.26458 0 0 .26458 83.735 92.371)">
   <path d="m0 0c-2.24-5.76-10.4-9.76-21.92-10.88-13.6-1.28-30.88 1.92-36.16 10.24-1.92 3.04-5.76 12-8.16 23.36 13.12-5.44 53.28 20.48 71.52 34.4 0.56288-2.3874 1.0269-4.7465 1.3937-7.0843 2.6569-16.933 0.21525-32.743-6.6737-50.036z" fill="#986a00"/>
  </g>
  <g transform="matrix(.26458 0 0 .26458 66.421 96.012)">
   <path d="m0 0c-1.6 5.92-4.16 17.76-4 30.24l0.16 0.32s6.72 9.92 8.16 12c1.28 2.08 1.12 1.92 2.56 0.32 1.44-1.76 6.4-7.52 7.52-8.96 0.8 1.76 7.2 15.68 7.2 15.68s6.24-12.48 7.04-14.24c1.12 1.44 8.16 11.04 8.16 11.04s7.2-10.72 8.32-12.48c0.96 1.76 7.04 12.64 7.04 12.64s6.88-13.76 8.16-16.32c0.8 2.72 5.76 17.12 5.76 17.12l0.8-1.44c2.08-4.32 5.92-14.08 6.24-14.56l1.28-1.92-0.32-4.48c1.76-11.68 0.48-8.8-2.08-23.52l-0.32-1.28-0.96 0.96c-2.4 2.72-6.24 8-7.68 9.76-0.96-1.12-8-10.56-8.96-10.4-0.96 0.32-3.36 12.8-4.16 15.36-1.28-2.4-5.6-14.72-6.56-14.56-1.12 0.16-6.24 10.56-7.2 12-0.96-1.44-5.92-12.32-6.88-12.32s-8.96 14.4-10.24 16.32c-0.8-2.24-3.84-17.44-4.96-17.76-1.28-0.32-6.72 6.4-7.68 7.2-0.64-0.96-6.08-8.16-6.08-8.16z" fill="#0f141b"/>
  </g>
  <g transform="matrix(.26458 0 0 .26458 65.744 103.63)">
   <path d="m0 0c0-10.88 2.08-21.12 3.52-27.04 1.44 1.76 3.04 5.44 4.16 6.56 0.96 1.28 0.8 1.92 1.92 0.64 1.28-1.12 4.64-4.64 5.92-5.44 0.48 1.6 4.48 16.16 5.6 16.8 1.28 0.48 9.76-13.6 10.88-15.04 0.96 1.44 5.6 10.56 6.56 10.56 0.96-0.16 5.92-8.48 7.04-10.08 0.8 1.76 7.2 13.44 7.2 13.6 0 0.32 4-12.96 4.48-14.88 1.44 1.28 8.48 8.48 8.48 8.48l0.48-0.64c0.16-0.16 4.16-5.6 7.2-9.12 1.28 7.52 1.92 12.64 1.92 17.76 0 3.84-0.16 3.36-0.96 8.32-0.64 0.96-3.68 10.88-5.44 14.56-0.96-2.56-5.28-18.72-5.76-18.72-0.64 0-7.52 16.48-8.64 18.56-0.96-1.92-6.4-14.56-7.04-14.4-0.48 0.32-7.2 13.28-8.16 14.72-0.96-1.44-8.48-13.76-9.12-13.28-0.48 0.32-4.96 13.44-6.08 15.52-0.96-2.08-6.08-16.32-6.72-16.8s-7.52 10.72-8.48 11.84c-0.96-1.12-8.64-10.88-8.96-11.2v-1.28z" fill="#c28600"/>
  </g>
  <g transform="matrix(.26458 0 0 .26458 69.85 96.943)">
   <path d="m0 0c-0.96 0.64-3.2 2.88-4.8 4.48 2.24 0.48 4.48 1.12 6.56 1.76-0.8-3.04-1.6-5.6-1.76-6.24z" fill="#986a00"/>
  </g>
  <g transform="matrix(.26458 0 0 .26458 66.675 96.478)">
   <path d="m0 0c-0.32 1.28-0.64 2.88-1.12 4.8 1.44 0.16 2.88 0.32 4.32 0.64-0.96-1.6-2.08-4-3.2-5.44z" fill="#986a00"/>
  </g>
  <g transform="matrix(.26458 0 0 .26458 82.465 102.66)">
   <path d="m0 0c0.32 0 3.04 9.44 4.64 15.04 0.64 0.48 1.44 0.96 2.08 1.44 1.76-4.48 4-11.52 4.48-12.32 0.8-4.96 0.96-4.48 0.96-8.32 0-5.12-0.64-10.24-1.92-17.76-3.04 3.52-7.04 8.96-7.2 9.12l-0.48 0.64s-7.04-7.2-8.48-8.48c-0.48 1.92-4.48 15.2-4.48 14.88 0-0.16-6.4-11.84-7.2-13.6-1.12 1.6-6.08 9.92-7.04 10.08-0.96 0-5.6-9.12-6.56-10.56-0.48 0.8-2.88 4.64-5.28 8.16 11.52 5.44 21.92 12.8 32.32 20.32 1.92-4.48 3.84-8.64 4.16-8.64z" fill="#986a00"/>
  </g>
  <g transform="matrix(.26458 0 0 .26458 83.989 107.61)">
   <path d="m0 0c0.32-0.64 0.64-1.44 0.96-2.24-0.64-0.48-1.44-0.96-2.08-1.44 0.48 1.6 0.8 3.04 1.12 3.68z" fill="#c28600"/>
  </g>
  <g transform="matrix(.26458 0 0 .26458 83.143 76.454)">
   <path d="m0 0c-8.64 3.2-18.56 21.44-21.76 26.88-4.96-5.6-23.36-26.72-37.44-28.48-16.96-2.24-37.6 6.4-39.2 7.04-1.6 0.8 2.08 3.68 3.84 6.08-3.52-1.44-7.68-3.52-9.6-3.84-5.92-0.8-19.68 16-20 16.48l101.28 25.28 104.48-16-1.44-1.92c-0.96001-1.12-26.4-28.64-40.32-29.6-2.4-0.16-11.2 4.48-15.36 6.88 1.12-2.4 5.6-8.8 4.96-9.92s-19.52-2.56-29.44 1.12z" fill="#0f141b"/>
  </g>
  <g transform="matrix(.26458 0 0 .26458 77.639 83.989)">
   <path d="m0 0c0-0.32 12.64-22.4 21.76-25.92 8.32-3.04 20.32-2.88 25.44-1.76-4 4.8-6.08 10.72-6.24 10.88l-1.28 3.68 3.36-1.92c0-0.16 13.76-8.96 16.48-9.12 7.36-0.8 32.8 21.12 37.76 27.04-4.64 0.8-98.72 15.04-99.2 15.2-0.64-0.16-93.28-22.56-97.28-23.52 2.56-3.36 8.96-10.56 15.04-12.32 3.68 1.12 13.76 5.12 13.92 5.12l4.64 1.76s-6.88-9.12-8.48-11.2c5.28-1.76 21.92-7.04 35.36-5.28 14.88 1.92 36.16 27.2 36.32 27.52l1.28 1.6z" fill="#e85382"/>
  </g>
  <g transform="matrix(.26458 0 0 .26458 103.38 84.751)">
   <path d="m0 0c-3.04-3.52-13.6-13.12-23.04-19.84-38.72 3.68-48.16 29.12-70.08 22.88-1.92-0.48-3.52-2.08-5.12-4.32l-0.16 0.16-1.28-1.6c-0.16-0.32-21.44-25.6-36.32-27.52-3.84-0.48-7.68-0.48-11.52 0 7.52 2.4 17.76 12.32 23.84 29.28-22.24-6.4-44.48-6.24-66.72-5.92 21.6 5.28 90.72 21.92 91.2 22.08 0.48-0.16 94.56-14.4 99.2-15.2z" fill="#c94772"/>
  </g>
  <g transform="matrix(.26458 0 0 .26458 79.841 79.756)">
   <path d="m0 0h-0.16v0.16c-2.88 3.84-5.44 7.68-7.04 10.24l-0.32 0.32 0.48 0.32c4.48 3.04 11.68 2.56 17.12 0.96 1.12-0.48 3.84-1.28 4.32-2.24 0.32-1.12-1.12-3.52-2.56-5.28-1.6-1.76-5.92-5.92-11.84-4.48z" fill="#0f141b"/>
  </g>
  <g transform="matrix(.26458 0 0 .26458 82.55 80.899)">
   <path d="m0 0c2.08 2.08 3.2 4.32 3.2 4.96h-0.16c-0.16 0.48-2.56 1.6-6.24 2.24-2.56 0.64-8.8 1.44-13.12-1.12 1.6-2.4 4-5.92 6.56-9.44 4.48-0.96 8 1.6 9.76 3.36z" fill="#fceef4"/>
  </g>
  <g transform="matrix(.26458 0 0 .26458 92.244 80.306)">
   <path d="m0 0c-1.44 0.64-4.32 4.8-5.44 9.28-0.8 3.36-0.48 6.08 1.12 8.16 2.08 2.88 4.96 5.12 8.64 7.04h0.16l17.92-2.72-0.16-0.48c-2.4-9.92-13.76-18.08-18.72-20.48-2.56-1.12-3.36-0.8-3.52-0.8z" fill="#0f141b"/>
  </g>
  <g transform="matrix(.26458 0 0 .26458 93.218 80.857)">
   <path d="m0 0c5.76 3.04 15.04 10.4 17.44 18.88-1.12 0.16-16.16 2.4-16.48 2.4-3.52-1.6-6.24-3.84-8.16-6.56-0.96-1.28-1.28-2.72-1.28-4.16 0-1.12 0.16-2.24 0.48-3.2 1.12-4.32 3.84-8 4.8-8.48 0.16 0 1.12 0 3.2 1.12z" fill="#d9ced4"/>
  </g>
  <g transform="matrix(.26458 0 0 .26458 86.953 78.105)">
   <path d="m0 0-2.72 0.16c-2.56 0.16-3.84 8.32-3.84 8.48 0 0.48 0.32 1.12 1.12 1.6 2.4 1.76 9.12 4.32 13.28 2.4 3.68-1.76 5.92-6.72 6.56-10.24l0.16-1.12s-5.6 3.2-7.52 4.32c0.64-1.28 1.44-3.2 2.88-5.44l0.48-0.8h-0.96c-3.04 0-6.72 0.32-9.44 0.64z" fill="#0f141b"/>
  </g>
  <g transform="matrix(.26458 0 0 .26458 86.275 78.444)">
   <path d="m0 0c-1.28 0-2.72 4.96-2.88 7.36 0 0.16 0.16 0.48 0.96 0.96 2.72 1.76 8.48 3.2 11.84 1.6 2.72-1.12 4.48-4.16 5.44-7.2-2.72 1.76-4.96 3.04-4.96 3.2l-3.36 1.92 1.28-3.68c0-0.16 0.8-2.24 2.24-4.96-2.56 0-5.6 0.32-7.84 0.48z" fill="#fceef4"/>
  </g>
  <g transform="matrix(.26458 0 0 .26458 67.903 76.539)">
   <path d="m0 0c-4.96 1.12-8.8 4.32-10.4 6.88-2.4 4 0.8 9.76 2.56 10.4 2.4 0.96 16.64-7.68 20.16-10.4l0.48-0.48-0.48-0.32c-4.48-3.04-8.48-5.12-12-6.08h-0.16z" fill="#0f141b"/>
  </g>
  <g transform="matrix(.26458 0 0 .26458 65.955 80.687)">
   <path d="m0 0c-0.64-0.32-1.28-1.44-1.76-2.88-0.32-0.96-0.48-1.92-0.48-3.04 0-0.8 0.16-1.6 0.48-2.24 1.44-2.4 5.12-5.28 9.28-6.24 3.2 0.96 6.72 2.72 10.56 5.28-4.8 3.36-16.64 9.6-18.08 9.12z" fill="#fceef4"/>
  </g>
  <g transform="matrix(.26458 0 0 .26458 70.739 78.274)">
   <path d="m0 0c-3.84-2.56-7.36-4.32-10.56-5.28-2.24 0.48-4.32 1.6-6.08 2.88 3.84 1.76 7.2 3.84 10.56 6.08 2.4-1.28 4.48-2.56 6.08-3.68z" fill="#d9ced4"/>
  </g>
  <g transform="matrix(.26458 0 0 .26458 58.124 78.867)">
   <path d="m0 0-0.48 0.32s1.92 2.56 3.04 4c-1.92-0.8-6.24-2.4-6.24-2.4l-0.32 0.96c1.12 4.64 3.52 9.92 8.16 11.04 8.64 2.88 15.04-12.32 11.68-15.36-1.92-1.6-12.16-1.28-15.84 1.44z" fill="#0f141b"/>
  </g>
  <g transform="matrix(.26458 0 0 .26458 59.309 82.127)">
   <path d="m0 0h0.16c3.52 1.28 6.08-1.28 7.68-3.52 2.56-4 3.36-8.8 2.88-9.44-1.12-0.96-9.12-1.12-13.44 0.8 2.72 3.36 6.4 8.32 6.4 8.32l-4.64-1.76s-2.4-0.96-5.44-2.08c1.28 3.68 3.04 6.88 6.4 7.68z" fill="#fceef4"/>
  </g>
  <g transform="matrix(.26458 0 0 .26458 0 8.7546e-6)">
   <path d="m224 311.52z" fill="none" stroke="#0f141b" stroke-linecap="round" stroke-linejoin="round" stroke-miterlimit="10" stroke-width=".5"/>
  </g>
  <g transform="matrix(.26458 0 0 .26458 39.624 83.778)">
   <path d="m0 0c-3.04 1.6-13.92 17.92-14.56 19.2-0.48 1.28 10.4-2.24 17.28-3.68-7.68 3.84-15.68 7.2-16.96 8.48-1.28 1.12-10.08 24.48-12.64 41.92-0.8 4.48 1.28 2.08 5.28-0.48 64.16-41.6 154.4-33.92 155.2-33.76l1.6 0.48v-18.88l-0.64-0.48c-20.16-10.4-89.6-35.84-134.56-12.8z" fill="#0f141b"/>
  </g>
  <g transform="matrix(.26458 0 0 .26458 74.676 87.715)">
   <path d="m0 0v13.92c-11.52-1.92-86.24-11.84-156.16 34.4 2.4-12.16 10.4-33.76 11.68-37.28 0.96-0.48 19.52-10.56 23.68-13.12 4.32-2.56 5.28-3.04 1.28-2.4-3.84 0.64-16.48 3.52-21.6 4.64 2.4-3.52 6.72-9.6 10.4-12.64 58.56-19.04 110.4 2.08 130.72 12.48z" fill="#e85382"/>
  </g>
  <g transform="matrix(.26458 0 0 .26458 56.896 82.55)">
   <path d="m0 0c12.48 6.72 22.88 17.76 27.36 31.36 20.48-0.8 35.2 1.28 39.84 2.08v-13.92c-12.48-6.4-36.8-16.8-67.2-19.52z" fill="#c94772"/>
  </g>
  <g transform="matrix(.26458 0 0 .26458 49.445 82.042)">
   <path d="m0 0h-0.16c-2.08 1.44-4.96 2.72-7.52 3.68-3.68 1.6-7.36 2.88-7.84 4.32-0.8 3.04 16.32 14.08 18.08 14.72 2.72 0.96 34.72-9.76 35.04-9.92l0.32-0.48c0.16-1.6-2.88-5.6-8-11.68l-0.32-0.32c-9.92-0.96-19.84-1.12-29.6-0.32z" fill="#0f141b"/>
  </g>
  <g transform="matrix(.26458 0 0 .26458 46.016 84.243)">
   <path d="m0 0c0 1.92 13.6 11.52 16.32 12.64 1.92 0.48 30.56-7.84 32.64-8.96 0-0.96-2.4-4.32-7.2-9.92-9.12-0.96-19.04-1.12-29.28-0.16-1.92 1.12-4.32 2.08-6.4 3.04-2.88 1.12-5.92 2.4-6.08 3.36z" fill="#fceef4"/>
  </g>
  <g transform="matrix(.26458 0 0 .26458 39.539 91.567)">
   <path d="m0 0c-0.8 1.28 12.64 15.84 12.64 15.84l0.96-0.48c6.56-2.72 13.6-5.28 20.48-7.36h0.16l0.16-0.16c1.44-1.92 2.72-4.96 2.72-7.84 0-0.96-0.16-1.76-0.32-2.56-0.64-1.6-1.6-2.72-3.2-3.2-3.04-0.8-11.52-2.88-15.2-3.36-3.84-0.48-17.44 7.52-18.4 9.12z" fill="#0f141b"/>
  </g>
  <g transform="matrix(.26458 0 0 .26458 41.868 93.853)">
   <path d="m0 0c-2.56-2.88-6.4-7.04-6.4-8v-0.16c0.64-1.12 12.8-8.32 16-7.84 3.52 0.32 11.68 2.24 14.56 3.2 1.12 0.32 1.92 1.12 2.4 2.4 0.16 0.64 0.32 1.44 0.32 2.08 0 2.4-1.12 5.12-2.4 6.88-6.56 2.08-13.12 4.32-19.52 6.88-0.48-0.48-4.96-5.44-4.96-5.44z" fill="#fceef4"/>
  </g>
  <g transform="matrix(.26458 0 0 .26458 77.047 87.63)">
   <path d="m0 0-0.32 0.32-0.16 0.48c0 0.32-1.6 8.96 0.96 14.72l0.48 1.12 1.12-0.32c64.32-18.56 130.24 48.8 130.88 49.44 0 0 7.52-4.48 7.52-5.44-0.15999-0.96-4.64-6.24-8-11.04 3.84 2.56 8.8 5.6 9.92 4.64 1.12-0.8 4.8-13.76 4-16-0.79998-2.24-11.04-11.36-16.8-17.28 5.28 2.24 12.96 7.52 13.6 5.92 0.8-1.6-0.96-25.92-8.32-32.96-55.2-39.2-120.48-6.4-134.88 6.4z" fill="#0f141b"/>
  </g>
  <g transform="matrix(.26458 0 0 .26458 112.23 86.953)">
   <path d="m0 0c4.64 5.92 6.56 19.36 7.2 24.8-3.36-1.6-10.08-4.48-15.84-6.88-5.6-2.4-4.64-1.12-1.44 2.24 3.04 3.2 19.36 20.16 20.48 21.12-0.32 1.28-2.56 9.6-3.2 12.16-2.56-1.6-8.32-4.16-11.52-5.92s-5.6-4-2.72-0.16c3.04 4 9.6 13.44 10.88 15.2l-2.88 2.88c-8.32-8.32-70.08-66.08-131.2-49.44-0.64-1.92-0.96-4.16-0.96-6.08 0-2.56 0.32-4.64 0.48-5.6 14.56-12.64 79.52-43.2 130.72-4.32z" fill="#e85382"/>
  </g>
  <g transform="matrix(.26458 0 0 .26458 96.986 81.915)">
   <path d="m0 0c-33.76-0.16-63.84 15.36-73.12 23.36-0.16 0.96-0.48 3.04-0.48 5.6 0 1.92 0.32 4.16 0.96 6.08 15.2-4.16 30.56-3.68 45.12-0.48 4.48-14.24 14.56-27.04 27.52-34.56z" fill="#c94772"/>
  </g>
  <g transform="matrix(.26458 0 0 .26458 103.29 88.519)">
   <path d="m0 0c9.92 5.92 19.36 12.48 28.64 19.36-2.24-2.24-4.16-4.32-4.96-5.12-3.2-3.36-4.16-4.64 1.44-2.24 5.76 2.4 12.48 5.28 15.84 6.88-0.48-3.36-1.28-9.44-2.88-15.04-12.32-3.68-25.6-4.96-38.08-3.84z" fill="#c94772"/>
  </g>
  <g transform="matrix(.26458 0 0 .26458 98.679 81.661)">
   <path d="m0 0c-5.28 4-7.84 7.84-7.84 11.2 0 0.48 0 0.96 0.16 1.44 0.48 2.24 8.48 9.92 11.2 10.88 8.64 3.04 22.88-2.24 23.36-3.68 0.16-0.48 3.36-9.44 2.24-13.6v-0.16l-0.32-0.16c-8.96-3.36-18.56-5.44-28.48-6.08h-0.16z" fill="#0f141b"/>
  </g>
  <g transform="matrix(.26458 0 0 .26458 99.78 87.376)">
   <path d="m0 0c-2.72-0.96-10.08-7.68-10.4-9.28 0-0.32-0.16-0.64-0.16-1.12 0-3.52 3.84-7.36 7.2-9.92 9.44 0.64 18.4 2.56 26.88 5.76 0 0.32 0.16 0.8 0.16 1.44 0 3.2-1.44 8.16-2.4 10.72-0.64 0.48-12.96 5.28-21.28 2.4z" fill="#fceef4"/>
  </g>
  <g transform="matrix(.26458 0 0 .26458 104.73 94.869)">
   <path d="m0 0c-1.44 1.6-1.12 4.48-0.8 7.36 0.32 2.08 0.64 4.32 0.16 6.08v0.32l7.84 5.76 0.32-0.16c4.16-2.4 8.48-3.2 12.32-2.4l0.64 0.16v-0.64c0-7.2-3.68-18.08-5.6-19.52-1.28-0.96-11.04-1.28-14.88 3.04z" fill="#0f141b"/>
  </g>
  <g transform="matrix(.26458 0 0 .26458 104.99 97.875)">
   <path d="m0 0c0-1.28-0.16-2.72-0.32-4s-0.32-2.4-0.32-3.52c0-1.28 0.16-2.24 0.8-3.04 3.36-3.52 11.68-2.88 12.64-2.24 1.44 1.12 5.12 10.24 5.28 17.12-3.68-0.64-7.68 0.16-11.68 2.24-0.48-0.32-6.08-4.48-6.56-4.8 0.16-0.64 0.16-1.12 0.16-1.76z" fill="#fceef4"/>
  </g>
  <g transform="matrix(.26458 0 0 .26458 87.376 85.767)">
   <path d="m0 0c-0.48 0.16-0.64 0.48-0.8 0.96-0.32 1.76 11.2 13.44 11.2 13.44h0.32c8 0.64 18.08-1.12 18.56-3.84 0.48-2.4-5.92-10.72-7.04-11.52-1.6-1.28-21.28 0.48-22.24 0.96z" fill="#0f141b"/>
  </g>
  <g transform="matrix(.26458 0 0 .26458 89.535 88.434)">
   <path d="m0 0c-2.88-2.72-7.52-7.36-7.52-8.64v-0.16l0.16-0.16c1.44-0.48 19.2-1.76 20.48-1.12 1.28 1.12 6.88 8.8 6.56 10.24-0.32 1.28-8 3.2-16.8 2.72l-2.88-2.88z" fill="#fceef4"/>
  </g>
  <g transform="matrix(.26458 0 0 .26458 87.588 86.064)">
   <path d="m0 0-0.16 0.16v0.16c0 1.28 4.64 5.92 7.52 8.64l2.88 2.88h0.64c2.56-4.48 6.08-8.64 8.64-13.12-4-0.32-18.24 0.8-19.52 1.28z" fill="#d9ced4"/>
  </g>
  <g transform="matrix(.26458 0 0 .26458 72.94 81.407)">
   <path d="m0 0c-1.92-1.76-12.96-14.72-14.08-12.8-0.96 1.76-3.52 15.36-4 17.76-2.56-0.48-15.36-1.92-17.6-2.24-2.24-0.48 3.52 21.12 8.96 33.44 3.2 7.52 22.72 8.48 36.96 7.68 13.92-0.8 31.84-2.56 34.24-10.08 3.84-12.32 8.16-27.68 9.28-32.16 1.28-4.48 1.44-5.28-0.16-4.32s-5.12 2.24-6.72 2.88c-0.64-2.24-2.24-10.56-3.36-11.04-1.12-0.32-7.2 7.84-9.44 10.24-0.96-3.04-4-12.96-4.64-13.12s-9.12 9.28-11.2 11.2c-1.28-2.24-5.92-11.52-6.72-10.88s-9.92 11.36-11.52 13.44z" fill="#0f141b"/>
  </g>
  <g transform="matrix(.26458 0 0 .26458 73.279 82.169)">
   <path d="m0 0c1.76-2.08 8.96-11.52 9.6-12.48 0.64-0.8 6.88 10.56 6.88 10.56s10.08-9.12 10.56-9.6 4.8 13.28 4.8 13.28 8.32-9.76 9.12-10.08c0.96-0.32 2.88 9.28 2.88 9.28s2.88-1.12 4.16-1.76c-1.6 5.76-5.44 19.52-8.48 29.12-1.44 4.8-14.4 8.96-30.72 9.92-16.8 0.8-30.56-2.08-32.8-7.04-4.32-9.76-8.64-24-10.08-29.44 3.36 0.8 16.96 3.68 16.96 3.68s2.4-15.36 2.88-16.8c0.48-1.28 8.48 7.68 10.72 10.4 2.24 2.56 1.6 3.04 3.52 0.96z" fill="#d7a400"/>
  </g>
  <g transform="matrix(.26458 0 0 .26458 86.275 81.746)">
   <path d="m0 0c-4.16 4-11.04 12.16-13.12 14.72-0.8-1.6-4.8-12.48-5.92-12.96-1.28-0.32-9.6 11.68-10.72 12.96-1.6-2.56-5.92-12.48-7.04-12.32-1.28 0.16-6.4 14.4-7.2 15.84-1.28-1.28-14.4-16-15.2-15.84s-9.76 11.52-10.56 12.32c-1.92-1.44-9.76-7.84-13.44-12.16l-2.08 1.28c1.6 5.6 5.92 20 10.24 29.76 3.04 6.88 19.68 9.12 34.88 8.32 14.72-0.96 30.4-4.64 32.64-11.36 3.04-9.92 7.04-24.16 8.64-29.92l0.8-2.4z" fill="#0f141b"/>
  </g>
  <g transform="matrix(.26458 0 0 .26458 82.931 86.064)">
   <path d="m0 0c1.28-1.28 7.2-7.2 12.16-12.32-1.92 6.72-5.76 17.44-8.48 26.08-1.6 5.12-14.08 13.44-30.88 14.4-17.44 0.96-31.52-6.08-33.92-11.36-3.68-8.48-7.36-20.32-9.44-27.04 4.96 4.64 11.04 8.96 12.48 10.24 1.28 1.28 1.92 0.96 3.04-0.64 0.96-1.6 8.16-9.12 8.96-10.08 0.96 0.96 13.92 15.2 15.2 15.04 1.12 0 5.92-12.64 6.88-14.56 0.96 1.76 5.6 10.88 6.72 10.88 0.96 0.16 8.96-10.24 10.08-11.52 0.8 1.44 4.48 8.48 5.12 10.08 0.48 1.6 0.64 2.08 2.08 0.8z" fill="#f9be00"/>
  </g>
  <g transform="matrix(.26458 0 0 .26458 81.153 108.2)">
   <path d="m0 0c-16.96-1.92-46.88 6.72-52.16 21.12-2.08 5.28-1.28 13.76 13.44 23.52 3.84 2.72 19.04-10.4 27.36-18.24-0.96 4.64-4 19.52-4 19.52s19.68 10.56 21.28 10.72c1.6 0 5.12-12 7.52-19.04 0.16 6.24 0.64 9.92 0.16 16.48s0 7.04 2.08 7.52c0.8 0.16 13.12 4.64 15.04 5.44v1.12c12.8 4.32 29.6 10.24 30.4 10.08 1.12 0 0.32-14.56 0.64-23.68 1.92 9.76 4 24.32 5.28 26.08s12.64 1.12 13.12 1.12c0.32 0.32 9.28 6.24 10.56 5.92 1.12-0.48 0-12.16 0-19.2 1.44 5.44 3.36 12.96 4.64 18.4l0.16 0.48s18.88 10.08 19.68 9.6c0.64-0.64-0.8-7.84-1.44-13.28 2.4 6.4 4.8 13.6 5.44 14.72 0.64 0.96 17.6 6.08 18.24 5.12 0.64-0.8-0.96-9.92-1.6-16.32 2.08 5.44 6.08 18.24 7.36 19.52 1.12 1.28 15.52 3.2 16.16 2.56 0.64-0.48-12.48-23.68-14.56-27.68 3.84 1.44 21.44 8.96 21.76 8.16 0.47999-0.8-10.88-21.12-11.04-21.44 0-0.32-0.96-8.64-1.6-9.28-0.64-0.48-7.68-0.64-13.92-1.28 4.96-0.8 11.36-0.8 11.68-1.92 0.48001-0.96-8.64-11.2-9.6-11.52-0.96001-0.32-8.8-0.16-16.32-0.16 6.56-1.28 14.56-2.08 14.72-2.88 0.16-0.96-6.08-11.04-7.2-11.52-1.28-0.64-16.64-0.48-23.68-0.8 5.76-2.08 17.92-5.76 17.92-6.56s-14.08-12.8-16.64-13.12c-2.4-0.32-12.8 1.92-23.2 3.52 5.12-1.76 11.68-3.68 14.72-4.48 3.04-0.96 5.76-0.96 0.48-3.2-5.44-2.4-49.44-16.16-64.32-17.12-19.52-1.28-36 10.72-38.56 12z" fill="#0f141b"/>
  </g>
  <g transform="matrix(.26458 0 0 .26458 91.313 105.58)">
   <path d="m0 0c13.76 0.8 45.92 10.72 60.64 16.96-9.12 2.72-18.72 5.44-23.84 7.52-5.12 2.24-4 2.72 0.48 2.08s33.76-4.96 34.72-5.12c0.48 0.48 10.56 8.32 12.96 10.24-3.04 0.96-14.72 5.12-19.68 7.2-4.8 2.08-4.8 1.92 0.48 1.92 5.28 0.16 26.88 0.8 27.84 0.8 0.48 0.8 4 6.24 5.12 8.16-2.56 0.48-18.24 2.88-21.44 4.16-3.04 1.28-5.12 1.6 0.32 2.08 5.28 0.32 24.16 0.32 25.12 0.32 0.48 0.64 5.12 6.08 6.72 8-2.88 0.48-12 1.76-16.16 2.56-4.16 0.96-5.28 1.44 0 2.08 5.44 0.64 19.04 1.92 20.48 1.92 0.16 1.28 1.44 8 1.44 8s-16.64-2.72-16-1.28c0.8 1.6 16.8 3.04 16.96 3.36 2.08 3.84 6.24 12 7.68 14.88-3.84-1.6-21.92-8.32-21.92-8.32s13.6 25.76 15.36 28.96c-2.88-0.32-10.08-1.6-11.04-1.76-9.28-25.6-9.76-25.44-10.88-25.12-0.64 0.16 0.96 16.96 1.44 21.12-2.4-0.8-13.6-4-14.4-4.16-0.32-0.96-6.08-16.96-8-21.44-1.76-4.48-2.56-5.76-1.92 0.48s1.44 14.56 1.76 17.76c-2.72-1.44-14.56-7.2-15.36-7.52-6.24-25.6-7.68-28-7.68-25.44-0.16 2.72-0.96 20.48-0.96 23.52-2.24-1.28-8.64-4.96-8.64-4.96s-0.96-18.24-2.24-18.56 0.16 18.4-0.32 18.4c-3.04 0-7.68-0.32-8.64-0.32-0.32-1.44-4.16-24.8-6.88-33.44-2.72-8.48-3.04-5.28-3.2 1.12-0.32 6.24 0.48 26.4 0.32 29.12-1.44-0.64-15.52-6.08-27.2-10.56-0.16-0.16-0.48-21.6-1.6-23.84-0.96-2.4 0 23.2-0.32 23.04-7.36-2.88-13.44-5.12-13.92-5.28 0-1.28-0.8-19.68-0.8-28v-0.32c-0.16-1.12-0.8-5.76-2.08 0-1.12 5.76 0 0 0 0v0.16c0 2.56-4.8 14.88-8.16 23.2-1.76-0.8-16.64-8.32-17.92-8.96 0.32-1.44 4.96-24.48 4.96-24.48s-27.68 23.84-29.6 22.56c-10.88-7.2-15.2-14.24-12.64-21.12 4.96-13.28 50.72-19.68 50.72-19.68s23.84-12.96 37.92-12z" fill="#00a63c"/>
  </g>
  <g transform="matrix(.26458 0 0 .26458 101.68 115.23)">
   <path d="m0 0c10.24-10.88 25.6-9.28 38.08-10.88-2.72-2.08-5.12-4-5.28-4.16-0.96 0.16-30.24 4.48-34.72 5.12s-5.6 0.16-0.48-2.08c5.12-2.08 14.72-4.8 23.84-7.52-14.72-6.24-46.88-16.16-60.64-16.96-14.08-0.96-37.92 12-37.92 12s-45.76 6.4-50.72 19.68c-2.56 6.88 1.76 13.92 12.64 21.12 1.92 1.28 29.6-22.56 29.6-22.56s-4.64 23.04-4.96 24.48c0.48 0.32 2.88 1.44 5.76 2.88 34.4-41.44 74.4-25.12 84.8-21.12z" fill="#009233"/>
  </g>
  <g transform="matrix(.26458 0 0 .26458 0 8.7546e-6)">
   <path d="m319.84 439.36s-1.12 5.76 0 0z" fill="#fff"/>
  </g>
  <g transform="matrix(.26458 0 0 .26458 0 8.7546e-6)">
   <path d="m321.92 439.36" fill="#fff"/>
  </g>
  <g transform="matrix(.26458 0 0 .26458 81.153 108.37)">
   <path d="m0 0c-7.68 0.32-10.24 5.28-10.24 5.28l0.32 1.28c0.64-0.16 65.12-6.4 130.72 55.84 4 3.84 7.04 4.64 1.44-2.08-34.08-41.12-76.8-59.84-117.92-60.8l-4.32 0.48z" fill="#0f141b"/>
  </g>
  <g transform="matrix(.26458 0 0 .26458 81.534 108.75)">
   <path d="m0 0c43.2 1.28 81.76 19.68 110.08 50.08-49.28-44.64-105.6-47.52-116.64-46.56-10.88 0.8-4.48-4 6.56-3.52z" fill="#00a63c"/>
  </g>
  <g transform="matrix(.26458 0 0 .26458 81.534 108.75)">
   <path d="m0 0c-11.04-0.48-17.44 4.32-6.56 3.52 8.32-0.8 41.44 0.8 78.24 19.84 0.8-1.6 2.56-0.96 3.84-1.28-22.4-13.44-48-21.28-75.52-22.08z" fill="#009233"/>
  </g>
  <g transform="matrix(.26458 0 0 .26458 24.426 145.84)">
   <path d="m0 0c-4 2.72-17.76 15.36-17.76 28.96 0 11.04 6.24 17.28 12.8 28 4.48 7.36 0.48 12.96 0.48 14.88 0 1.44 0.64 2.72 1.28 3.68 8.8 13.28 67.52 16.16 82.24 10.08 16.16-6.72 14.88-8.8 9.92-27.68l-2.08-2.72c-4.16-15.68-37.76-44.64-63.04-54.24-10.72-4.16-18.72-4.48-23.84-0.96z" fill="#0f141b"/>
  </g>
  <g transform="matrix(.26458 0 0 .26458 24.172 165.4)">
   <path d="m0 0c-0.48-0.8-2.08-3.2 2.56-7.2 2.08-1.76 0-4.96-4.16-11.2-3.2-4.8-7.2-10.88-10.24-17.6-5.92-13.44 10.4-32.96 14.4-35.68 4.16-2.88 11.52-2.4 21.12 1.28 24.32 9.28 57.6 37.6 61.44 52.32l0.64 2.24c4.8 18.72 4.8 18.72-7.68 24.96-11.36 5.76-70.56 2.08-78.08-9.12z" fill="#5dc1cf"/>
  </g>
  <g transform="matrix(.26458 0 0 .26458 46.863 161.21)">
   <path d="m0 0-0.64-2.24c-3.84-14.72-37.12-43.04-61.44-52.32-5.44-2.08-10.24-3.04-14.08-3.04 12.8 16.48 44.48 50.08 27.2 64.8-17.28 14.56 3.2 19.68 8.48 20.16 14.56 0.8 28 0 32.8-2.4 12.48-6.24 12.48-6.24 7.68-24.96z" fill="#50a8b4"/>
  </g>
  <g transform="matrix(.26458 0 0 .26458 30.268 162.48)">
   <path d="m0 0c4.48 2.08 29.6 7.36 39.2 4.8 0 0 4-1.6-0.32-1.28-10.88 0.96-35.2-4-38.4-4.8-3.04-0.96-0.48 1.28-0.48 1.28z" fill="#0f141b"/>
  </g>
  <g transform="matrix(.26458 0 0 .26458 23.622 162.64)">
   <path d="m0 0c-4.64 2.56-10.56 11.04-11.36 16.32-0.96 5.12 0 5.76 4.8 5.6s15.52-3.68 17.28-4.16c0 0 4.32-9.44-6.4-18.24-0.8-0.48-2.56-0.48-4.32 0.48z" fill="#0f141b"/>
  </g>
  <g transform="matrix(.26458 0 0 .26458 21.294 167.56)">
   <path d="m0 0c-1.92-1.92 5.28-14.4 9.44-16.64 0.96-0.48 1.6-0.64 2.24-0.32 5.12 4.48 6.72 12.8 5.76 14.24s-15.36 4.64-17.44 2.72z" fill="#fff"/>
  </g>
  <g transform="matrix(.26458 0 0 .26458 24.85 163.53)">
   <path d="m0 0c-3.52 3.52-7.2 10.24-9.44 15.84 4.96-0.32 12.64-2.4 13.44-3.36 0.8-1.28-0.32-7.84-4-12.48z" fill="#dbdcdc"/>
  </g>
  <g transform="matrix(.26458 0 0 .26458 30.903 165.31)">
   <path d="m0 0c-5.44 5.6-10.24 19.36-4.64 22.88 2.88 1.76 22.24-6.08 24.16-8.16 0 0 0.8-7.2-9.28-17.28-3.04-2.88-5.92-2.08-10.24 2.56z" fill="#0f141b"/>
  </g>
  <g transform="matrix(.26458 0 0 .26458 32.766 164.85)">
   <path d="m0 0c2.4 0.48 9.76 10.08 10.08 14.72-2.08 1.76-17.92 8.64-20.32 7.68-2.24-0.8 0.8-21.6 10.24-22.4z" fill="#fff"/>
  </g>
  <g transform="matrix(.26458 0 0 .26458 32.851 164.89)">
   <path d="M 0,0 C -4.96,7.04 -6.4,14.08 -6.72,21.76 -1.12,20 8.16,15.84 9.76,14.56 9.44,10.08 2.4,0.8 0,0 Z" fill="#dbdcdc"/>
  </g>
  <g transform="matrix(.26458 0 0 .26458 41.529 165.23)">
   <path d="m0 0c-3.68 3.36-8.96 12-8.48 14.56 0 0 2.72 8.32 12.48 12.48 2.56 1.12 4 1.28 5.6-0.48 2.88-2.72 9.12-12.64 8.48-16.16-0.64-3.36-9.76-10.56-13.44-11.68-1.28-0.32-3.04-0.16-4.64 1.28z" fill="#0f141b"/>
  </g>
  <g transform="matrix(.26458 0 0 .26458 41.783 165.82)">
   <path d="m0 0c1.28-1.12 2.24-1.6 2.88-1.44 3.68 1.12 10.88 7.84 11.36 10.4 0.48 2.72-6.56 12.32-8.16 13.44-0.16 0.16-1.28 0-3.68-1.44-4-2.4-8.8-6.56-9.28-8.64-0.32-1.76 3.36-9.12 6.88-12.32z" fill="#fff"/>
  </g>
  <g transform="matrix(.26458 0 0 .26458 45.551 168.19)">
   <path d="m0 0c-0.48-2.56-7.68-9.28-11.36-10.4h-0.16c2.72 7.84 3.52 15.68 3.68 23.52 2.24-2.08 8.32-10.56 7.84-13.12z" fill="#dbdcdc"/>
  </g>
  <g transform="matrix(.26458 0 0 .26458 24.68 157.4)">
   <path d="m0 0c0.16 1.44 1.44 4 6.4 4.16 0 0 2.56-0.32 0.16-1.44-7.84-3.52-3.36-7.52-1.92-8.96 1.44-1.6 2.08-2.4-0.48-1.28s-4.8 4.48-4.16 7.52z" fill="#0f141b"/>
  </g>
  <g transform="matrix(.26458 0 0 .26458 102.74 163.45)">
   <path d="m0 0c-1.12 1.6-6.24 20-4.16 22.4 3.68 4.16 19.52-7.04 19.52-7.04-3.84-10.72-10.4-14.88-14.56-15.68-0.16 0-0.48 0-0.8 0.32z" fill="#0f141b"/>
  </g>
  <g transform="matrix(.26458 0 0 .26458 102.07 169.08)">
   <path d="m0 0c-0.16-0.32 3.2-17.28 4.16-19.68 1.92 1.44 9.12 5.6 10.24 12.64 0.48 2.08-14.24 7.36-14.4 7.04z" fill="#dbdcdc"/>
  </g>
  <g transform="matrix(.26458 0 0 .26458 103.04 139.74)">
   <path d="m0 0c8 20.48 25.76 52-5.44 108.16-4 7.04 6.56 25.76-49.12 28-28.8 1.12-46.56-10.88-47.36-24.96-0.8-13.92-16.32-36.8-3.84-57.44 12.32-20.64 97.6-74.08 105.76-53.76z" fill="#5dc1cf"/>
  </g>
  <g transform="matrix(.26458 0 0 .26458 103.04 139.74)">
   <path d="m0 0c-2.24-5.28-23.04-18.88-16.8 6.4 10.08 39.84 12.64 97.44-33.76 102.56 2.88 8.16 3.2 16.32 1.92 25.76 0.64 2.4 8.32-2.4 9.76 0.16 37.92-4.8 29.92-20.48 33.44-26.72 31.2-56.16 13.44-87.68 5.44-108.16z" fill="#50a8b4"/>
  </g>
  <g transform="matrix(.26458 0 0 .26458 102.7 139.95)">
   <path d="m0 0c3.04 6.4 24.32 52.96-5.44 106.72-0.8 1.44-1.12 3.52-1.44 5.44-0.96 8-2.56 20-46.4 21.76-29.28 1.28-45.28-10.88-46.08-23.52-0.16-4.48-1.6-9.12-3.2-14.08-3.52-11.36-7.52-24.48-0.64-42.88l-2.72-0.96c-7.04 13.92-6.4 25.92-1.12 42.72 1.6 4.96 5.28 11.2 4.96 15.36-1.12 16.8 17.92 27.36 48.96 26.24 46.24-1.92 48.96-13.28 49.12-24.16 0-1.92 0.32-3.52 0.96-4.64 24-38.24 20.96-80.64 5.44-109.44-2.88-5.28-5.44-5.12-2.4 1.44z" fill="#0f141b"/>
  </g>
  <g transform="matrix(.26458 0 0 .26458 82.55 166.92)">
   <path d="m0 0c3.04 1.92 16.8 7.04 36.96 7.2 6.72 0.16 13.92-2.08 1.28-1.92-14.72 0.32-32.96-4.64-37.6-6.4-4.48-1.76-3.68-0.64-0.64 1.12z" fill="#0f141b"/>
  </g>
  <g transform="matrix(.26458 0 0 .26458 75.226 168.28)">
   <path d="m0 0c-4.32 3.04-15.68 18.56-13.92 21.76 1.76 3.84 22.88 0.64 23.2 0.64 3.36-0.64 4.16-1.6 4.16-2.4 0-1.44-1.12-15.36-10.08-20.96 0 0-2.08 0-3.36 0.96z" fill="#0f141b"/>
  </g>
  <g transform="matrix(.26458 0 0 .26458 72.39 173.65)">
   <path d="m0 0c0-2.88 7.52-14.72 12-17.92 0.8-0.64 1.28-0.64 1.28-0.48 4.96 3.68 8.16 14.88 8.48 16.96-2.24 1.28-19.68 2.56-21.76 1.6z" fill="#fff"/>
  </g>
  <g transform="matrix(.26458 0 0 .26458 76.962 170.1)">
   <path d="m0 0c-6.08 2.72-12.48 6.4-16.96 12-0.16 0.64-0.32 1.12-0.32 1.44v0.16c2.08 0.8 19.52-0.32 21.76-1.6-0.16-1.44-1.92-7.36-4.48-12z" fill="#dbdcdc"/>
  </g>
  <g transform="matrix(.26458 0 0 .26458 85.852 175.85)">
   <path d="m0 0c0 0.48 0.32 2.4 2.56 4.32 3.2 3.04 12.64 8.64 14.72 8.32 2.72-0.16 10.56-12.16 10.4-14.72-0.16-2.72-12-13.44-14.24-13.44-2.4 0-13.44 13.6-13.44 15.52z" fill="#0f141b"/>
  </g>
  <g transform="matrix(.26458 0 0 .26458 89.493 172.68)">
   <path d="m0 0c1.6 0.16 10.56 8.16 10.72 10.08 0.16 2.4-6.4 11.36-7.84 11.52-1.12 0.16-7.68-3.68-11.36-7.04-1.92-1.76-2.08-2.56-2.08-2.56 0.16-1.76 8.96-11.68 10.56-12z" fill="#fff"/>
  </g>
  <g transform="matrix(.26458 0 0 .26458 99.356 169.5)">
   <path d="m0 0c-1.28 0.96-11.68 11.52-11.68 16.32 0 0.48 0.64 1.76 0.8 2.08 1.12 3.2 13.76 3.36 17.92 2.88 3.2-0.16 5.12-1.6 5.6-2.88 1.76-4.8-8.32-17.12-10.24-18.4-0.48-0.32-0.96-1.12-2.4 0z" fill="#0f141b"/>
  </g>
  <g transform="matrix(.26458 0 0 .26458 97.028 173.91)">
   <path d="m0 0c-1.6-1.76 8.16-13.76 9.92-14.08 1.76-0.16 11.52 14.4 9.12 15.84-2.56 1.44-17.44 0-19.04-1.76z" fill="#fff"/>
  </g>
  <g transform="matrix(.26458 0 0 .26458 98.637 171.15)">
   <path d="M 0,0 C -3.36,3.68 -7.04,9.28 -6.08,10.4 -4.64,12 7.2,13.28 11.68,12.48 8.64,7.04 6.24,1.44 0,0 Z" fill="#dbdcdc"/>
  </g>
  <g transform="matrix(.26458 0 0 .26458 0 8.7546e-6)">
   <path d="m367.68 658.24z" fill="none" stroke="#0f141b" stroke-linecap="round" stroke-linejoin="round" stroke-miterlimit="10" stroke-width=".5"/>
  </g>
  <g transform="matrix(.26458 0 0 .26458 99.018 155.91)">
   <path d="m0 0s-2.4 0.16 0.16 1.44c6.4 3.2 0.48 9.44-2.08 9.6-2.4 0 0.16 1.28 0.16 1.28 6.24 0.48 8.16-4.32 8-6.24-0.16-3.36-3.2-6.08-6.24-6.08z" fill="#0f141b"/>
  </g>
  <g transform="matrix(.26458 0 0 .26458 115.06 145.67)">
   <path d="m0 0s-2.24 0.16 0 1.6c5.76 3.68 0.48 11.04-1.76 11.04-2.24 0.16 0.16 1.6 0.16 1.6 5.6 0.64 7.36-5.12 7.2-7.2-0.16-3.84-3.04-7.2-5.6-7.04z" fill="#0f141b"/>
  </g>
  <g transform="matrix(.26458 0 0 .26458 124.71 136.99)">
   <path d="m0 0s-2.24 0.16 0 1.44c5.76 3.2 0.48 9.6-1.76 9.6-2.24 0.16 0.16 1.44 0.16 1.44 5.6 0.48 7.36-4.48 7.2-6.4-0.32-3.36-3.04-6.24-5.6-6.08z" fill="#0f141b"/>
  </g>
  <g transform="matrix(.26458 0 0 .26458 124.25 147.49)">
   <path d="m0 0s-2.4 0.16 0.16 1.76c6.4 4.16 0.48 12.48-2.08 12.64-2.4 0.16 0.16 1.76 0.16 1.76 6.24 0.64 8.16-5.76 8-8.32-0.16-4.32-3.2-8-6.24-7.84z" fill="#0f141b"/>
  </g>
  <g transform="matrix(.26458 0 0 .26458 89.408 155.74)">
   <path d="m0 0c7.36 2.88 4 8.32-0.32 9.44-2.4 0.64 0 1.28 0 1.28 3.84 0 7.04-2.4 7.52-5.44 0.64-4.8-1.6-6.72-6.72-6.56-2.88 0-2.4 0.48-0.48 1.28z" fill="#0f141b"/>
  </g>
  <g transform="matrix(.26458 0 0 .26458 97.705 145.08)">
   <path d="m0 0s-2.72 0.64 0 1.28c2.72 0.8 7.36 4.48 0.32 7.36-1.76 0.8-1.12 1.44 0.32 1.44 3.2-0.16 5.92-3.2 5.6-5.44-0.32-2.08-1.6-4.8-6.24-4.64z" fill="#0f141b"/>
  </g>
  <g transform="matrix(.26458 0 0 .26458 26.289 153.75)">
   <path d="m0 0c5.44 2.88 52.64 27.52 57.6 32.16 13.28 12.16 60.96 16 77.28 9.28 9.76-3.84 21.92-10.24 35.2-16.48 15.52-7.52 32.32-15.04 39.04-16.64 14.88-3.68 20.48-10.72 27.36-26.4 1.12-2.72 1.92-8.8 1.92-11.68 0-11.04-9.28-21.92-25.44-36.64 6.08-16.32 8.8-28.16 8.8-35.84 0-2.4 0.48001-7.84-3.36-9.92-11.36-5.92-53.44 0-72.32 7.36-23.04-4.64-63.2-7.84-81.76-0.8-6.08-1.28-42.24-11.04-55.68-5.28-1.6 0.64-2.56 2.56-2.88 5.12-0.16 0.8-0.16 1.6-0.16 2.56 0 10.24 6.08 28.64 10.24 34.56-7.52 6.24-21.92 23.84-27.36 32.48-4.16 6.88 4 32.48 11.52 36.16z" fill="#0f141b"/>
  </g>
  <g transform="matrix(.26458 0 0 .26458 27.093 153.2)">
   <path d="m0 0c-6.88-4.16-12.16-24.16-10.72-30.56 1.28-6.08 20.8-30.88 25.44-33.92 6.56-4.48 5.6-7.68 0.48-3.84-5.92-9.76-11.04-25.44-9.76-34.88 0.16-1.28 0.64-2.72 1.44-3.2 4.8-2.72 35.04 1.92 54.24 5.6l0.48 0.16 0.32-0.16c17.92-7.04 58.08-3.84 80.96 0.8h0.79999c19.52-7.68 59.04-11.84 69.28-7.2 0.95999 0.48 1.76 1.12 1.92 1.6 2.24 6.08 0.15999 18.72-7.52 39.2 0 0-0.96001-0.8-3.84-1.12-2.72-0.48 3.2 4.48 3.2 4.48 24.96 22.4 26.08 36.64 22.56 44.64-6.56 14.88-12.16 20.64-24.48 24.48-6.72 2.08-21.6 9.28-37.28 16.8-13.28 6.24-27.04 12.8-36.64 16.8-20.16 8.16-63.52-0.16-73.28-7.68-6.56-4.96-49.44-26.88-57.6-32z" fill="#5dc1cf"/>
  </g>
  <g transform="matrix(.26458 0 0 .26458 32.893 154.18)">
   <path d="m0 0c-11.2-1.44-9.92-11.52-18.24-18.56 5.6 5.92 22.72 6.08 18.24 6.08 4.48 0 27.2 20.16 27.2 20.16s-17.6-6.24-27.2-7.68z" fill="#50a8b4"/>
  </g>
  <g transform="matrix(.26458 0 0 .26458 42.799 132.88)">
   <path d="m0 0c-11.2 7.04-8.32 24.96-16.64 36.16 5.44 2.72 13.76 8.32 15.2 8.32 12.48-19.84 62.4-41.6 79.04-47.2 4-6.4 19.52-24.16 51.36-29.28-15.2 0.96-33.28 4.32-44.64 8.8h-0.8c-22.88-4.64-63.04-7.84-80.96-0.8l-0.32 0.16-0.48-0.16c-13.76-2.72-33.12-5.76-44.8-6.24 16 7.36 31.36 16.48 43.04 30.24z" fill="#50a8b4"/>
  </g>
  <g transform="matrix(.26458 0 0 .26458 81.788 136.53)">
   <path d="m0 0s-5.92-4.96-3.2-4.48c2.88 0.32 3.84 1.12 3.84 1.12 7.68-20.48 9.76-33.12 7.52-39.2 0-0.16-0.16-0.32-0.32-0.48-12.64 1.44-23.52 8.96-36.8 16.16-7.84 4.32-18.88 13.6-27.84 16.48 16.64 11.04 15.2 19.2 29.92 29.44 7.2 4.96 10.88 9.12 12.16 12.64 0.8 6.88-11.04 16-18.56 16-15.52 0.8-31.52 5.28-41.92 6.56-12.16 4-21.28 14.08-40.8 19.36-2.72 2.72-22.08 21.6-33.12 21.44 9.76 7.52 53.12 15.84 73.28 7.68 9.6-4 23.36-10.56 36.64-16.8 15.68-7.52 30.56-14.72 37.28-16.8 12.32-3.84 17.92-9.6 24.48-24.48 3.52-8 2.4-22.24-22.56-44.64z" fill="#50a8b4"/>
  </g>
  <g transform="matrix(.26458 0 0 .26458 73.491 130.26)">
   <path d="m0 0c-1.44 1.44-0.8 2.08 1.44 3.04 2.4 1.12 15.52 8 19.68 10.08 4 2.24 5.44 1.92 6.4-0.96s7.84-19.68 7.84-25.28c0-0.8-0.48-1.44-1.28-1.76-8-3.04-30.24 10.72-34.08 14.88z" fill="#0f141b"/>
  </g>
  <g transform="matrix(.26458 0 0 .26458 82.381 126.66)">
   <path d="m0 0c0.16 0 0.32 0.16 0.32 0.48 0 4.8-7.36 21.92-8.96 25.44-3.04-1.6-15.52-8.64-21.76-10.88 8.16-7.68 26.88-16.48 30.4-15.04z" fill="#c6000b"/>
  </g>
  <g transform="matrix(.26458 0 0 .26458 82.381 126.66)">
   <path d="m0 0c-3.52-1.44-22.24 7.36-30.4 15.04 1.44 0.48 3.2 1.28 5.12 2.08 10.08-4.96 15.2-4.48 21.44-2.72 2.08-5.6 4.16-11.36 4.16-13.92 0-0.32-0.16-0.48-0.32-0.48z" fill="#a30000"/>
  </g>
  <g transform="matrix(.26458 0 0 .26458 30.734 127.89)">
   <path d="m0 0c-2.72 3.68 2.08 15.52 4.8 20 2.56 4.48 1.6 6.4 5.92 3.36 4.32-3.2 12.16-8.8 14.4-10.4s1.92-1.28-0.8-3.2c-13.92-9.92-23.84-10.24-24.32-9.76z" fill="#0f141b"/>
  </g>
  <g transform="matrix(.26458 0 0 .26458 31.115 129.07)">
   <path d="m0 0c0-0.64 0.16-1.28 0.48-1.6 0.16-0.16 0.48-0.16 1.12-0.16 4.96 0.16 17.76 7.04 20.64 9.44-5.92 2.72-11.04 6.88-14.72 9.76 0 0-0.32 0.48-0.8 0.64-1.92-2.72-6.72-13.6-6.72-18.08z" fill="#c6000b"/>
  </g>
  <g transform="matrix(.26458 0 0 .26458 31.538 128.61)">
   <path d="m0 0c-0.64 0-0.96 0-1.12 0.16-0.32 0.32-0.48 0.96-0.48 1.6 0 4.16 4.32 14.24 6.4 17.6 0.8-5.44 0.32-12.32 5.92-15.68-4-1.92-8.32-3.68-10.72-3.68z" fill="#a30000"/>
  </g>
  <g transform="matrix(.26458 0 0 .26458 31.623 150.58)">
   <path d="m0 0c-1.28 0.16-3.36 0.96-3.36 1.28-0.32 1.12 0.96 2.88 26.24 19.36 12.32 8 25.6 17.28 28.48 18.88 5.6 3.36 37.92 6.4 51.2 4.8 13.44-1.6 61.12-27.84 68.64-42.72l0.8-1.6h-1.76c-15.52 0-44.96 4.48-87.84 13.44l-3.36 0.64c-2.72 0.64-14.24-1.44-24.96-4.16-16.96-4.32-37.92-10.88-54.08-9.92z" fill="#0f141b"/>
  </g>
  <g transform="matrix(.26458 0 0 .26458 46.397 153.63)">
   <path d="m0 0c11.84 3.04 20.32 5.28 23.68 4.64l3.36-0.8c40.96-8.48 72.32-15.68 88.16-16-9.92 14.56-59.2 41.28-71.04 42.56-13.6 1.6-42.4-2.4-47.36-5.12-8-4.64-46.08-29.28-50.56-34.72 15.84-0.8 37.12 5.12 53.76 9.44z" fill="#922f00"/>
  </g>
  <g transform="matrix(.26458 0 0 .26458 51.689 154.56)">
   <path d="m0 0c0.48-0.32-52.48-12.48-52.48-12.48-0.8 1.44-2.24 4.96-0.32 8.64 5.44 9.92 28 23.68 53.28 24.96l1.44 0.16c25.28 1.28 53.92-10.08 65.76-21.44 4.64-4.48 7.84-9.44 4.48-12.32z" fill="#0f141b"/>
  </g>
  <g transform="matrix(.26458 0 0 .26458 52.663 154.86)">
   <path d="m0 0 4.96-1.12c12-2.56 39.68-8.48 61.6-11.52-0.32 3.04-2.56 6.56-6.24 10.08-11.52 10.88-37.28 21.92-62.08 20.64-24.16-1.28-47.04-15.84-52-25.12-0.8-1.44-1.12-2.56-1.12-3.68 0-0.48 0.16-0.8 0.32-1.12 9.44 1.76 19.68 4.32 28.64 6.72 13.12 3.36 22.56 5.76 25.92 5.12z" fill="#ed8599"/>
  </g>
  <g transform="matrix(.26458 0 0 .26458 32.851 139.57)">
   <path d="m0 0c0.8 23.52 12.48 28.16 17.28 28.8 6.88 0.96 15.68-4.48 17.12-10.24 0 0 5.92 4 0.32-2.72-11.52-13.28-22.24-16.8-33.28-18.24-10.4-1.44-5.92 1.44-1.44 2.4z" fill="#0f141b"/>
  </g>
  <g transform="matrix(.26458 0 0 .26458 37.465 146.3)">
   <path d="m0 0c-8.64-0.8-14.08-9.76-15.04-25.12 4.64 1.12 18.88 4.64 30.24 16.48-1.6 4.64-8.32 9.44-15.2 8.64z" fill="#fff"/>
  </g>
  <g transform="matrix(.26458 0 0 .26458 35.729 140)">
   <path d="m0 0c-0.96 10.88 3.68 16.8 7.68 17.76 4.16 0.8 8.64-2.08 10.72-7.2l-0.16-1.12-0.32-0.32c-4.8-3.84-10.4-7.04-16.32-9.44l-0.96-0.48z" fill="#0f141b"/>
  </g>
  <g transform="matrix(.26458 0 0 .26458 37.931 144.1)">
   <path d="m0 0c3.04 0.8 6.24-1.44 8-5.28-4.96-3.84-9.92-6.56-14.4-8.32 0 5.12 1.76 12.64 6.4 13.6z" fill="#c6000b"/>
  </g>
  <g transform="matrix(.26458 0 0 .26458 0 8.7546e-6)">
   <path d="m147.84 536.8c-2.08-1.44-4.16-2.56-6.24-3.68 1.12 10.08 5.28 6.4 6.24 3.68z" fill="#fff"/>
  </g>
  <g transform="matrix(.26458 0 0 .26458 34.375 137.29)">
   <path d="m0 0c-2.4 2.4-1.44 3.84 2.08 1.6 3.68-2.4 10.4-7.52 14.4-8.8 4.16-1.44 3.84-1.92-0.32-1.44s-13.76 6.24-16.16 8.64z" fill="#0f141b"/>
  </g>
  <g transform="matrix(.26458 0 0 .26458 41.91 137.33)">
   <path d="m0 0c0.48 6.24 0.48 13.92 0.64 16.96 0 2.88 2.4 3.2 2.72-0.48 0.16-3.52-0.48-10.72-1.44-15.36s-2.4-7.2-1.92-1.12z" fill="#0f141b"/>
  </g>
  <g transform="matrix(.26458 0 0 .26458 66.294 133.65)">
   <path d="m0 0c-6.72 4-10.56 26.4-10.56 29.12s0.16 5.12 1.44 0.32c1.28-4.96 5.12-24.48 10.08-27.36 1.12-0.64 2.56-0.48 4.48-0.96s1.76-1.76-0.16-1.92c-1.92-0.32-3.68 0-5.28 0.8z" fill="#0f141b"/>
  </g>
  <g transform="matrix(.26458 0 0 .26458 70.654 134.28)">
   <path d="m0 0c2.4 1.12 8.48 4.96 12.32 7.52 4 2.56 4.32 2.88 1.12-0.8-3.2-3.52-8-6.56-12.48-8.48s-3.36 0.8-0.96 1.76z" fill="#0f141b"/>
  </g>
  <g transform="matrix(.26458 0 0 .26458 64.77 143.47)">
   <path d="m0 0c-3.84 6.4-3.36 7.68 0.8 2.88 4.64 7.2 14.72 12.16 22.72 9.76 5.6-1.6 15.84-9.28 14.56-33.92 5.28-0.32 2.24-2.4-1.12-2.24-13.92 0.64-30.24 12.64-36.96 23.52z" fill="#0f141b"/>
  </g>
  <g transform="matrix(.26458 0 0 .26458 74.21 137.96)">
   <path d="m0 0v1.28c0 16.32-4.8 27.04-13.12 29.6-6.88 2.08-15.2-1.6-20.16-9.12 10.56-13.12 29.44-22.72 33.28-21.76z" fill="#fff"/>
  </g>
  <g transform="matrix(.26458 0 0 .26458 71.12 138.56)">
   <path d="m0 0c-3.52 1.6-8.8 4.64-14.08 8.8l-1.12 1.92c1.12 5.44 7.2 8.8 12.16 6.88 5.44-2.08 8-9.76 4.48-18.08l-0.8 0.16z" fill="#0f141b"/>
  </g>
  <g transform="matrix(.26458 0 0 .26458 69.003 142.66)">
   <path d="m0 0c2.4 0.64 5.12-0.32 6.88-2.4 1.44-1.6 2.08-3.84 2.08-6.24 0-1.28-0.16-3.36-0.64-5.12-4 2.24-8.64 5.28-12.96 8.96 0.96 2.4 2.72 4.32 4.64 4.8z" fill="#c6000b"/>
  </g>
  <g transform="matrix(.26458 0 0 .26458 0 8.7546e-6)">
   <path d="m264.32 528.48c-1.92 1.12-3.68 2.4-5.44 3.68 1.6 3.6801 6.08 4.48 5.44-3.68z" fill="#fff"/>
  </g>
  <g transform="matrix(.26458 0 0 .26458 32.724 153.97)">
   <path d="m0 0c2.08 0.64 6.88-9.92 7.84-11.84 0.64-1.28-16.8-0.96-16.8-0.96s7.04 12.16 8.96 12.8z" fill="#0f141b"/>
  </g>
  <g transform="matrix(.26458 0 0 .26458 31.115 150.96)">
   <path d="M 0,0 C 1.92,0 11.52,0 11.2,0.64 10.24,2.88 6.56,9.12 5.76,8.8 5.12,8.64 1.6,2.72 0,0 Z" fill="#fff"/>
  </g>
  <g transform="matrix(.26458 0 0 .26458 78.19 150.41)">
   <path d="m0 0c-0.16-2.24-15.52 0.64-15.52 0.64s5.6 12.32 8 12.32c2.4 0.16 7.84-10.88 7.52-12.96z" fill="#0f141b"/>
  </g>
  <g transform="matrix(.26458 0 0 .26458 77.809 150.41)">
   <path d="m0 0c-1.12 4-5.28 10.4-6.4 10.08-1.28-0.32-4.16-4.96-5.6-8.8 1.6 0 10.08-1.12 12-1.28z" fill="#fff"/>
  </g>
  <g transform="matrix(.26458 0 0 .26458 42.841 154.86)">
   <path d="m0 0c-0.8-0.16-5.12 6.08-5.76 7.52-0.48 0.8 0.64 3.68 1.76 4.32 2.08 1.28 4.96 0.16 5.44-0.64 0.32-0.8-0.64-11.2-1.44-11.2z" fill="#0f141b"/>
  </g>
  <g transform="matrix(.26458 0 0 .26458 42.714 155.32)">
   <path d="m0 0c0.32 0.32 1.12 8.16 0.48 8.48s-2.4 0.8-3.52 0.16c-0.64-0.32-0.96-1.28-0.96-2.72 0.16-0.32 3.68-6.24 4-5.92z" fill="#fff"/>
  </g>
  <g transform="matrix(.26458 0 0 .26458 45.932 156.34)">
   <path d="m0 0c-0.8-0.32-6.24 7.2-6.4 7.84-0.64 1.12 0.32 3.52 1.76 4.64 2.08 1.44 6.24 0.48 6.4 0 0.32-0.48-0.8-12.16-1.76-12.48z" fill="#0f141b"/>
  </g>
  <g transform="matrix(.26458 0 0 .26458 45.762 156.89)">
   <path d="m0 0c0.16 0.32 0.96 9.28 0.64 9.6-0.48 0.32-2.72 0.48-3.84-0.32-0.8-0.64-1.12-1.76-1.28-3.36 0.32-0.32 4.16-6.24 4.48-5.92z" fill="#fff"/>
  </g>
  <g transform="matrix(.26458 0 0 .26458 64.135 157.9)">
   <path d="m0 0c0.32 0.96 3.2 2.08 5.28 0.96 2.08-0.96 3.2-3.36 2.4-4.48-0.48-0.8-4.32-7.36-5.6-7.2-0.96 0-2.4 9.76-2.08 10.72z" fill="#0f141b"/>
  </g>
  <g transform="matrix(.26458 0 0 .26458 65.744 157.1)">
   <path d="m0 0c0 1.44-0.48 2.24-1.28 2.56-0.96 0.64-2.72 0-3.36-0.32-0.48-0.32 0.64-8 0.96-8.32s3.52 5.76 3.68 6.08z" fill="#fff"/>
  </g>
  <g transform="matrix(.26458 0 0 .26458 61.087 159.64)">
   <path d="m0 0c0.48 0.32 3.2 1.28 5.44 0 1.92-1.28 2.56-3.68 2.08-4.48-1.12-3.04-5.28-8.64-6.08-8.32-1.6 0.64-3.04 12-1.44 12.8z" fill="#0f141b"/>
  </g>
  <g transform="matrix(.26458 0 0 .26458 62.696 158.45)">
   <path d="m0 0c0 1.6-0.64 2.56-1.6 3.2-1.12 0.64-3.2 0.48-3.52 0.16-0.48-0.32 0.96-9.12 1.12-9.44 0.32-0.32 3.84 5.76 4 6.08z" fill="#fff"/>
  </g>
  <g transform="matrix(.26458 0 0 .26458 28.744 149.44)">
   <path d="m0 0c-0.32-0.48-1.28-1.92-1.76-3.68-0.64-1.92-1.92-3.04-1.92 0.48-0.16 2.08 0.64 4 1.76 5.12 3.52 3.52 5.28 4.96 20.8 4.8 16.96-0.16 30.24 4 41.92 7.84 8.48 2.72 18.56 5.6 25.6 5.92 7.04 0.48 68.96-13.44 96.8-15.84 13.6-1.12 18.72-2.56 24-10.24 1.76-2.4-0.16001-4.96-2.56-0.96-2.24 3.84-9.6 7.52-21.6 8.48-44.16 3.2-89.6 16.16-96.96 15.84-7.36-0.16-16.16-3.2-24.48-5.92-11.84-3.84-25.44-8.16-42.72-7.84-12 0.16-15.36-0.64-18.88-4z" fill="#0f141b"/>
  </g>
  <g transform="matrix(.26458 0 0 .26458 46.863 151.3)">
   <path d="m0 0c1.6 0.8 4.16 2.4 4.96 3.04 0 0 3.36 0.48 1.12-2.08-2.24-2.4-2.72-3.04-5.12-3.52-2.24-0.48-2.56 1.76-0.96 2.56z" fill="#0f141b"/>
  </g>
  <g transform="matrix(.26458 0 0 .26458 53.171 151.89)">
   <path d="m0 0c-2.08 2.56 1.6 1.28 1.6 1.28 0-0.16 2.4-1.6 4.96-2.24 2.72-0.48 2.72-3.2-0.32-2.72s-4.32 1.12-6.24 3.68z" fill="#0f141b"/>
  </g>
  <g transform="matrix(.26458 0 0 .26458 58.039 106.34)">
   <path d="m0 0c-2.24 0.64-19.2 13.76-22.24 15.52-2.88 1.92-0.8 2.4-0.8 2.4s8 1.28 10.24 1.76c-6.24 0.8-18.56 1.76-18.56 1.76l-0.32 0.32c-3.84 2.72-7.84 5.92-11.52 9.44 0 0-1.12 1.28 0.32 1.76 1.6 0.32 7.04 1.44 10.72 1.76-6.72 1.76-17.44 4.64-17.44 4.64s-14.88 19.36-14.56 20.16c0.48 0.64 8-3.84 12.16-5.76-5.6 4.96-13.6 11.84-13.6 11.84s-8 16.96-7.2 18.08c0.96001 1.12 10.88-4.32 17.76-7.2-6.56 4.8-15.52 11.2-15.52 11.2s-2.56 12.16-1.92 12.96c0.8 0.96 11.52-7.68 11.68-7.84-1.92 2.4-6.4 6.56-6.4 6.56s3.84 17.6 5.44 18.08 13.6-13.6 17.44-17.28c-1.28 5.28-6.72 24.16-5.6 25.12 0.96 0.96 15.84-3.2 16.64-3.52 0.64-0.32-0.32-7.36-0.48-13.92 0.96 5.12 1.28 10.88 2.24 11.68 0.96 0.64 12.48-4.48 12.48-4.8s-0.48-10.08-0.96-16.96c2.24 6.08 4.96 14.4 5.44 15.04 0.48 0.48 10.88-7.84 10.88-7.84s-2.24-7.52-3.36-11.68c0.64 0.96 4.64 9.12 5.6 10.72 0.8 1.6 1.76 1.28 4.64-0.64 2.72-1.76 9.92-6.4 10.24-8 0.16-1.76-4.16-13.6-6.08-19.84 3.84 4.8 9.76 13.12 11.68 14.24 1.76 1.12 15.52-10.56 15.68-10.56 0.16-0.16 8.96-3.68 9.12-5.28s-5.92-10.88-9.28-16.8c4.96 4.32 11.04 11.2 12.96 11.52 2.08 0.48 22.88-18.08 22.88-18.08-0.16 0-8.48-8.32-15.84-14.72 9.12 2.72 15.2 10.08 15.84 11.84 0.48 1.76 0.64 2.56 1.76-0.32 1.28-3.04 1.6-14.4 2.24-17.6 0.48-3.2-0.8-2.24-2.56-3.84-1.92-1.6-5.28-3.52-8.64-4.8 7.84 0.32 16.8 1.76 16.8 1.76l4.64-13.44-0.8-0.32c-10.4-5.6-34.88-4.96-46.4 0.96-12.96-7.36-28.64-11.52-37.44-10.08z" fill="#0f141b"/>
  </g>
  <g transform="matrix(.26458 0 0 .26458 58.166 106.89)">
   <path d="m0 0c16.48-1.92 37.44 10.08 37.44 10.08 10.56-5.76 33.76-6.56 44.16-1.6-0.32 1.44-2.4 7.84-2.72 8.96-1.6 0-19.2-1.28-26.56-0.8-7.2 0.64-3.84 1.76 0 2.08 3.84 0.48 10.56 0.64 19.36 8.16 0 0.16-0.96 12.16-1.6 15.68-2.88-3.52-11.36-10.4-19.68-11.52-3.04-0.48-4.16-0.64-0.8 1.76 3.52 2.4 14.4 13.12 16.8 15.36-0.64 0.64-3.68 3.04-7.2 5.92-0.64 0.48-12.48-9.28-13.76-8.48-1.44 0.64 11.36 10.4 11.04 10.56-4.32 3.68-8.64 7.2-9.28 7.68-1.28-0.96-12.32-10.88-16.16-14.24s-4.96-4-1.6 1.28c3.36 5.12 10.08 18.24 11.04 20l-7.04 3.52s-6.72-10.72-7.68-10.24 6.24 11.2 5.92 11.52c-3.68 2.56-11.68 8.32-12.8 9.12-1.12-1.28-11.68-14.88-13.76-16.8-2.24-1.92-3.52-3.52-1.92 0.96 1.76 4.64 6.88 22.08 7.36 23.36-1.12 0.8-9.28 6.4-11.04 7.68-0.8-1.92-6.4-14.08-8.64-18.56-2.24-4.32-2.4-4.16-2.08 0 0.32 4.32 3.2 16.16 4.64 20.64-0.96 0.64-5.92 4.16-7.52 5.28-0.8-2.24-5.12-15.2-6.72-19.04-1.76-3.84-2.56-5.6-2.08 0.48s1.12 20.96 1.12 22.4c-0.96 0.48-7.04 2.72-8.64 3.36-0.48-2.24-3.36-18.4-4.32-22.08-0.96-3.52-2.24-3.84-2.08 0.32s0.8 23.52 0.8 25.28c-1.28 0.16-9.44 1.92-11.68 2.4 0.64-2.72 6.88-27.52 6.4-28.96s-17.92 17.76-20 19.84c-0.8-2.4-3.84-12.32-4.16-13.28 2.24-1.92 10.88-10.88 13.6-13.92 2.72-2.88 1.92-3.36-0.96-1.76s-15.2 11.2-17.44 12.48c0.32-2.56 1.12-7.36 1.12-8 0.64-0.48 18.72-13.12 21.6-15.68 3.04-2.56 2.4-2.88-0.96-1.76s-17.44 6.88-21.12 8.32c1.28-3.2 5.12-12.64 5.28-12.96 0.32-0.32 15.04-13.44 18.88-16.64 4-3.04 6.24-4.48-1.12-1.6-7.36 2.72-7.36 3.52-11.68 5.44 3.04-4 8.96-12.48 9.28-12.96 0.8-0.16 19.36-4.64 22.88-6.08 3.52-1.28 3.36-2.24-0.16-1.92s-9.28-0.48-14.56-1.6c3.2-2.88 6.4-5.6 9.76-8 7.04-0.32 20.96-2.08 24.32-2.56s3.36-1.44 0-2.08c-3.2-0.48-12.64-2.72-12.8-2.72 4.8-3.04 17.92-13.6 19.52-14.08z" fill="#00a63c"/>
  </g>
  <g transform="matrix(.26458 0 0 .26458 72.009 111.29)">
   <path d="m0 0c7.36-0.48 24.96 0.8 26.56 0.8 0.32-1.12 2.4-7.52 2.72-8.96-10.4-4.96-33.6-4.16-44.16 1.6 0 0-20.96-12-37.44-10.08-1.6 0.48-14.72 11.04-19.52 14.08 0.16 0 9.6 2.24 12.8 2.72 3.36 0.64 3.36 1.6 0 2.08s-17.28 2.24-24.32 2.56c-1.44 0.96-2.72 2.08-4 3.04 9.44 0.64 15.52 7.36 19.52 17.44 24.8-14.72 51.68-1.44 64.96 20 1.92-1.44 4.48-3.52 7.04-5.76 0.32-0.16-12.48-9.92-11.04-10.56 1.28-0.8 13.12 8.96 13.76 8.48 3.52-2.88 6.56-5.28 7.2-5.92-2.4-2.24-13.28-12.96-16.8-15.36-3.36-2.4-2.24-2.24 0.8-1.76 8.32 1.12 16.8 8 19.68 11.52 0.64-3.52 1.6-15.52 1.6-15.68-8.8-7.52-15.52-7.68-19.36-8.16-3.84-0.32-7.2-1.44 0-2.08z" fill="#009233"/>
  </g>
  <g transform="matrix(.26458 0 0 .26458 66.929 108.92)">
   <path d="m0 0c-43.84 6.72-71.52 52.48-70.72 67.68 0.32 3.36 0.32 2.08 1.44 0.32 28.8-48.8 67.2-61.44 73.76-65.12 6.56-3.84 1.44-1.92 1.44-1.92l-5.76-0.96z" fill="#0f141b"/>
  </g>
  <g transform="matrix(.26458 0 0 .26458 66.929 109.3)">
   <path d="m0 0c0.16 0 4.32 0.16 2.24 0.8-14.56 4-49.44 21.44-70.72 61.12 4.16-17.6 30.08-56 68.48-61.92z" fill="#00a63c"/>
  </g>
  <g transform="matrix(.26458 0 0 .26458 66.929 109.3)">
   <path d="m0 0c-17.44 2.72-32.48 12.16-43.84 23.36 1.44 0.48 2.88 1.12 4.16 2.08 16.48-14.56 32.96-22.08 41.92-24.64 2.08-0.64-2.08-0.8-2.24-0.8z" fill="#009233"/>
  </g>
  <g transform="matrix(.26458 0 0 .26458 54.356 90.593)">
   <path d="m0 0c-36.48 12.32-71.2 46.56-70.24 49.12 0.96 2.4 18.24 12.8 20.48 11.68 2.08-0.96 8.32-11.2 12-14.4-1.76 5.28-1.92 6.72-3.68 11.36-1.76 4.8-0.8 5.6 2.24 6.4 2.88 0.96 14.88 4.8 21.12 7.2s5.44 1.12 6.56-1.28c1.12-2.56 1.76-3.36 4-5.76 0.48 3.04 1.44 9.28 1.44 9.28h19.04s41.28-71.68 67.36-59.04l1.6 0.32c13.28-4.16 46.56 26.08 53.76 49.12 1.6 5.28 2.4 4.8 5.12 5.44 15.36 4 38.24 2.4 39.04 1.76 0.64-0.64 0.32-7.68 0.48001-11.84 2.56 3.36 6.4 7.52 6.88 8.96 0.64 1.44 14.08-3.36 14.72-5.6 0.64-2.08-1.76-8.32-2.56-10.56 2.24 2.72 5.44 6.72 6.88 8.16s14.08-9.76 13.76-12.32-21.12-23.68-48.16-37.28c-32.96-16.64-66.88-19.04-91.04-2.24-22.72-16.48-46.24-20.32-80.8-8.48z" fill="#0f141b"/>
  </g>
  <g transform="matrix(.26458 0 0 .26458 54.779 91.567)">
   <path d="m0 0c33.92-11.68 55.84-10.24 78.08 6.08l1.44 0.8c17.28-10.08 46.56-17.76 87.36 2.72 25.44 12.8 44 30.56 48.8 35.84-1.92 3.36-8 6.72-11.2 8.16-1.12-1.44-3.36-5.76-8.8-10.88-5.28-4.96-4.16-2.08-2.4 1.44 1.92 3.52 2.88 7.04 4.48 13.28-3.36 2.4-8.96 3.68-11.04 4.16-0.8-1.12-9.76-15.04-10.4-13.6-0.64002 1.44-0.64002 15.04-0.80001 16.96-4.8 0.64-24.48 2.24-36.48-2.08-6.56-24.32-38.72-56.96-60-54.72-29.76-11.68-65.12 51.2-69.28 59.04h-15.04c-0.32-1.92-1.28-5.12-1.6-8.48s0.64-4.8-2.24-2.08c-2.88 2.88-5.6 5.44-6.56 8.48-5.12-0.96-18.88-5.6-25.44-8 0.64-2.24 3.68-12.48 5.44-17.6 1.76-4.96 1.44-4.16-1.76-1.92-3.36 2.24-10.88 9.12-14.88 15.84-7.2-1.92-12.96-6.08-15.2-8.16 5.44-5.6 35.04-34.24 67.52-45.28z" fill="#e85382"/>
  </g>
  <g transform="matrix(.26458 0 0 .26458 88.519 90.847)">
   <path d="m0 0c-20.8-2.4-36.8 3.04-48 9.6l-1.44-0.8c-7.84-5.76-15.84-9.76-24.32-11.84 4.8 3.36 8.96 8 11.84 13.12 4.48-1.12 9.12-0.96 13.44 0.8 6.08-0.64 13.12 1.6 20.16 5.76 7.68-8.32 17.6-13.76 28.32-16.64z" fill="#c94772"/>
  </g>
  <g transform="matrix(.26458 0 0 .26458 110.49 104.86)">
   <path d="m0 0c2.08-1.44 4.16-3.04 5.12-4.8-4.32-4.8-19.68-19.52-41.12-31.68 13.28 10.88 25.6 22.88 36 36.48z" fill="#c94772"/>
  </g>
  <g transform="matrix(.26458 0 0 .26458 53.848 109.35)">
   <path d="m0 0h13.28c1.92-3.68 10.4-18.72 21.76-32.96-13.76 8.32-25.92 19.68-35.04 32.96z" fill="#c94772"/>
  </g>
  <g transform="matrix(.26458 0 0 .26458 85.217 90.297)">
   <path d="m0 0h-0.16l-0.16 0.16c-1.76 1.12-2.4 3.84-2.24 5.92 0 0.32 0.16 1.44 5.92 5.28 4.64 3.2 15.2 10.08 17.92 9.28 6.24-1.92 9.6-10.08 11.2-13.76l0.64-1.6-0.48-0.16c-11.36-3.52-22.24-5.28-32.64-5.12z" fill="#0f141b"/>
  </g>
  <g transform="matrix(.26458 0 0 .26458 93.472 91.906)">
   <path d="m0 0c0 0.32-0.16 0.48-0.16 0.48-1.44 3.36-4.64 10.4-10.24 12.16-0.96 0.32-4.64-1.12-10.88-4.64-6.56-3.84-10.72-7.2-10.88-8 0-0.16-0.16-0.48-0.16-0.64 0-1.76 0.64-3.36 1.76-4.16 9.76-0.16 20 1.6 30.56 4.8z" fill="#fceef4"/>
  </g>
  <g transform="matrix(.26458 0 0 .26458 85.386 90.636)">
   <path d="m0 0c-1.12 0.8-1.76 2.4-1.76 4.16 0 0.16 0.16 0.48 0.16 0.64s0.16 0.32 0.32 0.48c5.76-3.2 9.92-3.2 14.72-4.32-4.64-0.64-9.12-0.96-13.44-0.96z" fill="#d9ced4"/>
  </g>
  <g transform="matrix(.26458 0 0 .26458 88.18 102.24)">
   <path d="m0 0 3.2 6.56 1.6 3.04 0.16 0.16c6.4 5.12 10.88 7.52 13.28 7.04 0 0 14.56-1.28 16.48-6.56 1.44-4-1.44-21.6-7.84-23.04-4.16-1.12-20.16 3.68-26.88 12.8z" fill="#0f141b"/>
  </g>
  <g transform="matrix(.26458 0 0 .26458 93.049 106.26)">
   <path d="m0 0 1.12-0.16c2.88-0.32 11.52-1.28 13.12-5.76 0.48-1.12 0.64-2.4 0.64-3.84 0-4.32-1.6-9.44-3.84-13.28-1.28-2.56-2.4-3.68-2.72-3.68-3.2-0.8-18.24 3.2-24.8 11.84 0.16 0.32 0.64 1.28 1.28 2.4 1.44 2.24 2.88 4.32 4 6.56 5.44 4.16 9.44 6.24 11.2 5.92z" fill="#fceef4"/>
  </g>
  <g transform="matrix(.26458 0 0 .26458 98.975 96.224)">
   <path d="m0 0c-1.44 0.32-4 2.24-5.12 3.84-1.12 1.92-1.6 3.84-1.12 5.44 0.8 3.04 9.76 12.48 12.32 12.48 2.08 0 16.96-5.76 18.4-8.16 0.16-0.48 0-0.96 0-1.12-1.44-2.08-21.6-13.12-24.48-12.48z" fill="#0f141b"/>
  </g>
  <g transform="matrix(.26458 0 0 .26458 97.748 98.51)">
   <path d="m0 0c-0.32-1.12 0-2.88 0.96-4.32 0.8-1.44 2.08-2.4 3.04-2.72 2.56-0.48 21.44 9.76 22.88 11.52-0.48 1.44-13.6 6.88-15.84 6.88-1.76 0-10.24-8.32-11.04-11.36z" fill="#fceef4"/>
  </g>
  <g transform="matrix(.26458 0 0 .26458 63.331 89.323)">
   <path d="m0 0c-5.6 0.48-11.2 0.48-17.76 2.08l-1.28 0.96s-8.32 9.12-8.32 10.4c0 0.16 0.8 0.8 1.12 1.12 2.56 1.44 20.16 2.24 22.08 1.28 1.44-0.8 3.84-12.8 4.64-15.04l0.32-0.8z" fill="#0f141b"/>
  </g>
  <g transform="matrix(.26458 0 0 .26458 56.896 92.752)">
   <path d="m0 0c1.6 0.96 17.76 2.08 19.52 1.12 0.96-0.48 1.6-3.68 2.24-6.72 0.48-2.08 0.96-4.16 1.6-6.24-5.28 0.48-10.88 1.44-16.96 3.04-0.64 0.8-1.76 2.08-1.76 2.08-2.08 2.56-4.48 5.6-4.64 6.72z" fill="#fceef4"/>
  </g>
  <g transform="matrix(.26458 0 0 .26458 48.387 99.272)">
   <path d="m0 0c-0.48 2.24 10.56 15.68 10.88 16.32 1.44 2.08 28.96-1.92 28.96-6.72 0-3.68-8.48-25.12-10.72-25.6-1.44-0.16-28.16 12.48-29.12 16z" fill="#0f141b"/>
  </g>
  <g transform="matrix(.26458 0 0 .26458 50.885 102.15)">
   <path d="m0 0c-2.72-3.04-7.36-8.16-7.36-10.08v-0.32c0.64-2.24 24-14.08 26.56-14.24 1.6 0.96 9.28 19.2 9.28 23.04 0 0.16-0.32 1.28-4.96 2.72-8 2.72-19.68 3.68-20.48 2.56-0.48-0.8-1.6-2.08-3.04-3.68z" fill="#fceef4"/>
  </g>
  <g transform="matrix(.26458 0 0 .26458 62.992 94.657)">
   <path d="m0 0c-1.28 0.48-3.84 4.64-6.56 9.12l-1.44 2.4c-0.16 0.16-0.16 0.48-0.16 0.64 0.48 0.96 2.24 1.28 8.96 1.92 2.72 0.32 5.6 0.64 7.52 0.96l0.16 0.16 0.32-0.32c4.96-5.12 9.76-9.28 14.24-12.16l0.48-0.32-0.32-0.48c-4.16-7.04-21.28-3.04-23.2-1.92z" fill="#0f141b"/>
  </g>
  <g transform="matrix(.26458 0 0 .26458 63.331 94.869)">
   <path d="m0 0c-0.96 0.48-4.32 6.08-5.92 8.64 0 0-0.96 1.6-1.28 2.08 0.96 0.32 4.8 0.8 7.68 1.12 2.4 0.32 4.8 0.48 6.72 0.8 4.32-4.48 8.8-8.48 13.44-11.68-4.48-5.12-19.2-1.6-20.64-0.96z" fill="#fceef4"/>
  </g>
  <g transform="matrix(.26458 0 0 .26458 92.329 175.34)">
   <path d="m0 0c-0.16-1.6-6.72-7.68-9.6-9.44 3.2 6.08 3.36 13.12 3.04 20.16 2.4-2.4 6.72-8.8 6.56-10.72z" fill="#dbdcdc"/>
  </g>
 </g>
</svg>
